<svg height="512pt" viewBox="0 0 512 512" width="512pt" xmlns="http://www.w3.org/2000/svg"><path d="m512 256c0 141.386719-114.613281 256-256 256s-256-114.613281-256-256 114.613281-256 256-256 256 114.613281 256 256zm0 0" fill="#f74b4b"/><g fill="#fc7070"><path d="m156.742188 250.679688h-156.6757818c-.0351562 1.769531-.0664062 3.542968-.0664062 5.320312 0 23.308594 3.132812 45.882812 8.972656 67.34375h39.785156c10.035157 0 18.167969-8.132812 18.167969-18.164062 0-10.035157 8.132813-18.167969 18.167969-18.167969h71.652344c10.03125 0 18.164062-8.132813 18.164062-18.167969 0-10.03125-8.132812-18.164062-18.167968-18.164062zm0 0"/><path d="m177.667969 175.398438c0-10.03125 8.132812-18.167969 18.167969-18.167969h189.664062c10.03125 0 18.167969 8.132812 18.167969 18.167969 0 10.035156 8.132812 18.167968 18.167969 18.167968h45c10.03125 0 18.164062 8.132813 18.164062 18.167969 0 10.03125-8.132812 18.164063-18.164062 18.164063h-12.824219c-10.035157 0-18.167969 8.132812-18.167969 18.167968s-8.132812 18.167969-18.167969 18.167969h-180.074219c-10.03125 0-18.164062-8.132813-18.164062-18.167969 0-10.03125 8.132812-18.167968 18.164062-18.167968h12.824219c10.035157 0 18.167969-8.132813 18.167969-18.164063 0-10.035156-8.132812-18.167969-18.167969-18.167969h-54.59375c-10.03125 0-18.164062-8.132812-18.164062-18.167968zm0 0"/><path d="m301.96875 152.261719h-27.800781c-10.035157 0-18.167969-8.132813-18.167969-18.164063 0-10.035156-8.132812-18.167968-18.167969-18.167968h-196.125c-7.535156 11.5-14.167969 23.644531-19.800781 36.332031h24.0625c10.03125 0 18.167969 8.132812 18.167969 18.167969 0 10.03125 8.132812 18.167968 18.164062 18.167968h219.667969c10.035156 0 18.167969-8.132812 18.167969-18.167968 0-10.035157-8.136719-18.167969-18.167969-18.167969zm0 0"/><path d="m510.667969 282.253906h-34.203125c-10.03125 0-18.164063 8.132813-18.164063 18.167969 0 10.03125-8.136719 18.167969-18.167969 18.167969h-17.800781c-10.035156 0-18.167969 8.132812-18.167969 18.164062 0 10.035156 8.132813 18.167969 18.167969 18.167969h69.847657c9.535156-22.742187 15.890624-47.148437 18.488281-72.667969zm0 0"/></g><path d="m204.523438 248.304688h102.953124v140.695312h-102.953124zm0 0" fill="#c1ccd0"/><path d="m430.414062 200.976562c0 24.15625-19.585937 43.742188-43.746093 43.742188-24.15625 0-43.742188-19.585938-43.742188-43.742188 0-24.160156 19.585938-43.746093 43.742188-43.746093 24.160156 0 43.746093 19.585937 43.746093 43.746093zm0 0" fill="#e2e6e7"/><path d="m169.074219 200.976562c0 24.15625-19.585938 43.742188-43.742188 43.742188-24.160156 0-43.746093-19.585938-43.746093-43.742188 0-24.160156 19.585937-43.746093 43.746093-43.746093 24.15625 0 43.742188 19.585937 43.742188 43.746093zm0 0" fill="#c1ccd0"/><path d="m256 352.949219c-72.167969 0-130.667969-58.503907-130.667969-130.667969v-74.289062c0-72.167969 58.503907-130.667969 130.667969-130.667969 72.167969 0 130.667969 58.503906 130.667969 130.667969v74.289062c0 72.164062-58.5 130.667969-130.667969 130.667969zm0 0" fill="#fbfcf7"/><path d="m155.332031 222.28125v-74.289062c0-67.09375 50.566407-122.363282 115.667969-129.804688-4.921875-.566406-9.925781-.863281-15-.863281-72.167969 0-130.667969 58.5-130.667969 130.667969v74.289062c0 72.167969 58.503907 130.667969 130.667969 130.667969 5.074219 0 10.078125-.296875 15-.859375-65.101562-7.445313-115.667969-62.714844-115.667969-129.808594zm0 0" fill="#e2e6e7"/><path d="m256 284.007812c30.578125 0 55.648438-23.582031 58.023438-53.550781.199218-2.519531-1.855469-4.65625-4.386719-4.65625h-107.273438c-2.53125 0-4.585937 2.136719-4.386719 4.65625 2.375 29.96875 27.445313 53.550781 58.023438 53.550781zm0 0" fill="#3e4852"/><path d="m293.867188 269.996094c-9.960938-9.171875-23.257813-14.777344-37.867188-14.777344s-27.90625 5.605469-37.867188 14.777344c10.179688 8.730468 23.402344 14.011718 37.867188 14.011718s27.6875-5.28125 37.867188-14.011718zm0 0" fill="#fd6e99"/><path d="m375.90625 367.3125c-3.082031-.21875-5.15625-3.25-4.203125-6.191406l24.417969-75.308594c.953125-2.933594-1.234375-5.945312-4.320313-5.945312h-22.292969c-34.257812 0-62.03125 27.773437-62.03125 62.035156v25.191406h-102.953124v-25.191406c0-34.261719-27.773438-62.035156-62.03125-62.035156h-22.292969c-3.085938 0-5.273438 3.011718-4.320313 5.945312l24.417969 75.308594c.953125 2.941406-1.121094 5.972656-4.203125 6.191406-33.90625 2.417969-62.65625 24.699219-74.0625 55.757812 46.949219 54.453126 116.429688 88.929688 193.96875 88.929688s147.019531-34.476562 193.96875-88.933594c-11.40625-31.054687-40.15625-53.335937-74.0625-55.753906zm0 0" fill="#3e4852"/><path d="m256 491.023438c-28.429688 0-51.476562-23.046876-51.476562-51.476563v-72.453125h102.953124v72.453125c0 28.429687-23.046874 51.476563-51.476562 51.476563zm0 0" fill="#e2e6e7"/><path d="m256 367.09375h51.476562l-51.476562 82.832031zm0 0" fill="#fbfcf7"/><path d="m290.054688 249.859375 12.433593-23.980469-.078125-.078125h-24.90625zm0 0" fill="#bff8ff"/><path d="m222.058594 249.859375 12.4375-23.980469-.078125-.078125h-24.90625zm0 0" fill="#bff8ff"/><path d="m256 0c-81.601562 0-147.992188 66.390625-147.992188 147.992188v12.808593c5.3125-2.292969 11.167969-3.570312 17.320313-3.570312v27.90625h.003906c10.289063 0 18.628907-8.339844 18.628907-18.628907v-17.917968c0-30.941406 25.078124-56.019532 56.019531-56.019532 30.9375 0 45.820312 56.019532 56.019531 56.019532s25.082031-56.019532 56.019531-56.019532c30.941407 0 56.019531 25.078126 56.019531 56.019532v17.917968c0 10.289063 8.339844 18.628907 18.628907 18.628907h.003906v-27.90625c6.152344 0 12.007813 1.277343 17.320313 3.570312v-12.808593c0-81.601563-66.390626-147.992188-147.992188-147.992188zm0 0" fill="#3e4852"/><path d="m143.9375 147.992188c0-78.109376 61.804688-142.054688 139.078125-145.511719-8.761719-1.625-17.789063-2.480469-27.015625-2.480469-81.601562 0-147.992188 66.390625-147.992188 147.992188v12.808593c5.3125-2.292969 11.167969-3.570312 17.320313-3.570312v27.90625h.003906c10.136719 0 18.367188-8.105469 18.605469-18.1875zm0 0" fill="#2e3b43"/><path d="m136.09375 367.3125c-33.90625 2.417969-62.65625 24.699219-74.0625 55.753906 17.449219 20.238282 38.011719 37.710938 60.941406 51.683594 1.335938-57.925781 29.78125-86.0625 41.3125-95.121094 2.824219-2.222656 3.9375-5.988281 2.820313-9.40625l-29.5625-90.355468h-17.34375c-3.085938 0-5.273438 3.011718-4.320313 5.945312l24.417969 75.308594c.953125 2.941406-1.121094 5.972656-4.203125 6.191406zm0 0" fill="#2e3b43"/></svg>