<svg height="512pt" viewBox="0 0 512.001 512" width="512pt" xmlns="http://www.w3.org/2000/svg"><path d="m512 256c0 141.386719-114.613281 256-256 256s-256-114.613281-256-256c0-141.382812 114.613281-256 256-256s256 114.617188 256 256zm0 0" fill="#3e4852"/><g fill="#5a606c"><path d="m510.667969 282.253906h-24.203125c-10.03125 0-18.164063 8.132813-18.164063 18.167969 0 10.03125-8.136719 18.167969-18.167969 18.167969h-17.800781c-10.035156 0-18.167969 8.132812-18.167969 18.164062 0 10.035156 8.132813 18.167969 18.167969 18.167969h59.847657c9.535156-22.742187 15.890624-47.148437 18.488281-72.667969zm0 0"/><path d="m156.742188 250.679688h-156.6757818c-.0351562 1.769531-.0664062 3.542968-.0664062 5.320312 0 23.308594 3.132812 45.882812 8.972656 67.34375h39.785156c10.035157 0 18.167969-8.132812 18.167969-18.164062 0-10.035157 8.132813-18.167969 18.167969-18.167969h71.652344c10.03125 0 18.164062-8.132813 18.164062-18.167969 0-10.03125-8.132812-18.164062-18.167968-18.164062zm0 0"/><path d="m298.136719 236.347656c0-10.03125 8.132812-18.167968 18.167969-18.167968h149.667968c10.03125 0 18.167969 8.132812 18.167969 18.167968 0 10.03125-8.136719 18.167969-18.167969 18.167969h-27.800781c-10.035156 0-18.167969 8.132813-18.167969 18.164063 0 10.035156-8.132812 18.167968-18.167968 18.167968h-149.664063c-10.035156 0-18.167969-8.132812-18.167969-18.167968 0-10.03125 8.132813-18.164063 18.167969-18.164063h27.800781c10.03125-.003906 18.164063-8.136719 18.164063-18.167969zm0 0"/></g><path d="m119.828125 472.796875c39.441406 24.828125 86.125 39.203125 136.171875 39.203125s96.730469-14.375 136.171875-39.203125v-324.394531h-272.34375zm0 0" fill="#d3406a"/><path d="m449.953125 423.085938c-12.082031-32.917969-43.652344-55.976563-80.195313-55.976563h-227.515624c-36.539063 0-68.113282 23.058594-80.195313 55.976563 46.945313 54.445312 116.421875 88.914062 193.953125 88.914062s147.007812-34.46875 193.953125-88.914062zm0 0" fill="#8f64ac"/><path d="m307.472656 367.109375v-118.78125h-102.945312v118.78125h-43.550782c0 52.476563 42.542969 95.023437 95.023438 95.023437s95.023438-42.546874 95.023438-95.023437zm0 0" fill="#42c8b0"/><path d="m430.398438 201.003906c0 24.15625-19.582032 43.738282-43.742188 43.738282-24.15625 0-43.738281-19.582032-43.738281-43.738282s19.582031-43.742187 43.738281-43.742187c24.160156 0 43.742188 19.585937 43.742188 43.742187zm0 0" fill="#63e7ae"/><path d="m169.082031 201.003906c0 24.15625-19.582031 43.738282-43.738281 43.738282-24.160156 0-43.742188-19.582032-43.742188-43.738282s19.582032-43.742187 43.742188-43.742187c24.15625 0 43.738281 19.585937 43.738281 43.742187zm0 0" fill="#42c8b0"/><path d="m386.65625 148.027344v74.28125c0 72.160156-58.496094 130.65625-130.65625 130.65625s-130.65625-58.496094-130.65625-130.65625v-74.28125zm0 0" fill="#7ef8c5"/><path d="m155.34375 222.304688v-74.28125h-30v74.28125c0 72.160156 58.496094 130.660156 130.65625 130.660156 5.074219 0 10.078125-.300782 15-.863282-65.09375-7.441406-115.65625-62.707031-115.65625-129.796874zm0 0" fill="#63e7ae"/><path d="m256 284.027344c30.574219 0 55.644531-23.578125 58.019531-53.542969.199219-2.523437-1.855469-4.65625-4.386719-4.65625h-107.265624c-2.53125 0-4.585938 2.132813-4.386719 4.65625 2.375 29.964844 27.445312 53.542969 58.019531 53.542969zm0 0" fill="#3e4852"/><path d="m256 0c-50.332031 0-183.5 153.734375-183.5 153.734375h367s-133.167969-153.734375-183.5-153.734375zm0 0" fill="#8f64ac"/><path d="m281 7.984375c-9.53125-5.046875-18.054688-7.984375-25-7.984375-50.332031 0-183.5 153.734375-183.5 153.734375h50s98.953125-114.230469 158.5-145.75zm0 0" fill="#7c549b"/><path d="m256 152.261719h182.214844c-6.066406-6.921875-33.230469-37.617188-65.742188-69.671875h-232.945312c-32.511719 32.054687-59.675782 62.75-65.742188 69.671875zm0 0" fill="#2e3b43"/><path d="m189.527344 82.589844h-50c-32.511719 32.054687-59.675782 62.75-65.742188 69.671875h50c6.066406-6.921875 33.230469-37.617188 65.742188-69.671875zm0 0" fill="#212d33"/><path d="m281.378906 160.015625h-50.757812c-6.179688 0-11.1875-5.007813-11.1875-11.1875v-71.652344c0-6.179687 5.007812-11.191406 11.1875-11.191406h50.757812c6.179688 0 11.1875 5.011719 11.1875 11.191406v71.652344c0 6.179687-5.007812 11.1875-11.1875 11.1875zm0 0" fill="#fce46a"/><path d="m242.527344 133.667969v-41.335938c0-1.796875 1.457031-3.25 3.25-3.25h20.445312c1.792969 0 3.25 1.453125 3.25 3.25v41.339844c0 1.792969-1.457031 3.25-3.25 3.25h-20.445312c-1.792969 0-3.25-1.457031-3.25-3.253906zm0 0" fill="#2e3b43"/><path d="m512 175.5625c0 3.960938-3.707031 6.867188-7.554688 5.9375-17.808593-4.304688-160.183593-13.984375-248.445312-13.984375s-230.636719 9.679687-248.445312 13.980469c-3.847657.929687-7.554688-1.972656-7.554688-5.933594v-33.9375c0-3.375 2.734375-6.109375 6.109375-6.109375h499.78125c3.375 0 6.109375 2.734375 6.109375 6.109375zm0 0" fill="#8f64ac"/><path d="m504.445312 166.5c-17.808593-4.304688-160.183593-13.984375-248.445312-13.984375s-230.636719 9.679687-248.445312 13.984375c-3.847657.925781-7.554688-1.976562-7.554688-5.9375v15c0 3.960938 3.707031 6.867188 7.554688 5.9375 17.808593-4.304688 160.183593-13.984375 248.445312-13.984375s230.636719 9.679687 248.445312 13.984375c3.847657.929688 7.554688-1.976562 7.554688-5.9375v-15c0 3.960938-3.707031 6.863281-7.554688 5.9375zm0 0" fill="#7c549b"/><path d="m293.867188 270.015625c-9.964844-9.167969-23.257813-14.773437-37.867188-14.773437s-27.902344 5.605468-37.867188 14.773437c10.179688 8.730469 23.40625 14.011719 37.867188 14.011719s27.6875-5.28125 37.867188-14.011719zm0 0" fill="#fd6e99"/></svg>