<svg height="512pt" viewBox="0 0 512 512" width="512pt" xmlns="http://www.w3.org/2000/svg"><path d="m512 256c0 141.386719-114.613281 256-256 256s-256-114.613281-256-256 114.613281-256 256-256 256 114.613281 256 256zm0 0" fill="#e2e6e7"/><g fill="#fbfcf7"><path d="m156.742188 250.679688h-156.6757818c-.0351562 1.769531-.0664062 3.542968-.0664062 5.320312 0 23.308594 3.132812 45.882812 8.972656 67.34375h39.785156c10.035157 0 18.167969-8.132812 18.167969-18.164062 0-10.035157 8.132813-18.167969 18.167969-18.167969h71.652344c10.03125 0 18.164062-8.132813 18.164062-18.167969 0-10.03125-8.132812-18.164062-18.167968-18.164062zm0 0"/><path d="m177.667969 146.96875c0-10.035156 8.132812-18.167969 18.167969-18.167969h189.664062c10.03125 0 18.167969 8.132813 18.167969 18.167969 0 10.03125 8.132812 18.164062 18.167969 18.164062h45c10.03125 0 18.164062 8.132813 18.164062 18.167969 0 10.035157-8.132812 18.167969-18.164062 18.167969h-12.824219c-10.035157 0-18.167969 8.132812-18.167969 18.167969 0 10.03125-8.132812 18.164062-18.167969 18.164062h-180.074219c-10.03125 0-18.164062-8.132812-18.164062-18.164062 0-10.035157 8.132812-18.167969 18.164062-18.167969h12.824219c10.035157 0 18.167969-8.132812 18.167969-18.167969 0-10.03125-8.132812-18.167969-18.167969-18.167969h-54.59375c-10.03125 0-18.164062-8.132812-18.164062-18.164062zm0 0"/><path d="m301.96875 152.261719h-27.800781c-10.035157 0-18.167969-8.132813-18.167969-18.164063 0-10.035156-8.132812-18.167968-18.167969-18.167968h-196.125c-7.535156 11.5-14.167969 23.644531-19.800781 36.332031h14.0625c10.03125 0 18.167969 8.132812 18.167969 18.167969 0 10.03125 8.132812 18.167968 18.164062 18.167968h229.667969c10.035156 0 18.167969-8.132812 18.167969-18.167968 0-10.035157-8.136719-18.167969-18.167969-18.167969zm0 0"/><path d="m510.667969 282.253906h-34.203125c-10.03125 0-18.164063 8.132813-18.164063 18.167969 0 10.03125-8.136719 18.167969-18.167969 18.167969h-17.800781c-10.035156 0-18.167969 8.132812-18.167969 18.164062 0 10.035156 8.132813 18.167969 18.167969 18.167969h69.847657c9.535156-22.742187 15.890624-47.148437 18.488281-72.667969zm0 0"/></g><path d="m271.894531 113h-31.789062c-3.53125 0-6.390625-2.863281-6.390625-6.394531v-100.210938c0-3.53125 2.859375-6.394531 6.390625-6.394531h31.789062c3.53125 0 6.390625 2.863281 6.390625 6.394531v100.210938c0 3.53125-2.859375 6.394531-6.390625 6.394531zm0 0" fill="#a18838"/><path d="m253.714844 106.605469v-100.210938c0-3.53125 2.859375-6.394531 6.390625-6.394531h-20c-3.53125 0-6.390625 2.863281-6.390625 6.394531v100.210938c0 3.53125 2.859375 6.394531 6.390625 6.394531h20c-3.53125 0-6.390625-2.863281-6.390625-6.394531zm0 0" fill="#8f701e"/><path d="m207.84375 265.300781h96.3125v157.085938h-96.3125zm0 0" fill="#f35d11"/><path d="m398.242188 275.910156c-20.730469 0-37.539063-16.804687-37.539063-37.535156v-96.269531c0-20.730469 16.808594-37.535157 37.539063-37.535157 20.730468 0 37.535156 16.804688 37.535156 37.535157v96.269531c0 20.730469-16.804688 37.535156-37.535156 37.535156zm0 0" fill="#f35d11"/><path d="m331.78125 341.921875c-36.703125 0-66.457031-29.753906-66.457031-66.457031v-170.445313c0-36.703125 29.753906-66.457031 66.457031-66.457031s66.457031 29.753906 66.457031 66.457031v170.441407c.003907 36.703124-29.75 66.460937-66.457031 66.460937zm0 0" fill="#f08d0b"/><path d="m113.757812 275.910156c-20.730468 0-37.535156-16.804687-37.535156-37.535156v-96.269531c0-20.730469 16.804688-37.535157 37.535156-37.535157 20.730469 0 37.539063 16.804688 37.539063 37.535157v96.269531c0 20.730469-16.808594 37.535156-37.539063 37.535156zm0 0" fill="#f35d11"/><path d="m180.21875 341.921875c-36.707031 0-66.460938-29.753906-66.460938-66.457031v-170.445313c0-36.703125 29.753907-66.457031 66.457032-66.457031 36.707031 0 66.460937 29.753906 66.460937 66.457031v170.441407c0 36.703124-29.753906 66.460937-66.457031 66.460937zm0 0" fill="#f08d0b"/><path d="m256 363.199219c-41.855469 0-75.78125-33.925781-75.78125-75.78125v-194.351563c0-41.855468 33.925781-75.785156 75.78125-75.785156 41.851562 0 75.78125 33.929688 75.78125 75.785156v194.351563c0 41.855469-33.925781 75.78125-75.78125 75.78125zm0 0" fill="#ffb82c"/><path d="m256 298.703125c28.609375 0 52.0625-22.0625 54.28125-50.097656.1875-2.359375-1.734375-4.359375-4.101562-4.359375h-100.359376c-2.367187 0-4.289062 2-4.101562 4.359375 2.21875 28.035156 25.671875 50.097656 54.28125 50.097656zm0 0" fill="#3e4852"/><path d="m291.429688 285.59375c-9.320313-8.578125-21.761719-13.824219-35.429688-13.824219s-26.105469 5.246094-35.429688 13.824219c9.523438 8.167969 21.898438 13.109375 35.429688 13.109375s25.90625-4.941406 35.429688-13.109375zm0 0" fill="#fd6e99"/><path d="m364.800781 372.277344 40.171875-70.554688c1.75-3.074218-.472656-6.894531-4.007812-6.894531h-41.800782c-30.378906 0-55.007812 24.628906-55.007812 55.007813v26.597656h-96.3125v-26.597656c0-30.378907-24.628906-55.007813-55.007812-55.007813h-41.800782c-3.539062 0-5.757812 3.820313-4.007812 6.894531l40.167968 70.554688c1.050782 1.839844-.183593 4.167968-2.300781 4.292968-34.273437 1.980469-63.121093 25.640626-72.261719 58.042969 46.5 47.730469 111.464844 77.386719 183.367188 77.386719s136.867188-29.65625 183.367188-77.386719c-9.140626-32.402343-37.988282-56.0625-72.265626-58.042969-2.113281-.125-3.347656-2.453124-2.300781-4.292968zm0 0" fill="#3e4852"/><path d="m125.285156 295.046875-3.328125-.21875h-10.921875c-3.539062 0-5.757812 3.820313-4.007812 6.894531l40.171875 70.554688c1.046875 1.839844-.1875 4.167968-2.300781 4.292968-34.277344 1.980469-63.125 25.640626-72.265626 58.042969 17.21875 17.675781 36.96875 32.867188 58.667969 44.996094 3.539063-59.082031 31.238281-85.253906 40.476563-92.382813 1.675781-1.292968 2.148437-3.621093 1.128906-5.480468zm0 0" fill="#2e3b43"/><path d="m256 492.375c-26.597656 0-48.15625-21.5625-48.15625-48.15625v-67.785156h96.3125v67.785156c0 26.59375-21.558594 48.15625-48.15625 48.15625zm0 0" fill="#e2e6e7"/><path d="m256 376.433594h48.15625l-48.15625 77.492187zm0 0" fill="#fbfcf7"/></svg>