<svg height="512pt" viewBox="0 0 512 512" width="512pt" xmlns="http://www.w3.org/2000/svg"><path d="m512 256c0 141.386719-114.613281 256-256 256s-256-114.613281-256-256 114.613281-256 256-256 256 114.613281 256 256zm0 0" fill="#3e4852"/><g fill="#5a606c"><path d="m301.96875 152.261719h-27.800781c-10.035157 0-18.167969-8.132813-18.167969-18.164063 0-10.035156-8.132812-18.167968-18.167969-18.167968h-196.125c-7.535156 11.5-14.167969 23.644531-19.800781 36.332031h24.0625c10.03125 0 18.167969 8.132812 18.167969 18.167969 0 10.03125 8.132812 18.167968 18.164062 18.167968h219.667969c10.035156 0 18.167969-8.132812 18.167969-18.167968 0-10.035157-8.136719-18.167969-18.167969-18.167969zm0 0"/><path d="m503.328125 189.753906h-51.496094c-10.03125 0-18.167969-8.132812-18.167969-18.167968 0-10.03125-8.132812-18.164063-18.164062-18.164063h-189.667969c-10.03125 0-18.167969 8.132813-18.167969 18.164063 0 10.035156 8.136719 18.167968 18.167969 18.167968h54.59375c10.035157 0 18.167969 8.132813 18.167969 18.167969 0 10.03125-8.132812 18.167969-18.167969 18.167969h-12.824219c-10.03125 0-18.164062 8.132812-18.164062 18.164062 0 10.035156 8.132812 18.167969 18.164062 18.167969h180.074219c10.035157 0 18.167969-8.132813 18.167969-18.167969 0-10.03125 8.132812-18.164062 18.167969-18.164062h26.242187c-1.445312-12.40625-3.773437-24.539063-6.925781-36.335938zm0 0"/><path d="m156.742188 250.679688h-156.6757818c-.0351562 1.769531-.0664062 3.542968-.0664062 5.320312 0 23.308594 3.132812 45.882812 8.972656 67.34375h39.785156c10.035157 0 18.167969-8.132812 18.167969-18.164062 0-10.035157 8.132813-18.167969 18.167969-18.167969h71.652344c10.03125 0 18.164062-8.132813 18.164062-18.167969 0-10.03125-8.132812-18.164062-18.167968-18.164062zm0 0"/><path d="m507.183594 305.589844h-42.050782c-10.03125 0-18.167968 8.132812-18.167968 18.164062 0 10.035156-8.132813 18.167969-18.164063 18.167969h-37.804687c-10.03125 0-18.164063 8.132813-18.164063 18.167969 0 10.03125 8.132813 18.167968 18.164063 18.167968h89.976562c12.203125-22.410156 21.140625-46.847656 26.210938-72.667968zm0 0"/></g><path d="m449.96875 423.066406c-12.085938-32.917968-43.660156-55.972656-80.199219-55.972656h-227.535156c-36.542969 0-68.117187 23.054688-80.199219 55.972656 46.945313 54.457032 116.425782 88.933594 193.964844 88.933594s147.019531-34.476562 193.96875-88.933594zm0 0" fill="#fbfcf7"/><path d="m307.476562 367.09375v-118.789062h-102.953124v118.789062h-22.082032c0 44.171875 19.597656 90.035156 32.980469 90.035156s21.25-20.746094 21.25-20.746094 3.546875 34.8125 19.328125 34.8125 19.328125-34.8125 19.328125-34.8125 7.867187 20.746094 21.246094 20.746094c13.382812 0 32.980469-45.863281 32.980469-90.035156zm0 0" fill="#8f701e"/><path d="m379.144531 196.8125s35.144531-196.8125 0-196.8125-113.144531 140-113.144531 140zm0 0" fill="#8f701e"/><path d="m132.855469 196.8125s-35.144531-196.8125 0-196.8125 113.144531 140 113.144531 140zm0 0" fill="#8f701e"/><path d="m386.667969 268.320312s27.550781 5.003907 31.785156-10.394531c4.234375-15.398437-31.785156-38.496093-31.785156-56.949219v-52.984374c0-72.167969-58.5-130.667969-130.667969-130.667969-72.164062 0-130.667969 58.5-130.667969 130.667969v52.984374c0 18.453126-36.019531 41.550782-31.785156 56.949219 4.234375 15.398438 31.785156 10.394531 31.785156 10.394531s-36.714843 41.960938-32.132812 56.203126c4.582031 14.242187 51.546875-16.824219 51.546875-16.824219s-4.621094 21.445312 5.003906 27.601562c9.625 6.160157 30.582031-6.476562 30.582031-6.476562 21.351563 15.191406 47.464844 24.125 75.667969 24.125 28.199219 0 54.316406-8.933594 75.667969-24.125 0 0 20.957031 12.636719 30.582031 6.476562 9.625-6.15625 5.003906-27.601562 5.003906-27.601562s46.964844 31.066406 51.546875 16.824219c4.582031-14.242188-32.132812-56.203126-32.132812-56.203126zm0 0" fill="#a18838"/><path d="m159.976562 222.28125v-74.289062c0-66.292969 49.371094-121.046876 113.34375-129.523438-5.667968-.75-11.449218-1.144531-17.320312-1.144531-72.167969 0-130.671875 58.5-130.671875 130.667969v52.984374c0 18.453126-36.019531 41.550782-31.78125 56.949219 4.234375 15.398438 31.78125 10.394531 31.78125 10.394531s-36.710937 41.960938-32.128906 56.203126c4.582031 14.242187 51.546875-16.824219 51.546875-16.824219s-4.621094 21.445312 5.003906 27.601562c9.625 6.160157 30.582031-6.476562 30.582031-6.476562 21.351563 15.191406 47.464844 24.125 75.667969 24.125 5.855469 0 11.613281-.40625 17.265625-1.152344-63.949219-8.5-113.289063-63.242187-113.289063-129.515625zm0 0" fill="#93792f"/><path d="m256 308.414062c-38.800781 0-70.253906-31.453124-70.253906-70.253906v-28.261718c0-38.796876 31.453125-70.25 70.253906-70.25s70.253906 31.453124 70.253906 70.25v28.261718c0 38.800782-31.453125 70.253906-70.253906 70.253906zm0 0" fill="#b79d55"/><path d="m256 284.007812c30.578125 0 55.648438-23.582031 58.023438-53.550781.199218-2.519531-1.855469-4.65625-4.386719-4.65625h-107.273438c-2.53125 0-4.585937 2.136719-4.386719 4.65625 2.375 29.96875 27.445313 53.550781 58.023438 53.550781zm0 0" fill="#3e4852"/><path d="m256 202.546875c20.222656 0 36.800781-15.59375 38.367188-35.410156.132812-1.667969-1.226563-3.082031-2.898438-3.082031h-70.9375c-1.671875 0-3.03125 1.414062-2.898438 3.082031 1.566407 19.816406 18.144532 35.410156 38.367188 35.410156zm0 0" fill="#3e4852"/><path d="m293.867188 269.996094c-9.960938-9.171875-23.257813-14.777344-37.867188-14.777344s-27.90625 5.605469-37.867188 14.777344c10.179688 8.730468 23.402344 14.011718 37.867188 14.011718s27.6875-5.28125 37.867188-14.011718zm0 0" fill="#fd6e99"/><path d="m290.054688 249.859375 12.433593-23.980469-.078125-.078125h-24.90625zm0 0" fill="#bff8ff"/><path d="m222.058594 249.859375 12.4375-23.980469-.078125-.078125h-24.90625zm0 0" fill="#bff8ff"/></svg>