<svg height="512pt" viewBox="0 0 512 512.00036" width="512pt" xmlns="http://www.w3.org/2000/svg"><path d="m512 256c0 141.386719-114.613281 256-256 256-141.382812 0-256-114.613281-256-256 0-141.382812 114.617188-256 256-256 141.386719 0 256 114.617188 256 256zm0 0" fill="#6877ba"/><g fill="#8998d9"><path d="m511.472656 272.253906h-25.003906c-10.035156 0-18.167969 8.132813-18.167969 18.167969 0 10.03125-8.132812 18.167969-18.167969 18.167969h-57.800781c-10.03125 0-18.167969 8.132812-18.167969 18.164062 0 10.035156 8.132813 18.167969 18.167969 18.167969h103.792969c8.46875-22.863281 13.753906-47.261719 15.347656-72.667969zm0 0"/><path d="m156.746094 250.679688h-156.6796878c-.0351562 1.769531-.0664062 3.542968-.0664062 5.320312 0 23.308594 3.132812 45.882812 8.972656 67.34375h39.785156c10.035157 0 18.167969-8.132812 18.167969-18.164062 0-10.035157 8.132813-18.167969 18.167969-18.167969h71.652344c10.03125 0 18.167968-8.132813 18.167968-18.167969-.003906-10.03125-8.136718-18.164062-18.167968-18.164062zm0 0"/><path d="m177.667969 175.398438c0-10.03125 8.132812-18.167969 18.167969-18.167969h189.664062c10.03125 0 18.167969 8.136719 18.167969 18.167969 0 10.035156 8.132812 18.167968 18.167969 18.167968h45c10.03125 0 18.164062 8.132813 18.164062 18.167969 0 10.03125-8.132812 18.164063-18.164062 18.164063h-12.824219c-10.035157 0-18.167969 8.136718-18.167969 18.167968 0 10.035156-8.132812 18.167969-18.167969 18.167969h-180.074219c-10.03125 0-18.164062-8.132813-18.164062-18.167969 0-10.03125 8.132812-18.167968 18.164062-18.167968h12.824219c10.035157 0 18.167969-8.132813 18.167969-18.164063 0-10.035156-8.132812-18.167969-18.167969-18.167969h-54.59375c-10.03125 0-18.164062-8.132812-18.164062-18.167968zm0 0"/><path d="m301.96875 152.261719h-27.800781c-10.035157 0-18.167969-8.132813-18.167969-18.164063 0-10.035156-8.132812-18.167968-18.167969-18.167968h-196.125c-7.535156 11.5-14.167969 23.644531-19.800781 36.332031h24.0625c10.03125 0 18.167969 8.132812 18.167969 18.167969 0 10.03125 8.132812 18.167968 18.164062 18.167968h219.667969c10.035156 0 18.167969-8.132812 18.167969-18.167968 0-10.035157-8.136719-18.167969-18.167969-18.167969zm0 0"/></g><path d="m373.789062 361.972656h-235.578124c-36.535157 0-68.273438 22.261719-81.675782 54.480469 46.925782 58.257813 118.835938 95.546875 199.464844 95.546875 80.632812 0 152.542969-37.289062 199.464844-95.546875-13.40625-32.21875-45.140625-54.480469-81.675782-54.480469zm0 0" fill="#3e4852"/><path d="m373.789062 361.972656h-64.492187v-122.992187h-106.59375v122.992187h-26.816406s127.632812 67.226563 276.683593 48.222656c-14.730468-28.808593-44.664062-48.222656-78.78125-48.222656zm0 0" fill="#4adbf0"/><path d="m375.863281 91.613281c2.492188-6.195312 3.875-12.949219 3.875-20.035156 0-29.671875-24.050781-53.722656-53.722656-53.722656-5.363281 0-10.542969.796875-15.433594 2.261719-8.09375-12.125-21.898437-20.117188-37.574219-20.117188-24.9375 0-45.152343 20.214844-45.152343 45.152344s20.214843 45.152344 45.152343 45.152344c.878907 0 1.75-.03125 2.617188-.078126 4.671875 12.621094 13.957031 22.996094 25.800781 29.109376-.285156 2.042968-.441406 4.128906-.441406 6.25 0 24.933593 20.214844 45.152343 45.152344 45.152343s45.152343-20.21875 45.152343-45.152343c0-13.550782-5.976562-25.695313-15.425781-33.972657zm0 0" fill="#fd6e99"/><path d="m436.578125 189.980469c0 25.011719-20.277344 45.289062-45.289063 45.289062-25.011718 0-45.289062-20.277343-45.289062-45.289062 0-25.015625 20.277344-45.292969 45.289062-45.292969 25.011719 0 45.289063 20.277344 45.289063 45.292969zm0 0" fill="#92ebf1"/><path d="m166 189.980469c0 25.011719-20.277344 45.289062-45.289062 45.289062-25.011719 0-45.289063-20.277343-45.289063-45.289062 0-25.015625 20.277344-45.292969 45.289063-45.292969 25.011718 0 45.289062 20.277344 45.289062 45.292969zm0 0" fill="#4adbf0"/><path d="m391.289062 125.585938c0-4.9375-.800781-9.6875-2.269531-14.132813l-31.347656-15.859375c-3.019531-1.53125-6.402344-2.335938-9.789063-2.335938-1.789062 0-3.578124.222657-5.316406.664063l-28.375 7.183594-4.167968-32.910157c-1.152344-9.09375-7.945313-16.511718-16.902344-18.453124l-22.121094-4.804688v-38.261719c0-2.285156-.359375-4.492187-1.015625-6.5625-23.527344 1.554688-42.128906 21.117188-42.128906 45.039063 0 24.9375 20.214843 45.152344 45.152343 45.152344.878907 0 1.75-.03125 2.617188-.078126 4.671875 12.621094 13.957031 22.996094 25.800781 29.109376-.285156 2.042968-.441406 4.125-.441406 6.25 0 24.933593 20.214844 45.152343 45.152344 45.152343s45.152343-20.21875 45.152343-45.152343zm0 0" fill="#f94978"/><path d="m346.246094 108.460938-37.496094 9.492187c-3.886719.984375-7.753906-1.65625-8.261719-5.628906l-5.347656-42.246094c-.355469-2.804687-2.441406-5.082031-5.203125-5.683594l-28.679688-6.226562c-3.070312-.664063-5.257812-3.378907-5.257812-6.519531v-44.972657c0-3.785156-3.148438-6.855469-6.925781-6.6679685-71.5 3.6054685-128.363281 62.7187495-128.363281 135.1171875v76.914062c0 74.71875 60.570312 135.289063 135.289062 135.289063s135.289062-60.570313 135.289062-135.289063l-.125-78.597656c-.003906-2.511718-1.417968-4.808594-3.660156-5.945312l-36.605468-18.519532c-1.4375-.726562-3.089844-.910156-4.652344-.515624zm0 0" fill="#bff8ff"/><path d="m150.710938 212.039062v-76.914062c0-64.101562 44.578124-117.777344 104.421874-131.746094-1.1875-2.105468-3.476562-3.5-6.058593-3.3710935-71.5 3.6054685-128.363281 62.7187495-128.363281 135.1171875v76.914062c0 74.71875 60.570312 135.289063 135.289062 135.289063 5.070312 0 10.074219-.289063 15-.832031-67.65625-7.464844-120.289062-64.8125-120.289062-134.457032zm0 0" fill="#92ebf1"/><path d="m273.007812 231.304688v57.039062c0 5.945312 4.820313 10.769531 10.769532 10.769531 5.949218 0 10.769531 4.820313 10.769531 10.769531v1.625c0 5.949219 4.824219 10.769532 10.769531 10.769532 5.949219 0 10.769532-4.820313 10.769532-10.769532v-80.203124zm0 0" fill="#4adbf0"/><path d="m256 287.90625c31.660156 0 57.617188-24.414062 60.074219-55.445312.207031-2.609376-1.921875-4.820313-4.539063-4.820313h-111.070312c-2.621094 0-4.746094 2.210937-4.539063 4.820313 2.457031 31.03125 28.414063 55.445312 60.074219 55.445312zm0 0" fill="#3e4852"/><path d="m295.207031 273.398438c-10.316406-9.496094-24.082031-15.300782-39.207031-15.300782s-28.894531 5.804688-39.207031 15.300782c10.539062 9.039062 24.234375 14.507812 39.207031 14.507812 14.972656-.003906 28.667969-5.46875 39.207031-14.507812zm0 0" fill="#fd6e99"/></svg>