<svg height="512pt" viewBox="0 0 512 512" width="512pt" xmlns="http://www.w3.org/2000/svg"><path d="m512 256c0 141.386719-114.613281 256-256 256s-256-114.613281-256-256 114.613281-256 256-256 256 114.613281 256 256zm0 0" fill="#6877ba"/><g fill="#8998d9"><path d="m511.472656 272.253906h-25.003906c-10.035156 0-18.167969 8.132813-18.167969 18.167969 0 10.03125-8.136719 18.167969-18.167969 18.167969h-57.800781c-10.03125 0-18.167969 8.132812-18.167969 18.164062 0 10.035156 8.132813 18.167969 18.167969 18.167969h103.792969c8.46875-22.863281 13.753906-47.261719 15.347656-72.667969zm0 0"/><path d="m156.742188 250.679688h-156.6757818c-.0351562 1.769531-.0664062 3.542968-.0664062 5.320312 0 23.308594 3.132812 45.882812 8.972656 67.34375h39.785156c10.035157 0 18.167969-8.132812 18.167969-18.164062 0-10.035157 8.132813-18.167969 18.167969-18.167969h71.652344c10.03125 0 18.164062-8.132813 18.164062-18.167969 0-10.03125-8.132812-18.164062-18.167968-18.164062zm0 0"/><path d="m177.667969 175.398438c0-10.03125 8.132812-18.167969 18.167969-18.167969h189.664062c10.03125 0 18.167969 8.132812 18.167969 18.167969 0 10.035156 8.132812 18.167968 18.167969 18.167968h45c10.03125 0 18.164062 8.132813 18.164062 18.167969 0 10.03125-8.132812 18.164063-18.164062 18.164063h-12.824219c-10.035157 0-18.167969 8.132812-18.167969 18.167968s-8.132812 18.167969-18.167969 18.167969h-180.074219c-10.03125 0-18.164062-8.132813-18.164062-18.167969 0-10.03125 8.132812-18.167968 18.164062-18.167968h12.824219c10.035157 0 18.167969-8.132813 18.167969-18.164063 0-10.035156-8.132812-18.167969-18.167969-18.167969h-54.59375c-10.03125 0-18.164062-8.132812-18.164062-18.167968zm0 0"/><path d="m301.96875 152.261719h-27.800781c-10.035157 0-18.167969-8.132813-18.167969-18.164063 0-10.035156-8.132812-18.167968-18.167969-18.167968h-196.125c-7.535156 11.5-14.167969 23.644531-19.800781 36.332031h24.0625c10.03125 0 18.167969 8.132812 18.167969 18.167969 0 10.03125 8.132812 18.167968 18.164062 18.167968h219.667969c10.035156 0 18.167969-8.132812 18.167969-18.167968 0-10.035157-8.136719-18.167969-18.167969-18.167969zm0 0"/></g><path d="m256 512c68.714844 0 131.101562-27.078125 177.085938-71.140625-8.0625-34.230469-38.738282-59.167969-74.78125-59.167969h-204.609376c-36.042968 0-66.71875 24.9375-74.78125 59.167969 45.984376 44.0625 108.371094 71.140625 177.085938 71.140625zm0 0" fill="#3e4852"/><path d="m302.289062 381.691406v-106.820312h-92.578124v106.820312h-21.046876c0 37.1875 30.148438 67.335938 67.335938 67.335938s67.332031-30.148438 67.332031-67.335938zm0 0" fill="#42c8b0"/><path d="m95.71875 114.757812h320.5625v49.878907h-320.5625zm0 0" fill="#c1ccd0"/><path d="m412.84375 232.308594c0 21.726562-17.613281 39.335937-39.339844 39.335937-21.722656 0-39.335937-17.609375-39.335937-39.335937 0-21.726563 17.613281-39.335938 39.335937-39.335938 21.726563 0 39.339844 17.609375 39.339844 39.335938zm0 0" fill="#63e7ae"/><path d="m177.832031 232.308594c0 21.726562-17.613281 39.335937-39.335937 39.335937-21.726563 0-39.339844-17.609375-39.339844-39.335937 0-21.726563 17.613281-39.335938 39.339844-39.335938 21.722656 0 39.335937 17.609375 39.335937 39.335938zm0 0" fill="#42c8b0"/><path d="m256 368.972656c-64.894531 0-117.503906-52.609375-117.503906-117.503906v-66.804688c0-64.894531 52.609375-117.503906 117.503906-117.503906s117.503906 52.609375 117.503906 117.503906v66.804688c0 64.894531-52.609375 117.503906-117.503906 117.503906zm0 0" fill="#7ef8c5"/><path d="m168.496094 251.46875v-145.222656c-18.652344 20.800781-30 48.28125-30 78.417968v66.804688c0 64.894531 52.609375 117.503906 117.503906 117.503906 5.082031 0 10.089844-.324218 15-.949218-57.8125-7.367188-102.503906-56.742188-102.503906-116.554688zm0 0" fill="#63e7ae"/><path d="m256 306.976562c27.496094 0 50.042969-21.207031 52.179688-48.15625.179687-2.265624-1.667969-4.1875-3.945313-4.1875h-96.46875c-2.273437 0-4.121094 1.921876-3.941406 4.1875 2.132812 26.949219 24.679687 48.15625 52.175781 48.15625zm0 0" fill="#3e4852"/><path d="m290.054688 294.375c-8.960938-8.246094-20.917969-13.289062-34.054688-13.289062s-25.09375 5.042968-34.054688 13.289062c9.15625 7.851562 21.046876 12.601562 34.054688 12.601562s24.898438-4.75 34.054688-12.601562zm0 0" fill="#fd6e99"/><path d="m428.65625 172.398438h-24.75c-2.804688 0-5.078125-2.273438-5.078125-5.078126v-55.246093c0-2.804688 2.273437-5.078125 5.078125-5.078125h24.75c2.804688 0 5.078125 2.273437 5.078125 5.078125v55.246093c0 2.804688-2.273437 5.078126-5.078125 5.078126zm0 0" fill="#fbfcf7"/><path d="m108.09375 172.398438h-24.75c-2.804688 0-5.078125-2.273438-5.078125-5.078126v-55.246093c0-2.804688 2.273437-5.078125 5.078125-5.078125h24.75c2.804688 0 5.078125 2.273437 5.078125 5.078125v55.246093c0 2.804688-2.273437 5.078126-5.078125 5.078126zm0 0" fill="#fbfcf7"/><path d="m95.71875 167.320312v-55.246093c0-2.804688 2.273438-5.078125 5.078125-5.078125h-17.453125c-2.804688 0-5.078125 2.273437-5.078125 5.078125v55.246093c0 2.804688 2.273437 5.078126 5.078125 5.078126h17.453125c-2.804687 0-5.078125-2.273438-5.078125-5.078126zm0 0" fill="#e2e6e7"/><path d="m416.28125 167.320312v-55.246093c0-2.804688 2.273438-5.078125 5.078125-5.078125h-17.453125c-2.804688 0-5.078125 2.273437-5.078125 5.078125v55.246093c0 2.804688 2.273437 5.078126 5.078125 5.078126h17.453125c-2.804687 0-5.078125-2.273438-5.078125-5.078126zm0 0" fill="#e2e6e7"/><path d="m373.511719 218.066406v-25.097656c5.53125 0 10.796875 1.148438 15.570312 3.210938v-173.191407c0-12.695312-10.292969-22.988281-22.988281-22.988281h-220.1875c-12.695312 0-22.992188 10.292969-22.992188 22.988281v173.191407c4.777344-2.0625 10.042969-3.210938 15.574219-3.210938v25.097656h.015625c12.695313 0 22.988282-10.292968 22.988282-22.992187v-57.238281c0-12.699219 10.292968-22.992188 22.988281-22.992188h143.042969c12.699218 0 22.992187 10.292969 22.992187 22.992188v57.238281c0 12.699219 10.292969 22.992187 22.988281 22.992187zm0 0" fill="#3e4852"/><path d="m161.480469 22.988281c0-12.695312 10.292969-22.988281 22.988281-22.988281h-38.5625c-12.695312 0-22.988281 10.292969-22.988281 22.988281v173.191407c4.773437-2.0625 10.039062-3.210938 15.570312-3.210938v25.097656h.015625c12.515625 0 22.683594-10 22.976563-22.445312zm0 0" fill="#2e3b43"/></svg>