<svg height="512pt" viewBox="0 0 512 512" width="512pt" xmlns="http://www.w3.org/2000/svg"><path d="m512 256c0 141.386719-114.613281 256-256 256s-256-114.613281-256-256 114.613281-256 256-256 256 114.613281 256 256zm0 0" fill="#f74b4b"/><g fill="#fc7070"><path d="m511.472656 272.253906h-25.003906c-10.035156 0-18.167969 8.132813-18.167969 18.167969 0 10.03125-8.136719 18.167969-18.167969 18.167969h-57.800781c-10.03125 0-18.167969 8.132812-18.167969 18.164062 0 10.035156 8.132813 18.167969 18.167969 18.167969h103.792969c8.46875-22.863281 13.753906-47.261719 15.347656-72.667969zm0 0"/><path d="m156.742188 250.679688h-156.6757818c-.0351562 1.769531-.0664062 3.542968-.0664062 5.320312 0 23.308594 3.132812 45.882812 8.972656 67.34375h39.785156c10.035157 0 18.167969-8.132812 18.167969-18.164062 0-10.035157 8.132813-18.167969 18.167969-18.167969h71.652344c10.03125 0 18.164062-8.132813 18.164062-18.167969 0-10.03125-8.132812-18.164062-18.167968-18.164062zm0 0"/><path d="m177.667969 175.398438c0-10.03125 8.132812-18.167969 18.167969-18.167969h189.664062c10.03125 0 18.167969 8.132812 18.167969 18.167969 0 10.035156 8.132812 18.167968 18.167969 18.167968h45c10.03125 0 18.164062 8.132813 18.164062 18.167969 0 10.03125-8.132812 18.164063-18.164062 18.164063h-12.824219c-10.035157 0-18.167969 8.132812-18.167969 18.167968s-8.132812 18.167969-18.167969 18.167969h-180.074219c-10.03125 0-18.164062-8.132813-18.164062-18.167969 0-10.03125 8.132812-18.167968 18.164062-18.167968h12.824219c10.035157 0 18.167969-8.132813 18.167969-18.164063 0-10.035156-8.132812-18.167969-18.167969-18.167969h-54.59375c-10.03125 0-18.164062-8.132812-18.164062-18.167968zm0 0"/><path d="m301.96875 152.261719h-27.800781c-10.035157 0-18.167969-8.132813-18.167969-18.164063 0-10.035156-8.132812-18.167968-18.167969-18.167968h-196.125c-7.535156 11.5-14.167969 23.644531-19.800781 36.332031h24.0625c10.03125 0 18.167969 8.132812 18.167969 18.167969 0 10.03125 8.132812 18.167968 18.164062 18.167968h219.667969c10.035156 0 18.167969-8.132812 18.167969-18.167968 0-10.035157-8.136719-18.167969-18.167969-18.167969zm0 0"/></g><path d="m202.703125 238.980469h106.59375v172.519531h-106.59375zm0 0" fill="#e2e6e7"/><path d="m256 .113281c73.492188 0 133.070312 59.574219 133.070312 133.070313v75.535156c0 73.492188-59.578124 133.070312-133.070312 133.070312s-133.070312-59.574218-133.070312-133.070312v-75.535156c0-73.496094 59.578124-133.070313 133.070312-133.070313zm0 0" fill="#fbfcf7"/><path d="m152.929688 208.71875v-75.539062c0-68.417969 51.640624-124.769532 118.070312-132.222657-4.925781-.550781-9.929688-.84375-15-.84375-73.492188 0-133.070312 59.574219-133.070312 133.070313v75.539062c0 73.492188 59.578124 133.066406 133.070312 133.066406 5.070312 0 10.074219-.292968 15-.84375-66.429688-7.457031-118.070312-63.804687-118.070312-132.226562zm0 0" fill="#e2e6e7"/><path d="m145.269531 282.53125c23.859375 35.726562 64.542969 59.257812 110.730469 59.257812 35.191406 0 67.183594-13.664062 90.980469-35.972656zm0 0" fill="#c1ccd0"/><path d="m373.789062 361.972656h-235.578124c-36.535157 0-68.273438 22.261719-81.675782 54.476563 46.925782 58.261719 118.832032 95.550781 199.464844 95.550781s152.539062-37.289062 199.464844-95.546875c-13.40625-32.21875-45.140625-54.480469-81.675782-54.480469zm0 0" fill="#fbfcf7"/><path d="m389.070312 204.371094v-22.703125l-266.140624-29.5v41.621093zm0 0" fill="#c1ccd0"/><path d="m388.261719 118.351562-265.332031 17.207032v-2.480469c0-22.976563 5.820312-44.589844 16.070312-63.449219l238.429688 8.929688c5.558593 12.382812 9.289062 25.75 10.832031 39.792968zm0 0" fill="#e2e6e7"/><path d="m389.070312 204.371094v4.359375c0 14.769531-2.398437 28.96875-6.851562 42.238281l-236.957031 31.5625c-14.113281-21.121094-22.332031-46.492188-22.332031-73.800781v-14.941407zm0 0" fill="#e2e6e7"/><path d="m256 287.902344c31.660156 0 57.617188-24.414063 60.074219-55.441406.207031-2.609376-1.921875-4.820313-4.539063-4.820313h-111.070312c-2.621094 0-4.746094 2.210937-4.539063 4.820313 2.457031 31.027343 28.414063 55.441406 60.074219 55.441406zm0 0" fill="#3e4852"/><path d="m295.207031 273.398438c-10.316406-9.496094-24.082031-15.300782-39.207031-15.300782s-28.894531 5.804688-39.207031 15.300782c10.539062 9.039062 24.234375 14.503906 39.207031 14.503906s28.667969-5.464844 39.207031-14.503906zm0 0" fill="#fd6e99"/><path d="m350.089844 38.980469c-4.003906-4.007813-8.273438-7.75-12.761719-11.222657l-198.328125 41.871094 238.429688 8.929688c-6.667969-14.839844-15.980469-28.230469-27.339844-39.578125zm0 0" fill="#c1ccd0"/><path d="m202.703125 347.835938 106.59375 14.136718h-106.59375zm0 0" fill="#c1ccd0"/><path d="m75.308594 388.273438 363.859375 46.511718c5.710937-5.851562 11.160156-11.957031 16.296875-18.332031-13.40625-32.21875-45.140625-54.480469-81.675782-54.480469h-235.578124c-24.484376 0-46.804688 10.007813-62.902344 26.300782zm0 0" fill="#e2e6e7"/><path d="m75.308594 388.273438c-7.925782 8.015624-14.351563 17.550781-18.773438 28.179687 5.53125 6.863281 11.417969 13.429687 17.617188 19.683594l272.828125-13.132813zm0 0" fill="#c1ccd0"/><path d="m145.359375 486.890625c33.488281 16.082031 71.003906 25.109375 110.640625 25.109375 57.414062 0 110.398438-18.917969 153.097656-50.84375zm0 0" fill="#e2e6e7"/><path d="m177.875 286.296875-32.605469-3.765625c23.859375 35.726562 64.542969 59.257812 110.730469 59.257812 5.074219 0 10.078125-.292968 15.003906-.84375-38.324218-4.300781-71.722656-24.871093-93.128906-54.648437zm0 0" fill="#aabbbf"/><path d="m152.929688 208.71875v-13.738281l-30-1.191407v14.941407c0 27.308593 8.21875 52.679687 22.332031 73.796875l27.636719-3.679688c-12.652344-20.363281-19.96875-44.386718-19.96875-70.128906zm0 0" fill="#c1ccd0"/><path d="m152.929688 155.492188-30-3.324219v41.621093l30 1.195313zm0 0" fill="#aabbbf"/><path d="m152.929688 133.183594c0-22.574219 5.628906-43.828125 15.542968-62.449219l-29.472656-1.105469c-10.25 18.859375-16.070312 40.472656-16.070312 63.449219v2.480469l30-1.945313zm0 0" fill="#c1ccd0"/><path d="m173.316406 62.386719-34.316406 7.242187 29.472656 1.105469c1.515625-2.847656 3.132813-5.628906 4.84375-8.347656zm0 0" fill="#aabbbf"/></svg>