<svg height="512pt" viewBox="0 0 512 512" width="512pt" xmlns="http://www.w3.org/2000/svg"><path d="m512 256c0 141.386719-114.613281 256-256 256s-256-114.613281-256-256 114.613281-256 256-256 256 114.613281 256 256zm0 0" fill="#63e7ae"/><g fill="#7ef8c5"><path d="m510.667969 282.253906h-24.203125c-10.03125 0-18.164063 8.132813-18.164063 18.167969 0 10.03125-8.136719 18.167969-18.167969 18.167969h-17.800781c-10.035156 0-18.167969 8.132812-18.167969 18.164062 0 10.035156 8.132813 18.167969 18.167969 18.167969h59.847657c9.535156-22.742187 15.890624-47.148437 18.488281-72.667969zm0 0"/><path d="m156.742188 250.679688h-156.6757818c-.0351562 1.769531-.0664062 3.542968-.0664062 5.320312 0 23.308594 3.132812 45.882812 8.972656 67.34375h39.785156c10.035157 0 18.167969-8.132812 18.167969-18.164062 0-10.035157 8.132813-18.167969 18.167969-18.167969h71.652344c10.03125 0 18.164062-8.132813 18.164062-18.167969 0-10.03125-8.132812-18.164062-18.167968-18.164062zm0 0"/><path d="m298.136719 236.347656c0-10.035156 8.132812-18.167968 18.167969-18.167968h149.667968c10.03125 0 18.167969 8.132812 18.167969 18.167968 0 10.03125-8.136719 18.167969-18.167969 18.167969h-27.800781c-10.035156 0-18.167969 8.132813-18.167969 18.164063 0 10.035156-8.132812 18.167968-18.167968 18.167968h-149.664063c-10.035156 0-18.167969-8.132812-18.167969-18.167968 0-10.03125 8.132813-18.164063 18.167969-18.164063h27.800781c10.03125-.003906 18.164063-8.136719 18.164063-18.167969zm0 0"/></g><path d="m449.96875 423.066406c-12.085938-32.917968-43.660156-55.972656-80.203125-55.972656h-227.53125c-36.542969 0-68.117187 23.054688-80.199219 55.972656 46.945313 54.457032 116.425782 88.933594 193.964844 88.933594s147.019531-34.476562 193.96875-88.933594zm0 0" fill="#3e4852"/><path d="m166 495.699219c28 10.523437 58.320312 16.300781 90 16.300781s62-5.777344 90-16.300781v-128.605469h-180zm0 0" fill="#fbfcf7"/><path d="m430.414062 200.976562c0 24.15625-19.585937 43.742188-43.746093 43.742188-24.15625 0-43.742188-19.585938-43.742188-43.742188 0-24.160156 19.585938-43.746093 43.742188-43.746093 24.160156 0 43.746093 19.585937 43.746093 43.746093zm0 0" fill="#e9ccae"/><path d="m169.074219 200.976562c0 24.15625-19.585938 43.742188-43.742188 43.742188-24.160156 0-43.746093-19.585938-43.746093-43.742188 0-24.160156 19.585937-43.746093 43.746093-43.746093 24.15625 0 43.742188 19.585937 43.742188 43.746093zm0 0" fill="#ddc1a5"/><path d="m386.667969 147.992188v74.289062c0 72.167969-58.503907 130.667969-130.667969 130.667969-72.167969 0-130.667969-58.503907-130.667969-130.667969v-74.289062zm0 0" fill="#f5d7b7"/><path d="m374.601562 173.617188c4.359376 33.804687 3.96875 67.558593-14.980468 67.558593-37.960938 0-15.464844-28.300781-103.621094-28.300781s-65.660156 28.300781-103.621094 28.300781c-18.949218 0-19.339844-33.753906-14.980468-67.558593h-28.242188c-.441406 10.628906-.734375 21.113281-.734375 30.273437 0 114.753906 27.46875 213.21875 38.582031 213.21875 11.109375 0 16.789063-30.410156 16.789063-30.410156s15.34375 60.1875 31.238281 60.1875 21.574219-29.777344 21.574219-29.777344 16.886719 54.085937 39.394531 54.085937 39.390625-54.085937 39.390625-54.085937 5.679687 29.777344 21.574219 29.777344c15.894531 0 31.242187-60.1875 31.242187-60.1875s5.679688 30.410156 16.789063 30.410156 38.578125-98.464844 38.578125-213.21875c0-9.160156-.289063-19.644531-.734375-30.273437zm0 0" fill="#ffb82c"/><path d="m140.972656 234.667969c-7.40625-11.414063-6.777344-36.207031-3.574218-61.050781h-28.242188c-.441406 10.628906-.734375 21.113281-.734375 30.273437 0 114.753906 27.46875 213.21875 38.582031 213.21875 10.992188 0 16.664063-29.757813 16.78125-30.378906-9.820312-32.632813-20.164062-88.453125-22.8125-152.0625zm0 0" fill="#f08d0b"/><path d="m256 295.554688c30.578125 0 55.648438-23.578126 58.023438-53.546876.199218-2.523437-1.855469-4.660156-4.386719-4.660156h-107.273438c-2.53125 0-4.585937 2.136719-4.386719 4.660156 2.375 29.96875 27.445313 53.546876 58.023438 53.546876zm0 0" fill="#212d33"/><path d="m293.867188 281.542969c-9.960938-9.171875-23.257813-14.777344-37.867188-14.777344s-27.90625 5.605469-37.867188 14.777344c10.179688 8.730469 23.402344 14.011719 37.867188 14.011719s27.6875-5.277344 37.867188-14.011719zm0 0" fill="#fd6e99"/><path d="m423.8125 181.671875h-335.625c-3.996094 0-7.238281-3.238281-7.238281-7.238281v-28.6875c0-3.996094 3.242187-7.238282 7.238281-7.238282h335.625c3.996094 0 7.238281 3.242188 7.238281 7.238282v28.6875c0 4-3.242187 7.238281-7.238281 7.238281zm0 0" fill="#f74b4b"/><path d="m110.949219 174.433594v-28.6875c0-3.996094 3.242187-7.238282 7.238281-7.238282h-30c-3.996094 0-7.238281 3.242188-7.238281 7.238282v28.6875c0 3.996094 3.242187 7.238281 7.238281 7.238281h30c-3.996094 0-7.238281-3.238281-7.238281-7.238281zm0 0" fill="#d14242"/><path d="m256 0c-117.398438 0-130.566406 88.355469-201.414062 93.089844-2.957032.199218-4.90625 3.167968-3.886719 5.949218l18.320312 50.046876c.640625 1.75 2.304688 2.914062 4.167969 2.914062h365.625c1.863281 0 3.527344-1.164062 4.167969-2.914062l18.320312-50.046876c1.015625-2.78125-.929687-5.75-3.886719-5.945312-70.84375-4.738281-84.015624-93.09375-201.414062-93.09375zm0 0" fill="#3e4852"/><path d="m119.445312 149.085938-6.175781-16.875c-6.617187-18.074219 1.917969-38.1875 19.519531-45.976563 44.714844-19.789063 68.800782-75.007813 148.4375-84.75-7.84375-.960937-16.226562-1.484375-25.226562-1.484375-117.398438 0-130.566406 88.355469-201.414062 93.089844-2.957032.199218-4.90625 3.167968-3.886719 5.949218l18.320312 50.046876c.640625 1.75 2.304688 2.914062 4.167969 2.914062h50.425781c-1.863281 0-3.527343-1.164062-4.167969-2.914062zm0 0" fill="#2e3b43"/><path d="m314.03125 77.289062c0-32.046874-25.980469-58.027343-58.027344-58.027343-32.160156-.003907-58.496094 26.734375-58.027344 58.890625.171876 11.730468 3.824219 22.617187 9.96875 31.671875.960938 1.417969 2.546876 2.285156 4.261719 2.285156h14.441407c2.820312 0 5.105468 2.285156 5.105468 5.105469v15.542968c0 2.816407 2.285156 5.105469 5.105469 5.105469h38.285156c2.816407 0 5.101563-2.289062 5.101563-5.105469v-15.542968c0-2.820313 2.285156-5.105469 5.105468-5.105469h14.441407c1.710937 0 3.300781-.863281 4.261719-2.277344 6.296874-9.28125 9.976562-20.480469 9.976562-32.542969zm0 0" fill="#fbfcf7"/><path d="m261.753906 132.757812v-15.542968c0-2.820313-2.285156-5.105469-5.105468-5.105469h-14.441407c-1.714843 0-3.300781-.867187-4.265625-2.285156-6.144531-9.058594-9.796875-19.941407-9.964844-31.671875-.394531-26.996094 18.105469-50.167969 43.082032-56.910156-4.800782-1.285157-9.847656-1.984376-15.054688-1.984376-32.164062 0-58.496094 26.734376-58.027344 58.894532.167969 11.730468 3.824219 22.613281 9.964844 31.671875.964844 1.417969 2.550782 2.285156 4.265625 2.285156h14.441407c2.820312 0 5.105468 2.285156 5.105468 5.105469v15.542968c0 2.816407 2.285156 5.101563 5.105469 5.101563h30c-2.820313 0-5.105469-2.285156-5.105469-5.101563zm0 0" fill="#e2e6e7"/><path d="m247.820312 80.296875c0 8.871094-7.191406 16.0625-16.0625 16.0625-8.871093 0-16.0625-7.191406-16.0625-16.0625s7.191407-16.0625 16.0625-16.0625c8.871094 0 16.0625 7.191406 16.0625 16.0625zm0 0" fill="#5a606c"/><path d="m296.316406 80.296875c0 8.871094-7.191406 16.0625-16.058594 16.0625-8.871093 0-16.0625-7.191406-16.0625-16.0625s7.191407-16.0625 16.0625-16.0625c8.867188 0 16.058594 7.191406 16.058594 16.0625zm0 0" fill="#5a606c"/></svg>