<svg height="512pt" viewBox="0 0 512.001 512" width="512pt" xmlns="http://www.w3.org/2000/svg"><path d="m512 256c0 141.386719-114.613281 256-256 256s-256-114.613281-256-256c0-141.382812 114.613281-256 256-256s256 114.617188 256 256zm0 0" fill="#92ebf1"/><g fill="#bff8ff"><path d="m510.667969 282.253906h-24.203125c-10.03125 0-18.164063 8.132813-18.164063 18.167969 0 10.03125-8.136719 18.167969-18.167969 18.167969h-17.800781c-10.035156 0-18.167969 8.132812-18.167969 18.164062 0 10.035156 8.132813 18.167969 18.167969 18.167969h59.847657c9.535156-22.742187 15.890624-47.148437 18.488281-72.667969zm0 0"/><path d="m156.742188 250.679688h-156.6757818c-.0351562 1.769531-.0664062 3.542968-.0664062 5.320312 0 23.308594 3.132812 45.882812 8.972656 67.34375h39.785156c10.035157 0 18.167969-8.132812 18.167969-18.164062 0-10.035157 8.132813-18.167969 18.167969-18.167969h71.652344c10.03125 0 18.164062-8.132813 18.164062-18.167969 0-10.03125-8.132812-18.164062-18.167968-18.164062zm0 0"/><path d="m298.136719 236.347656c0-10.03125 8.132812-18.167968 18.167969-18.167968h149.667968c10.03125 0 18.167969 8.132812 18.167969 18.167968 0 10.03125-8.136719 18.167969-18.167969 18.167969h-27.800781c-10.035156 0-18.167969 8.132813-18.167969 18.164063 0 10.035156-8.132812 18.167968-18.167968 18.167968h-149.664063c-10.035156 0-18.167969-8.132812-18.167969-18.167968 0-10.03125 8.132813-18.164063 18.167969-18.164063h27.800781c10.03125-.003906 18.164063-8.136719 18.164063-18.167969zm0 0"/></g><path d="m449.96875 423.070312c-12.085938-32.917968-43.660156-55.976562-80.203125-55.976562h-227.53125c-36.542969 0-68.117187 23.058594-80.199219 55.976562 46.945313 54.453126 116.425782 88.929688 193.964844 88.929688s147.019531-34.476562 193.96875-88.929688zm0 0" fill="#3e4852"/><path d="m430.414062 200.976562c0 24.15625-19.585937 43.742188-43.746093 43.742188-24.15625 0-43.742188-19.585938-43.742188-43.742188 0-24.160156 19.585938-43.746093 43.742188-43.746093 24.160156 0 43.746093 19.585937 43.746093 43.746093zm0 0" fill="#e9ccae"/><path d="m169.074219 200.976562c0 24.15625-19.585938 43.742188-43.742188 43.742188-24.160156 0-43.746093-19.585938-43.746093-43.742188 0-24.160156 19.585937-43.746093 43.746093-43.746093 24.15625 0 43.742188 19.585937 43.742188 43.746093zm0 0" fill="#ddc1a5"/><path d="m386.667969 147.992188v74.289062c0 72.167969-58.503907 130.667969-130.667969 130.667969-72.167969 0-130.667969-58.5-130.667969-130.667969v-74.289062zm0 0" fill="#f5d7b7"/><path d="m374.601562 173.617188c4.359376 33.804687 3.96875 67.558593-14.980468 67.558593-37.960938 0-15.464844-28.300781-103.621094-28.300781s-65.660156 28.300781-103.621094 28.300781c-18.949218 0-19.339844-33.753906-14.980468-67.558593h-28.242188c-.441406 10.628906-.734375 21.113281-.734375 30.273437 0 114.753906 27.46875 213.21875 38.582031 213.21875 11.109375 0 16.789063-30.410156 16.789063-30.410156s15.34375 60.1875 31.238281 60.1875 21.574219-29.777344 21.574219-29.777344 16.886719 54.085937 39.394531 54.085937 39.390625-54.085937 39.390625-54.085937 5.679687 29.777344 21.574219 29.777344c15.894531 0 31.242187-60.1875 31.242187-60.1875s5.679688 30.410156 16.789063 30.410156 38.578125-98.464844 38.578125-213.21875c0-9.160156-.289063-19.644531-.734375-30.273437zm0 0" fill="#fbfcf7"/><path d="m140.972656 234.667969c-7.40625-11.414063-6.777344-36.207031-3.574218-61.050781h-28.242188c-.441406 10.628906-.734375 21.113281-.734375 30.273437 0 114.753906 27.46875 213.21875 38.582031 213.21875 10.992188 0 16.664063-29.757813 16.78125-30.378906-9.820312-32.632813-20.164062-88.449219-22.8125-152.0625zm0 0" fill="#e2e6e7"/><path d="m256 295.554688c30.578125 0 55.648438-23.578126 58.023438-53.546876.199218-2.523437-1.855469-4.660156-4.386719-4.660156h-107.273438c-2.53125 0-4.585937 2.136719-4.386719 4.660156 2.375 29.96875 27.445313 53.546876 58.023438 53.546876zm0 0" fill="#212d33"/><path d="m293.867188 281.542969c-9.960938-9.171875-23.257813-14.777344-37.867188-14.777344s-27.90625 5.605469-37.867188 14.777344c10.179688 8.730469 23.402344 14.011719 37.867188 14.011719s27.6875-5.277344 37.867188-14.011719zm0 0" fill="#fd6e99"/><path d="m256 0c-50.332031 0-183.5 153.734375-183.5 153.734375h367s-133.167969-153.734375-183.5-153.734375zm0 0" fill="#3e4852"/><path d="m281 7.984375c-9.53125-5.046875-18.054688-7.984375-25-7.984375-50.332031 0-183.5 153.734375-183.5 153.734375h50s98.953125-114.230469 158.5-145.75zm0 0" fill="#2e3b43"/><path d="m512 175.5625c0 3.960938-3.707031 6.867188-7.554688 5.9375-17.808593-4.304688-160.183593-13.984375-248.445312-13.984375s-230.636719 9.679687-248.445312 13.980469c-3.847657.929687-7.554688-1.972656-7.554688-5.933594v-33.9375c0-3.375 2.734375-6.109375 6.109375-6.109375h499.78125c3.375 0 6.109375 2.734375 6.109375 6.109375zm0 0" fill="#5a606c"/><path d="m504.445312 166.5c-17.808593-4.304688-160.183593-13.984375-248.445312-13.984375s-230.636719 9.679687-248.445312 13.984375c-3.847657.925781-7.554688-1.976562-7.554688-5.9375v15c0 3.960938 3.707031 6.867188 7.554688 5.9375 17.808593-4.304688 160.183593-13.984375 248.445312-13.984375s230.636719 9.679687 248.445312 13.984375c3.847657.929688 7.554688-1.976562 7.554688-5.9375v-15c0 3.960938-3.707031 6.863281-7.554688 5.9375zm0 0" fill="#3e4852"/></svg>