<svg height="512pt" viewBox="0 0 512 512" width="512pt" xmlns="http://www.w3.org/2000/svg"><path d="m512 256c0 141.386719-114.613281 256-256 256s-256-114.613281-256-256 114.613281-256 256-256 256 114.613281 256 256zm0 0" fill="#3e4852"/><path d="m512 256c0 141.386719-114.613281 256-256 256s-256-114.613281-256-256 114.613281-256 256-256 256 114.613281 256 256zm0 0" fill="#3e4852"/><path d="m491.007812 287.902344c-1.992187-37.09375-101.9375-79.179688-101.9375-116.953125h-266.140624c0 37.769531-99.945313 79.859375-101.9375 116.953125-1.992188 37.097656 25.007812 119.097656 235.007812 119.097656s237-82 235.007812-119.097656zm0 0" fill="#e2e6e7"/><path d="m373.789062 361.972656h-235.578124c-36.535157 0-68.273438 22.261719-81.675782 54.476563 46.925782 58.261719 118.832032 95.550781 199.464844 95.550781s152.539062-37.289062 199.464844-95.546875c-13.40625-32.21875-45.140625-54.480469-81.675782-54.480469zm0 0" fill="#c1ccd0"/><path d="m256 170.949219h-133.070312c0 37.769531-99.945313 79.859375-101.9375 116.953125-1.992188 37.097656 25.007812 119.097656 235.007812 119.097656zm0 0" fill="#c1ccd0"/><path d="m489.769531 360.480469c-11.535156-59.460938-100.699219-132.703125-100.699219-189.53125v-37.765625c0-73.492188-59.578124-133.070313-133.070312-133.070313s-133.070312 59.574219-133.070312 133.070313v37.765625c0 56.828125-89.164063 130.070312-100.699219 189.53125 8.730469 19.5 19.828125 37.707031 32.925781 54.257812 19.1875 3.289063 44.691406 4.300781 71.84375 22.246094 28.757812 19.007813 34.839844 43.023437 47.894531 61.890625 25.488281 8.507812 52.757813 13.125 81.105469 13.125s55.617188-4.617188 81.105469-13.125c13.054687-18.867188 19.136719-42.882812 47.894531-61.890625 27.152344-17.945313 52.65625-18.957031 71.84375-22.242187 13.097656-16.554688 24.195312-34.761719 32.925781-54.261719zm0 0" fill="#fbfcf7"/><path d="m226 165.042969c0-21.410157-12.765625-38.765625-28.511719-38.765625-15.746093 0-28.511719 17.355468-28.511719 38.765625 0 21.410156 12.765626 38.765625 28.511719 38.765625 15.746094 0 28.511719-17.355469 28.511719-38.765625zm0 0" fill="#3e4852"/><path d="m256 287.902344c31.660156 0 57.617188-24.414063 60.074219-55.441406.207031-2.609376-1.921875-4.820313-4.539063-4.820313h-111.070312c-2.621094 0-4.746094 2.210937-4.539063 4.820313 2.457031 31.027343 28.414063 55.441406 60.074219 55.441406zm0 0" fill="#3e4852"/><path d="m295.207031 273.398438c-10.316406-9.496094-24.082031-15.300782-39.207031-15.300782s-28.894531 5.804688-39.207031 15.300782c10.539062 9.039062 24.234375 14.503906 39.207031 14.503906s28.667969-5.464844 39.207031-14.503906zm0 0" fill="#fd6e99"/><path d="m247.160156 336.019531c-54.542968-16.617187-94.230468-67.320312-94.230468-127.300781v-75.539062c0-68.417969 51.640624-124.769532 118.070312-132.222657-4.925781-.550781-9.929688-.84375-15-.84375-73.492188 0-133.070312 59.574219-133.070312 133.070313v37.765625c0 56.828125-89.164063 130.070312-100.699219 189.53125 8.730469 19.5 19.828125 37.707031 32.925781 54.257812 19.1875 3.289063 44.691406 4.300781 71.84375 22.246094 28.757812 19.007813 34.839844 43.023437 47.894531 61.890625 25.488281 8.507812 52.757813 13.125 81.105469 13.125v-163.984375c0-5.503906-3.574219-10.394531-8.839844-11.996094zm0 0" fill="#e2e6e7"/><path d="m344.597656 165.042969c0-21.410157-12.761718-38.765625-28.507812-38.765625s-28.511719 17.355468-28.511719 38.765625c0 21.410156 12.765625 38.765625 28.511719 38.765625s28.507812-17.355469 28.507812-38.765625zm0 0" fill="#3e4852"/></svg>