<svg height="512pt" viewBox="0 0 512 512" width="512pt" xmlns="http://www.w3.org/2000/svg"><path d="m512 256c0 141.386719-114.613281 256-256 256s-256-114.613281-256-256 114.613281-256 256-256 256 114.613281 256 256zm0 0" fill="#92ebf1"/><g fill="#bff8ff"><path d="m511.472656 272.253906h-25.003906c-10.035156 0-18.167969 8.132813-18.167969 18.167969 0 10.03125-8.136719 18.167969-18.167969 18.167969h-57.800781c-10.03125 0-18.167969 8.132812-18.167969 18.164062 0 10.035156 8.132813 18.167969 18.167969 18.167969h103.792969c8.46875-22.863281 13.753906-47.261719 15.347656-72.667969zm0 0"/><path d="m156.742188 250.679688h-156.6757818c-.0351562 1.769531-.0664062 3.542968-.0664062 5.320312 0 23.308594 3.132812 45.882812 8.972656 67.34375h39.785156c10.035157 0 18.167969-8.132812 18.167969-18.164062 0-10.035157 8.132813-18.167969 18.167969-18.167969h71.652344c10.03125 0 18.164062-8.132813 18.164062-18.167969 0-10.03125-8.132812-18.164062-18.167968-18.164062zm0 0"/><path d="m177.667969 175.398438c0-10.03125 8.132812-18.167969 18.167969-18.167969h189.664062c10.03125 0 18.167969 8.132812 18.167969 18.167969 0 10.035156 8.132812 18.167968 18.167969 18.167968h45c10.03125 0 18.164062 8.132813 18.164062 18.167969 0 10.03125-8.132812 18.164063-18.164062 18.164063h-12.824219c-10.035157 0-18.167969 8.132812-18.167969 18.167968s-8.132812 18.167969-18.167969 18.167969h-180.074219c-10.03125 0-18.164062-8.132813-18.164062-18.167969 0-10.03125 8.132812-18.167968 18.164062-18.167968h12.824219c10.035157 0 18.167969-8.132813 18.167969-18.164063 0-10.035156-8.132812-18.167969-18.167969-18.167969h-54.59375c-10.03125 0-18.164062-8.132812-18.164062-18.167968zm0 0"/><path d="m301.96875 152.261719h-27.800781c-10.035157 0-18.167969-8.132813-18.167969-18.164063 0-10.035156-8.132812-18.167968-18.167969-18.167968h-196.125c-7.535156 11.5-14.167969 23.644531-19.800781 36.332031h24.0625c10.03125 0 18.167969 8.132812 18.167969 18.167969 0 10.03125 8.132812 18.167968 18.164062 18.167968h219.667969c10.035156 0 18.167969-8.132812 18.167969-18.167968 0-10.035157-8.136719-18.167969-18.167969-18.167969zm0 0"/></g><path d="m373.789062 361.972656h-235.578124c-36.535157 0-68.273438 22.261719-81.675782 54.476563 46.925782 58.261719 118.832032 95.550781 199.464844 95.550781s152.539062-37.289062 199.464844-95.546875c-13.40625-32.21875-45.140625-54.480469-81.675782-54.480469zm0 0" fill="#6877ba"/><path d="m455.464844 416.453125c-1.109375-2.664063-2.351563-5.253906-3.703125-7.773437h-391.523438c-1.351562 2.519531-2.59375 5.109374-3.703125 7.773437 14.980469 18.597656 32.515625 35.042969 52.058594 48.835937h294.8125c19.542969-13.792968 37.078125-30.238281 52.058594-48.835937zm0 0" fill="#e2e6e7"/><path d="m309.296875 361.972656v-122.992187h-106.59375v122.992187h-21.703125c0 41.417969 33.578125 75 75 75s75-33.582031 75-75zm0 0" fill="#ddc1a5"/><path d="m312.027344 239.597656s-5.875 50.601563 18.707031 75.082032c24.578125 24.476562 75.082031 18.707031 75.082031 18.707031s5.769532-50.503907-18.707031-75.082031c-24.480469-24.582032-75.082031-18.707032-75.082031-18.707032zm0 0" fill="#465a95"/><path d="m199.972656 239.597656s5.875 50.601563-18.707031 75.082032c-24.578125 24.476562-75.082031 18.707031-75.082031 18.707031s-5.769532-50.503907 18.707031-75.082031c24.480469-24.582032 75.082031-18.707032 75.082031-18.707032zm0 0" fill="#465a95"/><path d="m436.578125 189.980469c0 25.011719-20.277344 45.289062-45.289063 45.289062-25.011718 0-45.289062-20.277343-45.289062-45.289062 0-25.015625 20.277344-45.292969 45.289062-45.292969 25.011719 0 45.289063 20.277344 45.289063 45.292969zm0 0" fill="#e9ccae"/><path d="m166 189.980469c0 25.011719-20.277344 45.289062-45.289062 45.289062-25.011719 0-45.289063-20.277343-45.289063-45.289062 0-25.015625 20.277344-45.292969 45.289063-45.292969 25.011718 0 45.289062 20.277344 45.289062 45.292969zm0 0" fill="#ddc1a5"/><path d="m256 .113281c73.492188 0 133.070312 59.574219 133.070312 133.070313v75.535156c0 73.492188-59.578124 133.070312-133.070312 133.070312s-133.070312-59.574218-133.070312-133.070312v-75.535156c0-73.496094 59.578124-133.070313 133.070312-133.070313zm0 0" fill="#f5d7b7"/><path d="m152.929688 208.71875v-75.535156c0-68.421875 51.640624-124.773438 118.070312-132.222656-4.925781-.554688-9.929688-.847657-15-.847657-73.492188 0-133.070312 59.578125-133.070312 133.070313v75.539062c0 73.492188 59.578124 133.066406 133.070312 133.066406 5.070312 0 10.074219-.292968 15-.84375-66.429688-7.457031-118.070312-63.804687-118.070312-132.226562zm0 0" fill="#e9ccae"/><path d="m390.167969 233.277344-181.414063-181.417969-21.757812 21.753906 189.121094 189.121094c2.90625 2.90625 7.882812 1.890625 9.335937-1.953125 2.714844-7.179688 4.828125-14.65625 6.277344-22.367188.347656-1.871093-.21875-3.792968-1.5625-5.136718zm0 0" fill="#5a606c"/><path d="m256 287.902344c31.660156 0 57.617188-24.414063 60.074219-55.441406.207031-2.609376-1.921875-4.820313-4.539063-4.820313h-111.070312c-2.621094 0-4.746094 2.210937-4.539063 4.820313 2.457031 31.027343 28.414063 55.441406 60.074219 55.441406zm0 0" fill="#3e4852"/><path d="m295.207031 273.398438c-10.316406-9.496094-24.082031-15.300782-39.207031-15.300782s-28.894531 5.804688-39.207031 15.300782c10.539062 9.039062 24.234375 14.503906 39.207031 14.503906s28.667969-5.464844 39.207031-14.503906zm0 0" fill="#fd6e99"/><path d="m256 .113281c-76.066406 0-137.734375 62.382813-137.734375 139.335938v6.765625c0 2.917968 1.992187 5.285156 4.453125 5.285156h266.5625c2.457031 0 4.449219-2.367188 4.449219-5.285156v-6.765625c.003906-76.953125-61.664063-139.335938-137.730469-139.335938zm0 0" fill="#fbfcf7"/><path d="m148.265625 146.214844v-6.765625c0-71.824219 53.722656-130.949219 122.734375-138.511719-4.925781-.539062-9.929688-.824219-15-.824219-76.066406 0-137.734375 62.382813-137.734375 139.335938v6.765625c0 2.917968 1.992187 5.285156 4.453125 5.285156h30c-2.457031 0-4.453125-2.367188-4.453125-5.285156zm0 0" fill="#e2e6e7"/><path d="m121.507812 109.304688h268.980469c-4.589843-21.054688-13.882812-40.316407-26.714843-56.609376h-215.546876c-12.832031 16.292969-22.125 35.554688-26.71875 56.609376zm0 0" fill="#6877ba"/><path d="m148.226562 52.695312c-12.832031 16.292969-22.125 35.554688-26.714843 56.609376h30c4.589843-21.054688 13.882812-40.316407 26.714843-56.609376zm0 0" fill="#465a95"/><path d="m354 191.753906-27.105469 27.109375c-5.96875 5.964844-15.640625 5.964844-21.609375 0l-27.105468-27.109375c-5.96875-5.964844-5.96875-15.640625 0-21.605468l27.105468-27.109376c5.96875-5.964843 15.640625-5.964843 21.609375 0l27.105469 27.109376c5.96875 5.964843 5.96875 15.640624 0 21.605468zm0 0" fill="#3e4852"/><path d="m325.210938 161.878906-9.121094 9.125-9.121094-9.121094c-2.75-2.75-7.203125-2.75-9.949219 0-2.75 2.746094-2.75 7.199219 0 9.945313l9.121094 9.121094-9.125 9.125c-2.746094 2.746093-2.746094 7.199219 0 9.949219 2.75 2.746093 7.203125 2.746093 9.949219 0l9.125-9.125 9.121094 9.125c2.746093 2.746093 7.199218 2.746093 9.949218 0 2.746094-2.75 2.746094-7.203126 0-9.949219l-9.125-9.125 9.125-9.121094c2.746094-2.746094 2.746094-7.199219 0-9.949219-2.75-2.746094-7.203125-2.746094-9.949218 0zm0 0" fill="#5a606c"/></svg>