<svg height="512pt" viewBox="0 0 512 512" width="512pt" xmlns="http://www.w3.org/2000/svg"><path d="m512 256c0 141.386719-114.613281 256-256 256s-256-114.613281-256-256 114.613281-256 256-256 256 114.613281 256 256zm0 0" fill="#ffb82c"/><path d="m411.539062 459.324219c-16.019531 12.273437-33.527343 22.695312-52.210937 30.945312l46.285156-284.941406 45.96875 7.464844zm0 0" fill="#2e3b43"/><path d="m405.613281 205.328125 16.417969 2.664063-44.394531 273.316406c-5.960938 3.222656-12.074219 6.210937-18.308594 8.964844zm0 0" fill="#3e4852"/><path d="m446.378906 12.347656 27.613282 4.484375c3.859374.628907 6.480468 4.265625 5.855468 8.128907l-30.453125 187.476562-41.59375-6.753906 30.453125-187.480469c.628906-3.859375 4.265625-6.480469 8.125-5.855469zm0 0" fill="#f74b4b"/><path d="m459.050781 21.582031-30.453125 187.480469 20.796875 3.375 30.453125-187.476562c.625-3.863282-1.996094-7.5-5.855468-8.128907l-20.796876-3.378906c3.859376.628906 6.484376 4.265625 5.855469 8.128906zm0 0" fill="#d14242"/><path d="m385.910156 189.566406 89.351563 14.511719c6.757812 1.097656 11.347656 7.46875 10.25 14.226563-1.097657 6.757812-7.464844 11.347656-14.226563 10.25l-89.351562-14.511719c-6.757813-1.097657-11.347656-7.46875-10.25-14.226563 1.097656-6.761718 7.46875-11.347656 14.226562-10.25zm0 0" fill="#e2e6e7"/><path d="m469.09375 215.636719c-1.097656 6.761719-7.464844 11.351562-14.226562 10.253906l16.417968 2.664063c6.761719 1.097656 13.128906-3.488282 14.226563-10.25 1.097656-6.757813-3.488281-13.128907-10.25-14.226563l-16.417969-2.667969c6.757812 1.101563 11.347656 7.46875 10.25 14.226563zm0 0" fill="#c1ccd0"/><path d="m385.910156 189.566406 89.351563 14.511719c6.757812 1.097656 11.347656 7.46875 10.25 14.226563-1.097657 6.757812-7.464844 11.347656-14.226563 10.25l-89.351562-14.511719c-6.757813-1.097657-11.347656-7.46875-10.25-14.226563 1.097656-6.761718 7.46875-11.347656 14.226562-10.25zm0 0" fill="#e2e6e7"/><path d="m469.09375 215.636719c-1.097656 6.761719-7.464844 11.351562-14.226562 10.253906l16.417968 2.664063c6.761719 1.097656 13.128906-3.488282 14.226563-10.25 1.097656-6.757813-3.488281-13.128907-10.25-14.226563l-16.417969-2.667969c6.757812 1.101563 11.347656 7.46875 10.25 14.226563zm0 0" fill="#c1ccd0"/><path d="m382.074219 214.039062 89.351562 14.515626c6.757813 1.097656 11.347657 7.46875 10.25 14.226562-1.097656 6.757812-7.464843 11.347656-14.226562 10.25l-89.351563-14.511719c-6.757812-1.097656-11.347656-7.46875-10.25-14.226562 1.097656-6.761719 7.46875-11.351563 14.226563-10.253907zm0 0" fill="#c1ccd0"/><path d="m465.257812 240.113281c-1.097656 6.761719-7.464843 11.351563-14.226562 10.253907l16.417969 2.664062c6.761719 1.101562 13.128906-3.488281 14.226562-10.25 1.097657-6.757812-3.488281-13.128906-10.25-14.226562l-16.417969-2.664063c6.757813 1.09375 11.347657 7.464844 10.25 14.222656zm0 0" fill="#aabbbf"/><path d="m100.460938 459.324219c16.019531 12.273437 33.527343 22.695312 52.210937 30.945312l-46.285156-284.941406-45.96875 7.464844zm0 0" fill="#2e3b43"/><path d="m106.386719 205.328125-16.417969 2.664063 44.394531 273.316406c5.960938 3.222656 12.074219 6.210937 18.308594 8.964844zm0 0" fill="#3e4852"/><path d="m65.621094 12.347656-27.613282 4.484375c-3.859374.628907-6.480468 4.265625-5.855468 8.128907l30.453125 187.476562 41.59375-6.753906-30.453125-187.480469c-.628906-3.859375-4.265625-6.480469-8.125-5.855469zm0 0" fill="#f74b4b"/><path d="m52.949219 21.582031 30.453125 187.480469-20.796875 3.375-30.453125-187.476562c-.625-3.863282 1.996094-7.5 5.855468-8.128907l20.796876-3.378906c-3.859376.628906-6.484376 4.265625-5.855469 8.128906zm0 0" fill="#d14242"/><path d="m126.089844 189.566406-89.351563 14.511719c-6.757812 1.097656-11.347656 7.46875-10.25 14.226563 1.097657 6.757812 7.464844 11.347656 14.226563 10.25l89.351562-14.511719c6.757813-1.097657 11.347656-7.46875 10.25-14.226563-1.097656-6.761718-7.46875-11.347656-14.226562-10.25zm0 0" fill="#e2e6e7"/><path d="m42.90625 215.636719c1.097656 6.761719 7.464844 11.351562 14.226562 10.253906l-16.417968 2.664063c-6.761719 1.097656-13.128906-3.488282-14.226563-10.25-1.097656-6.757813 3.488281-13.128907 10.25-14.226563l16.417969-2.667969c-6.757812 1.101563-11.347656 7.46875-10.25 14.226563zm0 0" fill="#c1ccd0"/><path d="m126.089844 189.566406-89.351563 14.511719c-6.757812 1.097656-11.347656 7.46875-10.25 14.226563 1.097657 6.757812 7.464844 11.347656 14.226563 10.25l89.351562-14.511719c6.757813-1.097657 11.347656-7.46875 10.25-14.226563-1.097656-6.761718-7.46875-11.347656-14.226562-10.25zm0 0" fill="#e2e6e7"/><path d="m42.90625 215.636719c1.097656 6.761719 7.464844 11.351562 14.226562 10.253906l-16.417968 2.664063c-6.761719 1.097656-13.128906-3.488282-14.226563-10.25-1.097656-6.757813 3.488281-13.128907 10.25-14.226563l16.417969-2.667969c-6.757812 1.101563-11.347656 7.46875-10.25 14.226563zm0 0" fill="#c1ccd0"/><path d="m129.925781 214.039062-89.351562 14.515626c-6.757813 1.097656-11.347657 7.46875-10.25 14.226562 1.097656 6.757812 7.464843 11.347656 14.226562 10.25l89.351563-14.511719c6.757812-1.097656 11.347656-7.46875 10.25-14.226562-1.097656-6.761719-7.46875-11.351563-14.226563-10.253907zm0 0" fill="#c1ccd0"/><path d="m46.742188 240.113281c1.097656 6.761719 7.464843 11.351563 14.226562 10.253907l-16.417969 2.664062c-6.761719 1.101562-13.128906-3.488281-14.226562-10.25-1.097657-6.757812 3.488281-13.128906 10.25-14.226562l16.417969-2.664063c-6.757813 1.09375-11.347657 7.464844-10.25 14.222656zm0 0" fill="#aabbbf"/><path d="m124.203125 329.878906-31.324219-14.238281c-6.902344-3.132813-9.953125-11.273437-6.820312-18.171875l78.578125-172.910156c3.132812-6.902344 11.269531-9.953125 18.171875-6.816406l31.328125 14.234374c6.898437 3.136719 9.953125 11.273438 6.816406 18.175782l-78.574219 172.910156c-3.136718 6.898438-11.273437 9.953125-18.175781 6.816406zm0 0" fill="#d14242"/><path d="m387.796875 329.878906 31.324219-14.238281c6.902344-3.132813 9.953125-11.273437 6.820312-18.171875l-78.578125-172.910156c-3.132812-6.898438-11.269531-9.953125-18.171875-6.816406l-31.328125 14.238281c-6.898437 3.132812-9.953125 11.273437-6.816406 18.171875l78.574219 172.910156c3.136718 6.898438 11.273437 9.953125 18.175781 6.816406zm0 0" fill="#d14242"/><path d="m373.789062 361.972656h-64.492187v-122.992187h-106.59375v122.992187h-64.492187c-36.535157 0-68.273438 22.261719-81.675782 54.476563 46.925782 58.261719 118.832032 95.550781 199.464844 95.550781s152.539062-37.289062 199.464844-95.546875c-13.40625-32.21875-45.140625-54.480469-81.675782-54.480469zm0 0" fill="#212d33"/><path d="m256 .113281c73.492188 0 133.070312 59.574219 133.070312 133.070313v75.535156c0 73.492188-59.578124 133.070312-133.070312 133.070312s-133.070312-59.574218-133.070312-133.070312v-75.535156c0-73.496094 59.578124-133.070313 133.070312-133.070313zm0 0" fill="#3e4852"/><path d="m152.929688 208.71875v-75.535156c0-68.421875 51.640624-124.773438 118.070312-132.222656-4.925781-.554688-9.929688-.847657-15-.847657-73.492188 0-133.070312 59.578125-133.070312 133.070313v75.539062c0 73.492188 59.578124 133.066406 133.070312 133.066406 5.070312 0 10.074219-.292968 15-.84375-66.429688-7.457031-118.070312-63.804687-118.070312-132.226562zm0 0" fill="#2e3b43"/><path d="m320.292969 214.007812-51.242188-20.007812c-8.390625-3.277344-17.710937-3.277344-26.105469 0l-51.238281 20.007812c-23.53125 9.1875-48.941406-8.167968-48.941406-33.429687 0-19.820313 16.066406-35.886719 35.886719-35.886719h154.691406c19.820312 0 35.886719 16.066406 35.886719 35.886719.003906 25.261719-25.40625 42.617187-48.9375 33.429687zm0 0" fill="#f5d7b7"/><path d="m172.765625 180.574219c0-19.816407 16.070313-35.886719 35.886719-35.886719h-30c-19.816406 0-35.886719 16.070312-35.886719 35.886719 0 25.265625 25.410156 42.621093 48.941406 33.429687l2.023438-.789062c-12.101563-5.566406-20.964844-17.722656-20.964844-32.640625zm0 0" fill="#e9ccae"/><path d="m117.929688 133.183594v13.144531c0 2.859375 2.316406 5.171875 5.171874 5.171875h265.796876c2.859374 0 5.171874-2.3125 5.171874-5.171875v-13.144531c0-19.335938-4.125-37.710938-11.542968-54.289063-.839844-1.871093-2.6875-3.089843-4.738282-3.089843h-243.574218c-2.054688 0-3.902344 1.21875-4.742188 3.089843-7.414062 16.578125-11.542968 34.949219-11.542968 54.289063zm0 0" fill="#f74b4b"/><path d="m147.929688 146.328125v-13.148437c0-19.335938 4.128906-37.707032 11.542968-54.285157.839844-1.871093 2.6875-3.089843 4.742188-3.089843h-30c-2.054688 0-3.902344 1.21875-4.742188 3.089843-7.414062 16.578125-11.542968 34.949219-11.542968 54.285157v13.148437c0 2.855469 2.316406 5.171875 5.171874 5.171875h30c-2.855468 0-5.171874-2.316406-5.171874-5.171875zm0 0" fill="#d14242"/><path d="m369.167969 121.152344h-226.335938c-4.140625 0-7.5-3.355469-7.5-7.5 0-4.140625 3.359375-7.5 7.5-7.5h226.332031c4.144532 0 7.5 3.359375 7.5 7.5.003907 4.144531-3.355468 7.5-7.496093 7.5zm0 0" fill="#d14242"/><path d="m309.242188 159.820312h-106.484376c-4.835937 0-8.757812-3.921874-8.757812-8.757812v-74.820312c0-4.835938 3.921875-8.757813 8.757812-8.757813h106.484376c4.835937 0 8.757812 3.921875 8.757812 8.757813v74.820312c0 4.835938-3.921875 8.757812-8.757812 8.757812zm0 0" fill="#e2e6e7"/><path d="m224 151.0625v-74.820312c0-4.835938 3.921875-8.757813 8.757812-8.757813h-30c-4.835937 0-8.757812 3.921875-8.757812 8.757813v74.820312c0 4.835938 3.921875 8.757812 8.757812 8.757812h30c-4.835937 0-8.757812-3.921874-8.757812-8.757812zm0 0" fill="#c1ccd0"/></svg>