<svg height="512pt" viewBox="0 0 512 512" width="512pt" xmlns="http://www.w3.org/2000/svg"><path d="m512 256c0 141.386719-114.613281 256-256 256s-256-114.613281-256-256 114.613281-256 256-256 256 114.613281 256 256zm0 0" fill="#3e4852"/><g fill="#5a606c"><path d="m511.472656 272.253906h-25.003906c-10.035156 0-18.167969 8.132813-18.167969 18.167969 0 10.03125-8.136719 18.167969-18.167969 18.167969h-57.800781c-10.03125 0-18.167969 8.132812-18.167969 18.164062 0 10.035156 8.132813 18.167969 18.167969 18.167969h103.792969c8.46875-22.863281 13.753906-47.261719 15.347656-72.667969zm0 0"/><path d="m156.742188 250.679688h-156.6757818c-.0351562 1.769531-.0664062 3.542968-.0664062 5.320312 0 23.308594 3.132812 45.882812 8.972656 67.34375h39.785156c10.035157 0 18.167969-8.132812 18.167969-18.164062 0-10.035157 8.132813-18.167969 18.167969-18.167969h71.652344c10.03125 0 18.164062-8.132813 18.164062-18.167969 0-10.03125-8.132812-18.164062-18.167968-18.164062zm0 0"/><path d="m177.667969 175.398438c0-10.03125 8.132812-18.167969 18.167969-18.167969h189.664062c10.03125 0 18.167969 8.132812 18.167969 18.167969 0 10.035156 8.132812 18.167968 18.167969 18.167968h45c10.03125 0 18.164062 8.132813 18.164062 18.167969 0 10.03125-8.132812 18.164063-18.164062 18.164063h-12.824219c-10.035157 0-18.167969 8.132812-18.167969 18.167968s-8.132812 18.167969-18.167969 18.167969h-180.074219c-10.03125 0-18.164062-8.132813-18.164062-18.167969 0-10.03125 8.132812-18.167968 18.164062-18.167968h12.824219c10.035157 0 18.167969-8.132813 18.167969-18.164063 0-10.035156-8.132812-18.167969-18.167969-18.167969h-54.59375c-10.03125 0-18.164062-8.132812-18.164062-18.167968zm0 0"/><path d="m301.96875 152.261719h-27.800781c-10.035157 0-18.167969-8.132813-18.167969-18.164063 0-10.035156-8.132812-18.167968-18.167969-18.167968h-196.125c-7.535156 11.5-14.167969 23.644531-19.800781 36.332031h24.0625c10.03125 0 18.167969 8.132812 18.167969 18.167969 0 10.03125 8.132812 18.167968 18.164062 18.167968h219.667969c10.035156 0 18.167969-8.132812 18.167969-18.167968 0-10.035157-8.136719-18.167969-18.167969-18.167969zm0 0"/></g><path d="m142.234375 367.09375c-36.542969 0-68.117187 23.054688-80.203125 55.972656 46.949219 54.457032 116.429688 88.933594 193.96875 88.933594s147.019531-34.476562 193.96875-88.933594c-12.085938-32.917968-43.660156-55.972656-80.199219-55.972656zm0 0" fill="#8f64ac"/><path d="m180.523438 361.78125c-16.710938 0-30.257813 13.546875-30.257813 30.257812 0 9.84375 4.722656 18.566407 12.003906 24.089844-1.21875 3.964844-1.875 8.171875-1.875 12.535156 0 23.558594 19.097657 42.660157 42.65625 42.660157.425781 0 .84375-.019531 1.261719-.035157 8.757812 19.851563 28.597656 33.710938 51.6875 33.710938s42.929688-13.859375 51.6875-33.710938c.417969.015626.839844.035157 1.261719.035157 23.558593 0 42.660156-19.101563 42.660156-42.660157 0-4.363281-.660156-8.570312-1.875-12.535156 7.28125-5.523437 12.003906-14.246094 12.003906-24.089844 0-16.710937-13.550781-30.257812-30.261719-30.257812zm0 0" fill="#fbfcf7"/><path d="m276 495c-23.089844 0-42.929688-13.859375-51.6875-33.710938-.417969.015626-.839844.035157-1.261719.035157-23.558593 0-42.660156-19.101563-42.660156-42.660157 0-4.363281.660156-8.570312 1.875-12.535156-7.28125-5.523437-12.003906-14.246094-12.003906-24.089844 0-7.738281 2.910156-14.792968 7.6875-20.140624-15.507813 1.304687-27.6875 14.296874-27.6875 30.140624 0 9.84375 4.722656 18.566407 12.003906 24.089844-1.214844 3.964844-1.875 8.171875-1.875 12.535156 0 23.558594 19.101563 42.660157 42.660156 42.660157.421875 0 .84375-.019531 1.261719-.035157 8.757812 19.851563 28.597656 33.710938 51.6875 33.710938 13.09375 0 25.136719-4.460938 34.714844-11.9375-4.691406 1.261719-9.625 1.9375-14.714844 1.9375zm0 0" fill="#e2e6e7"/><path d="m204.523438 248.304688v118.789062c0 28.429688 23.046874 51.476562 51.476562 51.476562s51.476562-23.046874 51.476562-51.476562v-118.789062zm0 0" fill="#c1ccd0"/><path d="m430.414062 200.976562c0 24.15625-19.585937 43.742188-43.746093 43.742188-24.15625 0-43.742188-19.585938-43.742188-43.742188 0-24.160156 19.585938-43.746093 43.742188-43.746093 24.160156 0 43.746093 19.585937 43.746093 43.746093zm0 0" fill="#e2e6e7"/><path d="m169.074219 200.976562c0 24.15625-19.585938 43.742188-43.742188 43.742188-24.160156 0-43.746093-19.585938-43.746093-43.742188 0-24.160156 19.585937-43.746093 43.746093-43.746093 24.15625 0 43.742188 19.585937 43.742188 43.746093zm0 0" fill="#c1ccd0"/><path d="m256 352.949219c-72.167969 0-130.667969-58.503907-130.667969-130.667969v-74.289062c0-72.167969 58.503907-130.667969 130.667969-130.667969 72.167969 0 130.667969 58.503906 130.667969 130.667969v74.289062c0 72.164062-58.5 130.667969-130.667969 130.667969zm0 0" fill="#fbfcf7"/><path d="m155.332031 222.28125v-74.289062c0-67.09375 50.566407-122.363282 115.667969-129.804688-4.921875-.566406-9.925781-.863281-15-.863281-72.167969 0-130.667969 58.5-130.667969 130.667969v74.289062c0 72.167969 58.503907 130.667969 130.667969 130.667969 5.074219 0 10.078125-.296875 15-.859375-65.101562-7.445313-115.667969-62.714844-115.667969-129.808594zm0 0" fill="#e2e6e7"/><path d="m256 284.007812c30.578125 0 55.648438-23.582031 58.023438-53.550781.199218-2.519531-1.855469-4.65625-4.386719-4.65625h-107.273438c-2.53125 0-4.585937 2.136719-4.386719 4.65625 2.375 29.96875 27.445313 53.550781 58.023438 53.550781zm0 0" fill="#3e4852"/><path d="m293.867188 269.996094c-9.960938-9.171875-23.257813-14.777344-37.867188-14.777344s-27.90625 5.605469-37.867188 14.777344c10.179688 8.730468 23.402344 14.011718 37.867188 14.011718s27.6875-5.28125 37.867188-14.011718zm0 0" fill="#fd6e99"/><path d="m285.925781 185.136719c0 16.527343-13.398437 29.925781-29.925781 29.925781s-29.925781-13.398438-29.925781-29.925781c0-16.527344 13.398437-29.925781 29.925781-29.925781s29.925781 13.398437 29.925781 29.925781zm0 0" fill="#f74b4b"/><path d="m246.074219 185.136719c0-13.019531 8.316406-24.09375 19.925781-28.207031-3.128906-1.109376-6.492188-1.71875-10-1.71875-16.527344 0-29.925781 13.398437-29.925781 29.925781 0 16.527343 13.398437 29.925781 29.925781 29.925781 3.507812 0 6.871094-.609375 10-1.71875-11.609375-4.113281-19.925781-15.1875-19.925781-28.207031zm0 0" fill="#d14242"/><path d="m424.480469 185.136719c0 20.882812-16.929688 37.8125-37.8125 37.8125-20.882813 0-37.8125-16.929688-37.8125-37.8125 0-20.882813 16.929687-37.8125 37.8125-37.8125 20.882812 0 37.8125 16.929687 37.8125 37.8125zm0 0" fill="#6877ba"/><path d="m430.414062 124.328125c0 29.519531-23.929687 53.449219-53.449218 53.449219-29.515625 0-53.445313-23.929688-53.445313-53.449219 0-29.515625 23.929688-53.445313 53.445313-53.445313 29.519531 0 53.449218 23.929688 53.449218 53.445313zm0 0" fill="#42c8b0"/><path d="m393.824219 73.355469c0 35.664062-28.914063 64.578125-64.582031 64.578125-35.667969 0-64.582032-28.914063-64.582032-64.578125 0-35.667969 28.914063-64.582031 64.582032-64.582031 35.667968 0 64.582031 28.914062 64.582031 64.582031zm0 0" fill="#ffb82c"/><path d="m162.253906 185.136719c0 20.882812-16.929687 37.8125-37.8125 37.8125-20.882812 0-37.8125-16.929688-37.8125-37.8125 0-20.882813 16.929688-37.8125 37.8125-37.8125 20.882813 0 37.8125 16.929687 37.8125 37.8125zm0 0" fill="#6877ba"/><path d="m187.589844 124.328125c0 29.519531-23.929688 53.449219-53.445313 53.449219-29.519531 0-53.449219-23.929688-53.449219-53.449219 0-29.515625 23.929688-53.445313 53.449219-53.445313 29.515625 0 53.445313 23.929688 53.445313 53.445313zm0 0" fill="#42c8b0"/><path d="m246.449219 73.355469c0 35.664062-28.914063 64.578125-64.582031 64.578125-35.667969 0-64.582032-28.914063-64.582032-64.578125 0-35.667969 28.914063-64.582031 64.582032-64.582031 35.667968 0 64.582031 28.914062 64.582031 64.582031zm0 0" fill="#ffb82c"/><path d="m323.445312 67.554688c0 37.25-30.195312 67.445312-67.445312 67.445312s-67.445312-30.195312-67.445312-67.445312c0-37.246094 30.195312-67.441407 67.445312-67.441407s67.445312 30.195313 67.445312 67.441407zm0 0" fill="#f74b4b"/></svg>