<svg height="512pt" viewBox="0 0 512 512" width="512pt" xmlns="http://www.w3.org/2000/svg"><path d="m512 256c0 141.386719-114.613281 256-256 256s-256-114.613281-256-256 114.613281-256 256-256 256 114.613281 256 256zm0 0" fill="#f74b4b"/><path d="m202.703125 238.980469h106.59375v172.519531h-106.59375zm0 0" fill="#e2e6e7"/><path d="m441 223.339844c-7-116.664063-95-223.226563-185-223.226563s-178 106.5625-185 223.226563c-7 116.660156 141 216.660156 185 216.660156s192-100 185-216.660156zm0 0" fill="#3e4852"/><path d="m386.144531 190.851562c0 71.878907-58.265625 130.144532-130.144531 130.144532s-130.144531-58.265625-130.144531-130.144532c0-71.878906 58.265625-130.144531 130.144531-130.144531s130.144531 58.265625 130.144531 130.144531zm0 0" fill="#2e3b43"/><path d="m373.789062 361.972656h-235.578124c-36.535157 0-68.273438 22.261719-81.675782 54.476563 46.925782 58.261719 118.832032 95.550781 199.464844 95.550781s152.539062-37.289062 199.464844-95.546875c-13.40625-32.21875-45.140625-54.480469-81.675782-54.480469zm0 0" fill="#3e4852"/><path d="m71 223.339844c-3.125 52.101562 24.671875 100.871094 60.304688 138.902344-33.589844 2.601562-62.21875 24.039062-74.769532 54.210937 39.1875 48.652344 95.804688 82.660156 160.367188 92.558594 5.828125-32.609375 28.59375-53.558594 44.105468-64.367188 5.75-4.003906 5.058594-12.660156-1.253906-15.710937-60.164062-29.085938-154.371094-111.96875-148.753906-205.59375 6.480469-107.992188 82.367188-207.320313 165-221.488282h-.003906c-1.558594-.265624-3.125-.5-4.691406-.707031-.214844-.03125-.433594-.054687-.648438-.082031-1.25-.15625-2.496094-.304688-3.746094-.414062-.445312-.039063-.886718-.085938-1.332031-.121094-1.230469-.105469-2.464844-.179688-3.699219-.246094-.386718-.019531-.773437-.046875-1.160156-.0625-1.574219-.066406-3.144531-.105469-4.71875-.105469-90 0-178 106.5625-185 223.226563zm0 0" fill="#2e3b43"/><path d="m396.0625 187.789062c0-77.351562-62.707031-140.058593-140.054688-140.0625-77.625 0-141.183593 64.527344-140.054687 142.144532.414063 28.308594 9.230469 54.582031 24.0625 76.441406 2.320313 3.421875 6.15625 5.511719 10.289063 5.511719h34.855468c6.804688 0 12.320313 5.515625 12.320313 12.320312v37.511719c0 6.804688 5.515625 12.320312 12.324219 12.320312h92.394531c6.808593 0 12.324219-5.515624 12.324219-12.320312v-37.511719c0-6.804687 5.515624-12.320312 12.320312-12.320312h34.855469c4.128906 0 7.960937-2.082031 10.28125-5.5 15.195312-22.398438 24.082031-49.429688 24.082031-78.535157zm0 0" fill="#fbfcf7"/><path d="m170.011719 266.3125c-14.828125-21.863281-23.644531-48.132812-24.058594-76.441406-1.054687-72.570313 54.445313-133.699219 125.113281-141.335938-4.949218-.527344-9.972656-.804687-15.058594-.808594-77.625 0-141.183593 64.527344-140.054687 142.144532.414063 28.308594 9.230469 54.582031 24.058594 76.441406 2.324219 3.421875 6.15625 5.511719 10.292969 5.511719h30c-4.136719 0-7.96875-2.089844-10.292969-5.511719zm0 0" fill="#e2e6e7"/><path d="m236.257812 195.042969c0 21.410156-17.359374 38.765625-38.769531 38.765625-21.410156 0-38.765625-17.355469-38.765625-38.765625 0-21.410157 17.355469-38.765625 38.765625-38.765625 21.410157 0 38.769531 17.355468 38.769531 38.765625zm0 0" fill="#3e4852"/><path d="m353.308594 195.042969c0 21.410156-17.355469 38.765625-38.765625 38.765625-21.410157 0-38.765625-17.355469-38.765625-38.765625 0-21.410157 17.355468-38.765625 38.765625-38.765625 21.410156 0 38.765625 17.355468 38.765625 38.765625zm0 0" fill="#3e4852"/><g fill="#c1ccd0"><path d="m223 271.824219c-4.140625 0-7.5 3.359375-7.5 7.5v54.652343h15v-54.652343c0-4.140625-3.359375-7.5-7.5-7.5zm0 0"/><path d="m256 271.824219c-4.140625 0-7.5 3.359375-7.5 7.5v54.652343h15v-54.652343c0-4.140625-3.359375-7.5-7.5-7.5zm0 0"/><path d="m289 271.824219c-4.140625 0-7.5 3.359375-7.5 7.5v54.652343h15v-54.652343c0-4.140625-3.359375-7.5-7.5-7.5zm0 0"/></g></svg>