<svg height="512pt" viewBox="0 0 512 512" width="512pt" xmlns="http://www.w3.org/2000/svg"><path d="m512 256c0 141.386719-114.613281 256-256 256s-256-114.613281-256-256 114.613281-256 256-256 256 114.613281 256 256zm0 0" fill="#92ebf1"/><g fill="#bff8ff"><path d="m510.667969 282.253906h-24.203125c-10.03125 0-18.164063 8.132813-18.164063 18.167969 0 10.03125-8.136719 18.167969-18.167969 18.167969h-17.800781c-10.035156 0-18.167969 8.132812-18.167969 18.164062 0 10.035156 8.132813 18.167969 18.167969 18.167969h59.847657c9.535156-22.742187 15.890624-47.148437 18.488281-72.667969zm0 0"/><path d="m156.742188 250.679688h-156.6757818c-.0351562 1.769531-.0664062 3.542968-.0664062 5.320312 0 23.308594 3.132812 45.882812 8.972656 67.34375h39.785156c10.035157 0 18.167969-8.132812 18.167969-18.164062 0-10.035157 8.132813-18.167969 18.167969-18.167969h71.652344c10.03125 0 18.164062-8.132813 18.164062-18.167969 0-10.03125-8.132812-18.164062-18.167968-18.164062zm0 0"/><path d="m177.667969 175.398438c0-10.03125 8.132812-18.167969 18.167969-18.167969h189.664062c10.03125 0 18.167969 8.132812 18.167969 18.167969 0 10.035156 8.132812 18.167968 18.167969 18.167968h45c10.03125 0 18.164062 8.132813 18.164062 18.167969 0 10.03125-8.132812 18.164063-18.164062 18.164063h-12.824219c-10.035157 0-18.167969 8.132812-18.167969 18.167968s-8.132812 18.167969-18.167969 18.167969h-180.074219c-10.03125 0-18.164062-8.132813-18.164062-18.167969 0-10.03125 8.132812-18.167968 18.164062-18.167968h12.824219c10.035157 0 18.167969-8.132813 18.167969-18.164063 0-10.035156-8.132812-18.167969-18.167969-18.167969h-54.59375c-10.03125 0-18.164062-8.132812-18.164062-18.167968zm0 0"/><path d="m301.96875 152.261719h-27.800781c-10.035157 0-18.167969-8.132813-18.167969-18.164063 0-10.035156-8.132812-18.167968-18.167969-18.167968h-196.125c-7.535156 11.5-14.167969 23.644531-19.800781 36.332031h24.0625c10.03125 0 18.167969 8.132812 18.167969 18.167969 0 10.03125 8.132812 18.167968 18.164062 18.167968h219.667969c10.035156 0 18.167969-8.132812 18.167969-18.167968 0-10.035157-8.136719-18.167969-18.167969-18.167969zm0 0"/></g><path d="m118.007812 160.800781h275.984376v272.199219h-275.984376zm0 0" fill="#f08d0b"/><path d="m142.234375 367.09375c-36.542969 0-68.117187 23.054688-80.203125 55.972656 46.949219 54.457032 116.429688 88.933594 193.96875 88.933594s147.019531-34.476562 193.96875-88.933594c-12.085938-32.917968-43.660156-55.972656-80.199219-55.972656zm0 0" fill="#63e7ae"/><path d="m142.234375 367.09375c-36.542969 0-68.117187 23.054688-80.199219 55.972656 46.945313 54.457032 116.425782 88.933594 193.964844 88.933594v-144.90625zm0 0" fill="#42c8b0"/><path d="m307.476562 367.09375s-9.808593 26-51.476562 26-51.476562-26-51.476562-26v-118.789062h102.953124zm0 0" fill="#5a606c"/><path d="m204.523438 248.304688v118.789062s9.808593 26 51.476562 26v-144.789062zm0 0" fill="#3e4852"/><path d="m430.414062 200.976562c0 24.15625-19.585937 43.742188-43.746093 43.742188-24.15625 0-43.742188-19.585938-43.742188-43.742188 0-24.160156 65.257813-67.394531 75.40625-60.3125 10.148438 7.085938 12.082031 45.210938 12.082031 60.3125zm0 0" fill="#e9ccae"/><path d="m81.585938 200.976562c0 24.15625 19.585937 43.742188 43.746093 43.742188 24.15625 0 43.742188-19.585938 43.742188-43.742188 0-24.160156-65.257813-67.394531-75.40625-60.3125-10.148438 7.085938-12.082031 45.210938-12.082031 60.3125zm0 0" fill="#ddc1a5"/><path d="m256 352.949219c-72.167969 0-130.667969-58.503907-130.667969-130.667969v-74.289062c0-72.167969 58.503907-130.667969 130.667969-130.667969 72.167969 0 130.667969 58.503906 130.667969 130.667969v74.289062c0 72.164062-58.5 130.667969-130.667969 130.667969zm0 0" fill="#f5d7b7"/><path d="m155.332031 222.28125v-74.289062c0-67.09375 50.566407-122.363282 115.667969-129.804688-4.921875-.566406-9.925781-.863281-15-.863281-72.167969 0-130.667969 58.5-130.667969 130.667969v74.289062c0 72.167969 58.503907 130.667969 130.667969 130.667969 5.074219 0 10.078125-.296875 15-.859375-65.101562-7.445313-115.667969-62.714844-115.667969-129.808594zm0 0" fill="#e9ccae"/><path d="m256 284.007812c30.578125 0 55.648438-23.582031 58.023438-53.550781.199218-2.519531-1.855469-4.65625-4.386719-4.65625h-107.273438c-2.53125 0-4.585937 2.136719-4.386719 4.65625 2.375 29.96875 27.445313 53.550781 58.023438 53.550781zm0 0" fill="#3e4852"/><path d="m293.867188 269.996094c-9.960938-9.171875-23.257813-14.777344-37.867188-14.777344s-27.90625 5.605469-37.867188 14.777344c10.179688 8.730468 23.402344 14.011718 37.867188 14.011718s27.6875-5.28125 37.867188-14.011718zm0 0" fill="#fd6e99"/><path d="m403.898438 142.988281c-2.648438-79.292969-67.96875-142.988281-147.898438-142.988281s-145.25 63.695312-147.898438 142.988281c5.125 2.195313 11.078126 5.433594 17.230469 9.355469l-.003906.003906v32.789063h.003906c10.289063 0 18.628907-8.339844 18.628907-18.628907v-17.917968c0-30.941406 25.078124-56.019532 56.019531-56.019532 30.9375 0 45.820312 56.019532 56.019531 56.019532s25.082031-56.019532 56.019531-56.019532c30.941407 0 56.019531 25.078126 56.019531 56.019532v17.917968c0 10.289063 8.34375 18.628907 18.628907 18.628907h.003906v-32.789063l-.003906-.003906c6.148437-3.921875 12.105469-7.164062 17.230469-9.355469zm0 0" fill="#ffb82c"/><path d="m143.9375 145.667969c0-74.660157 56.464844-136.375 128.933594-144.699219-5.539063-.632812-11.167969-.96875-16.871094-.96875-79.929688 0-145.25 63.695312-147.898438 142.988281 5.125 2.195313 11.078126 5.433594 17.230469 9.355469l-.003906.003906v32.789063h.003906c10.136719 0 18.367188-8.101563 18.605469-18.183594zm0 0" fill="#f08d0b"/><path d="m283 453c0 14.910156-12.089844 27-27 27s-27-12.089844-27-27 12.089844-27 27-27 27 12.089844 27 27zm0 0" fill="#fce46a"/></svg>