<svg height="512pt" viewBox="0 0 512 512" width="512pt" xmlns="http://www.w3.org/2000/svg"><path d="m512 256c0 141.386719-114.613281 256-256 256s-256-114.613281-256-256 114.613281-256 256-256 256 114.613281 256 256zm0 0" fill="#e2e6e7"/><g fill="#fbfcf7"><path d="m511.472656 272.253906h-25.003906c-10.035156 0-18.167969 8.132813-18.167969 18.167969 0 10.03125-8.136719 18.167969-18.167969 18.167969h-57.800781c-10.03125 0-18.167969 8.132812-18.167969 18.164062 0 10.035156 8.132813 18.167969 18.167969 18.167969h103.792969c8.46875-22.863281 13.753906-47.261719 15.347656-72.667969zm0 0"/><path d="m156.742188 250.679688h-156.6757818c-.0351562 1.769531-.0664062 3.542968-.0664062 5.320312 0 23.308594 3.132812 45.882812 8.972656 67.34375h39.785156c10.035157 0 18.167969-8.132812 18.167969-18.164062 0-10.035157 8.132813-18.167969 18.167969-18.167969h71.652344c10.03125 0 18.164062-8.132813 18.164062-18.167969 0-10.03125-8.132812-18.164062-18.167968-18.164062zm0 0"/><path d="m177.667969 175.398438c0-10.03125 8.132812-18.167969 18.167969-18.167969h189.664062c10.03125 0 18.167969 8.132812 18.167969 18.167969 0 10.035156 8.132812 18.167968 18.167969 18.167968h45c10.03125 0 18.164062 8.132813 18.164062 18.167969 0 10.03125-8.132812 18.164063-18.164062 18.164063h-12.824219c-10.035157 0-18.167969 8.132812-18.167969 18.167968s-8.132812 18.167969-18.167969 18.167969h-180.074219c-10.03125 0-18.164062-8.132813-18.164062-18.167969 0-10.03125 8.132812-18.167968 18.164062-18.167968h12.824219c10.035157 0 18.167969-8.132813 18.167969-18.164063 0-10.035156-8.132812-18.167969-18.167969-18.167969h-54.59375c-10.03125 0-18.164062-8.132812-18.164062-18.167968zm0 0"/><path d="m301.96875 152.261719h-27.800781c-10.035157 0-18.167969-8.132813-18.167969-18.164063 0-10.035156-8.132812-18.167968-18.167969-18.167968h-196.125c-7.535156 11.5-14.167969 23.644531-19.800781 36.332031h24.0625c10.03125 0 18.167969 8.132812 18.167969 18.167969 0 10.03125 8.132812 18.167968 18.164062 18.167968h219.667969c10.035156 0 18.167969-8.132812 18.167969-18.167968 0-10.035157-8.136719-18.167969-18.167969-18.167969zm0 0"/></g><path d="m142.234375 367.09375c-36.542969 0-68.117187 23.054688-80.203125 55.972656 46.949219 54.457032 116.429688 88.933594 193.96875 88.933594s147.019531-34.476562 193.96875-88.933594c-12.085938-32.917968-43.660156-55.972656-80.199219-55.972656zm0 0" fill="#d14242"/><path d="m204.523438 248.304688h102.953124v140.695312h-102.953124zm0 0" fill="#d14242"/><path d="m430.414062 200.976562c0 24.15625-19.585937 43.742188-43.746093 43.742188-24.15625 0-43.742188-19.585938-43.742188-43.742188 0-24.160156 19.585938-43.746093 43.742188-43.746093 24.160156 0 43.746093 19.585937 43.746093 43.746093zm0 0" fill="#f74b4b"/><path d="m169.074219 200.976562c0 24.15625-19.585938 43.742188-43.742188 43.742188-24.160156 0-43.746093-19.585938-43.746093-43.742188 0-24.160156 19.585937-43.746093 43.746093-43.746093 24.15625 0 43.742188 19.585937 43.742188 43.746093zm0 0" fill="#d14242"/><path d="m256 352.949219c-72.167969 0-130.667969-58.503907-130.667969-130.667969v-74.289062c0-72.167969 58.503907-130.667969 130.667969-130.667969 72.167969 0 130.667969 58.503906 130.667969 130.667969v74.289062c0 72.164062-58.5 130.667969-130.667969 130.667969zm0 0" fill="#fc7070"/><path d="m155.332031 222.28125v-74.289062c0-67.09375 50.566407-122.363282 115.667969-129.804688-4.921875-.566406-9.925781-.863281-15-.863281-72.167969 0-130.667969 58.5-130.667969 130.667969v74.289062c0 72.167969 58.503907 130.667969 130.667969 130.667969 5.074219 0 10.078125-.296875 15-.859375-65.101562-7.445313-115.667969-62.714844-115.667969-129.808594zm0 0" fill="#f74b4b"/><path d="m256 308.183594c-15.332031 0-37.578125 28.085937-72.078125 23.101562 0 0 22.078125 48.214844 32.078125 47.714844s7.5-26.050781 7.5-26.050781 11.5 58.71875 32.5 58.71875 32.5-58.71875 32.5-58.71875-2.5 25.550781 7.5 26.050781 32.078125-47.714844 32.078125-47.714844c-34.5 4.984375-56.746094-23.101562-72.078125-23.101562zm0 0" fill="#3e4852"/><path d="m256 284.007812c30.578125 0 55.648438-23.582031 58.023438-53.550781.199218-2.519531-1.855469-4.65625-4.386719-4.65625h-107.273438c-2.53125 0-4.585937 2.136719-4.386719 4.65625 2.375 29.96875 27.445313 53.550781 58.023438 53.550781zm0 0" fill="#3e4852"/><path d="m293.867188 269.996094c-9.960938-9.171875-23.257813-14.777344-37.867188-14.777344s-27.90625 5.605469-37.867188 14.777344c10.179688 8.730468 23.402344 14.011718 37.867188 14.011718s27.6875-5.28125 37.867188-14.011718zm0 0" fill="#8f64ac"/><path d="m128.109375 1.769531 4.367187 17.09375c5.707032 22.359375 21.933594 40.539063 43.5 48.746094 17.175782 6.535156 22.835938 28.019531 11.113282 42.171875-8.980469 10.84375-24.820313 12.894531-36.265625 4.699219l-6.332031-4.535157c-22.671876-16.234374-33.726563-44.246093-28.257813-71.589843l7.292969-36.464844c.488281-2.453125 3.960937-2.542969 4.582031-.121094zm0 0" fill="#3e4852"/><path d="m187.089844 109.78125c3.234375-3.902344 5.136718-8.363281 5.851562-12.914062-13.304687-1.773438-40.5-5.347657-53.273437-19.199219-12.035157-13.050781-14.398438-75.417969-14.339844-77.6132815-.839844.1757815-1.59375.7890625-1.800781 1.8359375l-7.292969 36.464844c-5.46875 27.34375 5.585937 55.355469 28.257813 71.589843l6.332031 4.535157c11.445312 8.195312 27.285156 6.144531 36.265625-4.699219zm0 0" fill="#2e3b43"/><path d="m383.890625 1.769531-4.367187 17.09375c-5.707032 22.359375-21.933594 40.539063-43.5 48.746094-17.175782 6.535156-22.835938 28.019531-11.113282 42.171875 8.980469 10.84375 24.820313 12.894531 36.265625 4.699219l6.332031-4.535157c22.671876-16.234374 33.726563-44.246093 28.257813-71.589843l-7.292969-36.464844c-.488281-2.453125-3.960937-2.542969-4.582031-.121094zm0 0" fill="#3e4852"/><path d="m383.667969 59.773438c6-10.554688 2.007812-59.7187505 2.007812-59.7187505-.804687.1640625-1.53125.7265625-1.785156 1.7148435l-4.367187 17.09375c-5.707032 22.359375-21.933594 40.539063-43.5 48.746094-15.917969 6.058594-21.933594 24.949219-13.402344 38.949219 18.25-12.335938 56.496094-38.78125 61.046875-46.785156zm0 0" fill="#2e3b43"/></svg>