<svg height="512pt" viewBox="0 0 512 512" width="512pt" xmlns="http://www.w3.org/2000/svg"><path d="m512 256c0 141.386719-114.613281 256-256 256s-256-114.613281-256-256 114.613281-256 256-256 256 114.613281 256 256zm0 0" fill="#3e4852"/><path d="m256 512c127.035156 0 232.441406-92.539062 252.53125-213.882812-11.425781-22.636719-25.617188-39.480469-42.925781-42.117188-59.996094-9.128906-158.128907 111.09375-158.128907 111.09375h-102.953124s-98.132813-120.222656-158.128907-111.09375c-17.3125 2.632812-31.5 19.480469-42.925781 42.117188 20.089844 121.34375 125.496094 213.882812 252.53125 213.882812zm0 0" fill="#bff8ff"/><path d="m430.414062 200.976562c0 24.15625-19.585937 43.742188-43.746093 43.742188-24.15625 0-43.742188-19.585938-43.742188-43.742188 0-24.160156 19.585938-43.746093 43.742188-43.746093 24.160156 0 43.746093 19.585937 43.746093 43.746093zm0 0" fill="#e9ccae"/><path d="m110.332031 200.976562h291.339844v210.6875h-291.339844zm0 0" fill="#8f701e"/><path d="m142.234375 367.09375c-36.542969 0-68.117187 23.054688-80.203125 55.972656 46.949219 54.457032 116.429688 88.933594 193.96875 88.933594s147.019531-34.476562 193.96875-88.933594c-12.085938-32.917968-43.660156-55.972656-80.199219-55.972656zm0 0" fill="#fbfcf7"/><path d="m307.476562 367.09375v-118.789062h-102.953124v118.789062h-26.429688c0 43.027344 34.878906 77.90625 77.90625 77.90625s77.90625-34.878906 77.90625-77.90625zm0 0" fill="#ddc1a5"/><path d="m169.074219 200.976562c0 24.15625-19.585938 43.742188-43.742188 43.742188-24.160156 0-43.746093-19.585938-43.746093-43.742188 0-24.160156 19.585937-43.746093 43.746093-43.746093 24.15625 0 43.742188 19.585937 43.742188 43.746093zm0 0" fill="#ddc1a5"/><path d="m256 352.949219c-72.167969 0-130.667969-58.503907-130.667969-130.667969v-74.289062c0-72.167969 58.503907-130.667969 130.667969-130.667969 72.167969 0 130.667969 58.503906 130.667969 130.667969v74.289062c0 72.164062-58.5 130.667969-130.667969 130.667969zm0 0" fill="#f5d7b7"/><path d="m155.332031 222.28125v-74.289062c0-67.09375 50.566407-122.363282 115.667969-129.804688-4.921875-.566406-9.925781-.863281-15-.863281-72.167969 0-130.667969 58.5-130.667969 130.667969v74.289062c0 72.167969 58.503907 130.667969 130.667969 130.667969 5.074219 0 10.078125-.296875 15-.859375-65.101562-7.445313-115.667969-62.714844-115.667969-129.808594zm0 0" fill="#e9ccae"/><path d="m256 284.007812c30.578125 0 55.648438-23.582031 58.023438-53.550781.199218-2.519531-1.855469-4.65625-4.386719-4.65625h-107.273438c-2.53125 0-4.585937 2.136719-4.386719 4.65625 2.375 29.96875 27.445313 53.550781 58.023438 53.550781zm0 0" fill="#3e4852"/><path d="m293.867188 269.996094c-9.960938-9.171875-23.257813-14.777344-37.867188-14.777344s-27.90625 5.605469-37.867188 14.777344c10.179688 8.730468 23.402344 14.011718 37.867188 14.011718s27.6875-5.28125 37.867188-14.011718zm0 0" fill="#fd6e99"/><path d="m401.667969 147.992188c0-80.320313-65.347657-145.667969-145.667969-145.667969s-145.667969 65.347656-145.667969 145.667969v11.878906s51.667969-2.636719 77.417969-46.621094c0 0 52.25 102.75 213.917969 128.828125zm0 0" fill="#a18838"/><path d="m140.332031 147.992188c0-75.257813 57.367188-137.367188 130.667969-144.898438-4.933594-.507812-9.9375-.769531-15-.769531-80.320312 0-145.667969 65.347656-145.667969 145.667969v11.878906s13.425781-.6875 30-7.183594zm0 0" fill="#8f701e"/><path d="m419.667969 36.667969c0-20.25-73.277344-36.667969-163.667969-36.667969s-163.667969 16.417969-163.667969 36.667969 73.277344 36.667969 163.667969 36.667969 163.667969-16.417969 163.667969-36.667969zm0 0" fill="#fce46a"/><path d="m162.164062 36.667969c26.871094 4.402343 60.042969 6.820312 93.835938 6.820312s66.964844-2.417969 93.835938-6.820312c-25.367188-21.414063-58.117188-34.34375-93.835938-34.34375s-68.46875 12.929687-93.835938 34.34375zm0 0" fill="#a18838"/><path d="m270.964844 3.097656c-4.921875-.507812-9.914063-.773437-14.964844-.773437-35.71875 0-68.46875 12.929687-93.835938 34.34375 8.15625 1.335937 16.898438 2.488281 26.054688 3.445312 22.375-20.300781 51.070312-33.753906 82.746094-37.015625zm0 0" fill="#8f701e"/></svg>