<svg height="512pt" viewBox="0 0 512 512" width="512pt" xmlns="http://www.w3.org/2000/svg"><path d="m512 256c0 141.386719-114.613281 256-256 256s-256-114.613281-256-256 114.613281-256 256-256 256 114.613281 256 256zm0 0" fill="#92ebf1"/><g fill="#bff8ff"><path d="m510.667969 282.253906h-24.203125c-10.03125 0-18.164063 8.132813-18.164063 18.167969 0 10.03125-8.136719 18.167969-18.167969 18.167969h-17.800781c-10.035156 0-18.167969 8.132812-18.167969 18.164062 0 10.035156 8.132813 18.167969 18.167969 18.167969h59.847657c9.535156-22.742187 15.890624-47.148437 18.488281-72.667969zm0 0"/><path d="m156.742188 250.679688h-156.6757818c-.0351562 1.769531-.0664062 3.542968-.0664062 5.320312 0 23.308594 3.132812 45.882812 8.972656 67.34375h39.785156c10.035157 0 18.167969-8.132812 18.167969-18.164062 0-10.035157 8.132813-18.167969 18.167969-18.167969h71.652344c10.03125 0 18.164062-8.132813 18.164062-18.167969 0-10.03125-8.132812-18.164062-18.167968-18.164062zm0 0"/><path d="m177.667969 175.398438c0-10.03125 8.132812-18.167969 18.167969-18.167969h189.664062c10.03125 0 18.167969 8.132812 18.167969 18.167969 0 10.035156 8.132812 18.167968 18.167969 18.167968h45c10.03125 0 18.164062 8.132813 18.164062 18.167969 0 10.03125-8.132812 18.164063-18.164062 18.164063h-12.824219c-10.035157 0-18.167969 8.132812-18.167969 18.167968s-8.132812 18.167969-18.167969 18.167969h-180.074219c-10.03125 0-18.164062-8.132813-18.164062-18.167969 0-10.03125 8.132812-18.167968 18.164062-18.167968h12.824219c10.035157 0 18.167969-8.132813 18.167969-18.164063 0-10.035156-8.132812-18.167969-18.167969-18.167969h-54.59375c-10.03125 0-18.164062-8.132812-18.164062-18.167968zm0 0"/><path d="m301.96875 152.261719h-27.800781c-10.035157 0-18.167969-8.132813-18.167969-18.164063 0-10.035156-8.132812-18.167968-18.167969-18.167968h-196.125c-7.535156 11.5-14.167969 23.644531-19.800781 36.332031h24.0625c10.03125 0 18.167969 8.132812 18.167969 18.167969 0 10.03125 8.132812 18.167968 18.164062 18.167968h219.667969c10.035156 0 18.167969-8.132812 18.167969-18.167968 0-10.035157-8.136719-18.167969-18.167969-18.167969zm0 0"/></g><path d="m120.332031 200.976562h271.339844v210.6875h-271.339844zm0 0" fill="#d14242"/><path d="m430.414062 200.976562c0 24.15625-19.585937 43.742188-43.746093 43.742188-24.15625 0-43.742188-19.585938-43.742188-43.742188 0-24.160156 19.585938-43.746093 43.742188-43.746093 24.160156 0 43.746093 19.585937 43.746093 43.746093zm0 0" fill="#e9ccae"/><path d="m204.523438 248.304688h102.953124v138.222656h-102.953124zm0 0" fill="#ddc1a5"/><path d="m142.234375 367.09375c-36.542969 0-68.117187 23.054688-80.203125 55.972656 46.949219 54.457032 116.429688 88.933594 193.96875 88.933594s147.019531-34.476562 193.96875-88.933594c-12.085938-32.917968-43.660156-55.972656-80.199219-55.972656zm0 0" fill="#ddc1a5"/><path d="m169.074219 200.976562c0 24.15625-19.585938 43.742188-43.742188 43.742188-24.160156 0-43.746093-19.585938-43.746093-43.742188 0-24.160156 19.585937-43.746093 43.746093-43.746093 24.15625 0 43.742188 19.585937 43.742188 43.746093zm0 0" fill="#ddc1a5"/><path d="m256 352.949219c-72.167969 0-130.667969-58.503907-130.667969-130.667969v-74.289062c0-72.167969 58.503907-130.667969 130.667969-130.667969 72.167969 0 130.667969 58.503906 130.667969 130.667969v74.289062c0 72.164062-58.5 130.667969-130.667969 130.667969zm0 0" fill="#f5d7b7"/><path d="m155.332031 222.28125v-74.289062c0-67.09375 50.566407-122.363282 115.667969-129.804688-4.921875-.566406-9.925781-.863281-15-.863281-72.167969 0-130.667969 58.5-130.667969 130.667969v74.289062c0 72.167969 58.503907 130.667969 130.667969 130.667969 5.074219 0 10.078125-.296875 15-.859375-65.101562-7.445313-115.667969-62.714844-115.667969-129.808594zm0 0" fill="#e9ccae"/><path d="m256 284.007812c30.578125 0 55.648438-23.582031 58.023438-53.550781.199218-2.519531-1.855469-4.65625-4.386719-4.65625h-107.273438c-2.53125 0-4.585937 2.136719-4.386719 4.65625 2.375 29.96875 27.445313 53.550781 58.023438 53.550781zm0 0" fill="#3e4852"/><path d="m293.867188 269.996094c-9.960938-9.171875-23.257813-14.777344-37.867188-14.777344s-27.90625 5.605469-37.867188 14.777344c10.179688 8.730468 23.402344 14.011718 37.867188 14.011718s27.6875-5.28125 37.867188-14.011718zm0 0" fill="#fd6e99"/><path d="m256 2.324219c-80.320312 0-145.667969 65.347656-145.667969 145.667969v11.878906s72.667969 10 91.335938-72.871094c69.332031 108.667969 200 72.871094 200 72.871094v-11.878906c0-80.320313-65.347657-145.667969-145.667969-145.667969zm0 0" fill="#f74b4b"/><path d="m433.847656 90.320312-14.84375 29.140626c-1.621094 3.179687-1.011718 7.042968 1.515625 9.570312l23.121094 23.121094c5.648437 5.648437.769531 15.21875-7.117187 13.96875l-32.296876-5.113282c-3.527343-.558593-7.011718 1.214844-8.632812 4.398438l-14.847656 29.136719c-3.625 7.113281-14.234375 5.433593-15.484375-2.449219l-5.117188-32.300781c-.558593-3.527344-3.324219-6.292969-6.851562-6.851563l-32.300781-5.117187c-7.882813-1.25-9.566407-11.859375-2.449219-15.484375l29.136719-14.847656c3.183593-1.621094 4.957031-5.105469 4.398437-8.632813l-5.113281-32.296875c-1.25-7.886719 8.320312-12.765625 13.96875-7.117188l23.121094 23.121094c2.527343 2.527344 6.390624 3.136719 9.570312 1.519532l29.140625-14.847657c7.113281-3.628906 14.707031 3.96875 11.082031 11.082031zm0 0" fill="#fce46a"/><path d="m140.332031 147.992188c0-75.257813 57.367188-137.367188 130.667969-144.898438-4.933594-.507812-9.9375-.769531-15-.769531-80.320312 0-145.667969 65.347656-145.667969 145.667969v11.878906s13.308594 1.828125 30-2.574219zm0 0" fill="#d14242"/><path d="m256 512c48.144531 0 93.179688-13.300781 131.644531-36.410156-9.21875-31.609375-38.367187-54.96875-72.664062-55.425782-13.300781-.175781-25.832031 3.035157-36.796875 8.820313-13.929688 7.359375-30.441406 7.359375-44.371094 0-10.960938-5.785156-23.492188-8.996094-36.792969-8.820313-34.296875.457032-63.445312 23.816407-72.667969 55.425782 38.46875 23.109375 83.503907 36.410156 131.648438 36.410156zm0 0" fill="#8f64ac"/><path d="m154.355469 475.589844c7.945312-27.238282 30.691406-48.332032 58.769531-53.945313-5.199219-1.035156-10.585938-1.554687-16.105469-1.480469-34.296875.457032-63.445312 23.816407-72.664062 55.425782 8.496093 5.101562 17.3125 9.726562 26.414062 13.835937.699219-4.152343 1.875-8.746093 3.585938-13.835937zm0 0" fill="#7c549b"/><path d="m350.496094 68.4375c-2.46875 1.648438-4.09375 4.578125-3.535156 8.121094l5.117187 32.300781c.558594 3.527344-1.21875 7.011719-4.398437 8.632813l-29.140626 14.847656c-7.113281 3.625-5.433593 14.234375 2.453126 15.484375l32.300781 5.117187c3.527343.558594 6.292969 3.324219 6.851562 6.847656l5.117188 32.300782c.566406 3.59375 3.082031 5.878906 5.992187 6.652344l12.652344-67.519532c.609375-3.242187.015625-6.597656-1.671875-9.433594zm0 0" fill="#ffb82c"/></svg>