<svg height="512pt" viewBox="0 0 512 512" width="512pt" xmlns="http://www.w3.org/2000/svg"><path d="m512 256c0 141.386719-114.613281 256-256 256s-256-114.613281-256-256 114.613281-256 256-256 256 114.613281 256 256zm0 0" fill="#63e7ae"/><path d="m404.632812 235.269531h-66.6875c-6.597656 0-11.945312-5.347656-11.945312-11.945312v-66.691407c0-6.597656 5.347656-11.945312 11.945312-11.945312h66.6875c6.597657 0 11.945313 5.347656 11.945313 11.945312v66.691407c0 6.597656-5.347656 11.945312-11.945313 11.945312zm0 0" fill="#787a86"/><path d="m174.054688 235.269531h-66.6875c-6.597657 0-11.945313-5.347656-11.945313-11.945312v-66.691407c0-6.597656 5.347656-11.945312 11.945313-11.945312h66.6875c6.597656 0 11.945312 5.347656 11.945312 11.945312v66.691407c0 6.597656-5.347656 11.945312-11.945312 11.945312zm0 0" fill="#606166"/><path d="m202.703125 238.980469h106.59375v172.519531h-106.59375zm0 0" fill="#606166"/><path d="m256 .113281c73.492188 0 133.070312 59.574219 133.070312 133.070313v75.535156c0 73.492188-59.578124 133.070312-133.070312 133.070312s-133.070312-59.574218-133.070312-133.070312v-75.535156c0-73.496094 59.578124-133.070313 133.070312-133.070313zm0 0" fill="#999ca3"/><path d="m152.929688 208.71875v-75.535156c0-68.421875 51.640624-124.773438 118.070312-132.226563-4.925781-.550781-9.929688-.84375-15-.84375-73.492188 0-133.070312 59.574219-133.070312 133.070313v75.535156c0 73.492188 59.578124 133.070312 133.070312 133.070312 5.070312 0 10.074219-.292968 15-.84375-66.429688-7.457031-118.070312-63.804687-118.070312-132.226562zm0 0" fill="#787a86"/><path d="m373.789062 361.972656h-235.578124c-36.535157 0-68.273438 22.261719-81.675782 54.476563 46.925782 58.261719 118.832032 95.550781 199.464844 95.550781s152.539062-37.289062 199.464844-95.546875c-13.40625-32.21875-45.140625-54.480469-81.675782-54.480469zm0 0" fill="#999ca3"/><path d="m138.210938 361.972656c-36.535157 0-68.273438 22.261719-81.675782 54.476563 46.925782 58.261719 118.832032 95.550781 199.464844 95.550781v-150.027344zm0 0" fill="#787a86"/><path d="m288.757812 287.902344h-65.515624c-15.09375 0-27.332032-12.234375-27.332032-27.328125v-25.710938c0-3.992187 3.238282-7.226562 7.226563-7.226562h105.726562c3.992188 0 7.226563 3.234375 7.226563 7.226562v25.710938c0 15.09375-12.238282 27.328125-27.332032 27.328125zm0 0" fill="#4adbf0"/><path d="m296.5 439.546875c0 22.367187-18.132812 40.5-40.5 40.5s-40.5-18.132813-40.5-40.5 18.132812-40.5 40.5-40.5 40.5 18.132813 40.5 40.5zm0 0" fill="#92ebf1"/><path d="m245.5 439.546875c0-17.066406 10.5625-31.65625 25.5-37.617187-4.640625-1.855469-9.699219-2.882813-15-2.882813-22.367188 0-40.5 18.132813-40.5 40.5s18.132812 40.5 40.5 40.5c5.300781 0 10.359375-1.027344 15-2.882813-14.9375-5.960937-25.5-20.550781-25.5-37.617187zm0 0" fill="#4adbf0"/><g fill="#92ebf1"><path d="m219 227.640625h15v60.261719h-15zm0 0"/><path d="m248.5 227.640625h15v60.261719h-15zm0 0"/><path d="m278 227.640625h15v60.261719h-15zm0 0"/></g></svg>