<svg height="512pt" viewBox="0 0 512 512" width="512pt" xmlns="http://www.w3.org/2000/svg"><path d="m512 256c0 141.386719-114.613281 256-256 256s-256-114.613281-256-256 114.613281-256 256-256 256 114.613281 256 256zm0 0" fill="#92ebf1"/><g fill="#bff8ff"><path d="m510.667969 282.253906h-24.203125c-10.03125 0-18.164063 8.132813-18.164063 18.167969 0 10.03125-8.136719 18.167969-18.167969 18.167969h-17.800781c-10.035156 0-18.167969 8.132812-18.167969 18.164062 0 10.035156 8.132813 18.167969 18.167969 18.167969h59.847657c9.535156-22.742187 15.890624-47.148437 18.488281-72.667969zm0 0"/><path d="m156.742188 250.679688h-156.6757818c-.0351562 1.769531-.0664062 3.542968-.0664062 5.320312 0 23.308594 3.132812 45.882812 8.972656 67.34375h39.785156c10.035157 0 18.167969-8.132812 18.167969-18.164062 0-10.035157 8.132813-18.167969 18.167969-18.167969h71.652344c10.03125 0 18.164062-8.132813 18.164062-18.167969 0-10.03125-8.132812-18.164062-18.167968-18.164062zm0 0"/><path d="m177.667969 175.398438c0-10.03125 8.132812-18.167969 18.167969-18.167969h189.664062c10.03125 0 18.167969 8.132812 18.167969 18.167969 0 10.035156 8.132812 18.167968 18.167969 18.167968h45c10.03125 0 18.164062 8.132813 18.164062 18.167969 0 10.03125-8.132812 18.164063-18.164062 18.164063h-12.824219c-10.035157 0-18.167969 8.132812-18.167969 18.167968s-8.132812 18.167969-18.167969 18.167969h-180.074219c-10.03125 0-18.164062-8.132813-18.164062-18.167969 0-10.03125 8.132812-18.167968 18.164062-18.167968h12.824219c10.035157 0 18.167969-8.132813 18.167969-18.164063 0-10.035156-8.132812-18.167969-18.167969-18.167969h-54.59375c-10.03125 0-18.164062-8.132812-18.164062-18.167968zm0 0"/><path d="m301.96875 152.261719h-27.800781c-10.035157 0-18.167969-8.132813-18.167969-18.164063 0-10.035156-8.132812-18.167968-18.167969-18.167968h-196.125c-7.535156 11.5-14.167969 23.644531-19.800781 36.332031h24.0625c10.03125 0 18.167969 8.132812 18.167969 18.167969 0 10.03125 8.132812 18.167968 18.164062 18.167968h219.667969c10.035156 0 18.167969-8.132812 18.167969-18.167968 0-10.035157-8.136719-18.167969-18.167969-18.167969zm0 0"/></g><path d="m449.96875 423.066406c-12.085938-32.917968-43.660156-55.972656-80.203125-55.972656h-227.53125c-36.542969 0-68.117187 23.054688-80.199219 55.972656 46.945313 54.457032 116.425782 88.933594 193.964844 88.933594s147.019531-34.476562 193.96875-88.933594zm0 0" fill="#f74b4b"/><path d="m204.523438 507.511719c16.71875 2.9375 33.914062 4.488281 51.476562 4.488281s34.757812-1.550781 51.476562-4.488281v-140.417969h-102.953124zm0 0" fill="#fbfcf7"/><path d="m204.523438 367.09375v140.421875c16.71875 2.933594 33.914062 4.484375 51.476562 4.484375v-144.90625zm0 0" fill="#e2e6e7"/><path d="m430.414062 200.976562c0 24.15625-19.585937 43.742188-43.746093 43.742188-24.15625 0-43.742188-19.585938-43.742188-43.742188 0-24.160156 19.585938-43.746093 43.742188-43.746093 24.160156 0 43.746093 19.585937 43.746093 43.746093zm0 0" fill="#e9ccae"/><path d="m169.074219 200.976562c0 24.15625-19.585938 43.742188-43.742188 43.742188-24.160156 0-43.746093-19.585938-43.746093-43.742188 0-24.160156 19.585937-43.746093 43.746093-43.746093 24.15625 0 43.742188 19.585937 43.742188 43.746093zm0 0" fill="#ddc1a5"/><path d="m256 352.949219c-72.167969 0-130.667969-58.503907-130.667969-130.667969v-74.289062c0-72.167969 58.503907-130.667969 130.667969-130.667969 72.167969 0 130.667969 58.503906 130.667969 130.667969v74.289062c0 72.167969-58.5 130.667969-130.667969 130.667969zm0 0" fill="#f5d7b7"/><path d="m262.589844 17.324219h-13.179688c-74.195312 0-134.34375 60.144531-134.34375 134.339843h281.867188c0-74.191406-60.148438-134.339843-134.34375-134.339843zm0 0" fill="#f74b4b"/><path d="m271 17.59375c-2.78125-.171875-5.585938-.269531-8.410156-.269531h-13.179688c-74.195312 0-134.34375 60.144531-134.34375 134.339843h30c0-71.367187 55.65625-129.730468 125.933594-134.070312zm0 0" fill="#d14242"/><path d="m374.601562 173.617188c4.359376 33.804687 3.96875 67.558593-14.980468 67.558593-37.960938 0-15.464844-28.300781-103.621094-28.300781s-65.660156 28.300781-103.621094 28.300781c-18.949218 0-19.339844-33.753906-14.980468-67.558593h-28.242188c-.441406 10.628906-.734375 21.113281-.734375 30.273437 0 114.753906 27.46875 213.21875 38.582031 213.21875 11.109375 0 16.789063-30.410156 16.789063-30.410156s15.34375 60.1875 31.238281 60.1875 21.574219-29.777344 21.574219-29.777344 16.886719 54.085937 39.394531 54.085937 39.390625-54.085937 39.390625-54.085937 5.679687 29.777344 21.574219 29.777344c15.894531 0 31.242187-60.1875 31.242187-60.1875s5.679688 30.410156 16.789063 30.410156 38.578125-98.464844 38.578125-213.21875c0-9.160156-.289063-19.644531-.734375-30.273437zm0 0" fill="#3e4852"/><path d="m140.972656 234.667969c-7.40625-11.414063-6.777344-36.207031-3.574218-61.050781h-28.242188c-.441406 10.628906-.734375 21.113281-.734375 30.273437 0 114.753906 27.46875 213.21875 38.582031 213.21875 10.992188 0 16.664063-29.757813 16.78125-30.378906-9.820312-32.632813-20.164062-88.453125-22.8125-152.0625zm0 0" fill="#2e3b43"/><path d="m256 295.554688c30.578125 0 55.648438-23.578126 58.023438-53.546876.199218-2.523437-1.855469-4.660156-4.386719-4.660156h-107.273438c-2.53125 0-4.585937 2.136719-4.386719 4.660156 2.375 29.96875 27.445313 53.546876 58.023438 53.546876zm0 0" fill="#212d33"/><path d="m293.867188 281.542969c-9.960938-9.171875-23.257813-14.777344-37.867188-14.777344s-27.90625 5.605469-37.867188 14.777344c10.179688 8.730469 23.402344 14.011719 37.867188 14.011719s27.6875-5.277344 37.867188-14.011719zm0 0" fill="#fd6e99"/><path d="m385.414062 51.929688v63.554687c0 2.308594-1.875 4.183594-4.1875 4.183594h-10.460937c-2.3125 0-4.183594-1.875-4.183594-4.183594v-74.523437c0-3.84375-4.746093-5.65625-7.304687-2.789063l-36.632813 40.972656c-.683593.765625-1.0625 1.757813-1.0625 2.789063v33.550781c0 2.3125-1.875 4.183594-4.1875 4.183594h-12.210937c-2.3125 0-4.183594-1.871094-4.183594-4.183594v-63.554687c0-1.027344-.378906-2.019532-1.066406-2.789063l-40.8125-45.652344c-1.664063-1.859375-4.578125-1.859375-6.242188 0l-40.8125 45.652344c-.6875.769531-1.066406 1.761719-1.066406 2.789063v63.554687c0 2.308594-1.875 4.183594-4.183594 4.183594h-12.214844c-2.308593 0-4.183593-1.875-4.183593-4.183594v-33.554687c0-1.027344-.378907-2.019532-1.066407-2.789063l-36.628906-40.96875c-2.5625-2.867187-7.304687-1.054687-7.304687 2.789063v74.523437c0 2.308594-1.875 4.183594-4.183594 4.183594h-10.464844c-2.308593 0-4.183593-1.875-4.183593-4.183594v-63.554687c0-1.027344-.378907-2.019532-1.066407-2.789063l-36.628906-40.96875c-2.558594-2.867187-7.304687-1.054687-7.304687 2.789063v166.527343c0 2.308594 1.875 4.183594 4.1875 4.183594h340.453124c2.3125 0 4.1875-1.875 4.1875-4.183594v-166.527343c0-3.84375-4.746093-5.65625-7.304687-2.789063l-36.632813 40.972656c-.683593.765625-1.0625 1.757813-1.0625 2.785157zm0 0" fill="#ffb82c"/><path d="m111.585938 177.488281v-143.933593l-22.695313-25.382813c-2.558594-2.867187-7.304687-1.054687-7.304687 2.789063v166.527343c0 2.308594 1.875 4.183594 4.1875 4.183594h30c-2.3125 0-4.1875-1.875-4.1875-4.183594zm0 0" fill="#f08d0b"/><path d="m252.59375 42.679688-17.554688 25.925781c-.460937.679687-.707031 1.484375-.707031 2.304687v45.945313c0 .820312.246094 1.625.707031 2.304687l17.554688 25.925782c1.632812 2.410156 5.179688 2.410156 6.808594 0l17.558594-25.925782c.460937-.679687.703124-1.484375.703124-2.304687v-45.945313c0-.820312-.242187-1.625-.703124-2.304687l-17.558594-25.925781c-1.628906-2.410157-5.175782-2.410157-6.808594 0zm0 0" fill="#8f64ac"/><path d="m255.039062 119.160156c-.460937-.679687-.707031-1.484375-.707031-2.304687v-45.945313c0-.820312.246094-1.625.707031-2.304687l10.960938-16.183594-6.597656-9.742187c-1.628906-2.410157-5.175782-2.410157-6.808594 0l-17.554688 25.925781c-.460937.679687-.707031 1.484375-.707031 2.304687v45.945313c0 .820312.246094 1.625.707031 2.304687l17.554688 25.925782c1.632812 2.410156 5.179688 2.410156 6.808594 0l6.597656-9.738282zm0 0" fill="#7c549b"/><path d="m405.960938 151.667969c0 8.652343-7.015626 15.667969-15.671876 15.667969-8.652343 0-15.667968-7.015626-15.667968-15.667969 0-8.65625 7.015625-15.671875 15.667968-15.671875 8.65625 0 15.671876 7.015625 15.671876 15.671875zm0 0" fill="#fce46a"/><path d="m338.8125 151.667969c0 8.652343-7.015625 15.667969-15.667969 15.667969-8.652343 0-15.667969-7.015626-15.667969-15.667969 0-8.65625 7.015626-15.671875 15.667969-15.671875 8.652344 0 15.667969 7.015625 15.667969 15.671875zm0 0" fill="#fce46a"/><path d="m204.523438 151.667969c0 8.652343-7.015626 15.667969-15.667969 15.667969-8.652344 0-15.667969-7.015626-15.667969-15.667969 0-8.65625 7.015625-15.671875 15.667969-15.671875 8.652343 0 15.667969 7.015625 15.667969 15.671875zm0 0" fill="#fce46a"/><path d="m137.378906 151.667969c0 8.652343-7.015625 15.667969-15.667968 15.667969-8.65625 0-15.671876-7.015626-15.671876-15.667969 0-8.65625 7.015626-15.671875 15.671876-15.671875 8.652343 0 15.667968 7.015625 15.667968 15.671875zm0 0" fill="#fce46a"/></svg>