<svg height="512pt" viewBox="0 0 512 512" width="512pt" xmlns="http://www.w3.org/2000/svg"><path d="m512 256c0 141.386719-114.613281 256-256 256s-256-114.613281-256-256 114.613281-256 256-256 256 114.613281 256 256zm0 0" fill="#63e7ae"/><g fill="#7ef8c5"><path d="m510.667969 282.253906h-24.203125c-10.03125 0-18.164063 8.132813-18.164063 18.167969 0 10.03125-8.136719 18.167969-18.167969 18.167969h-17.800781c-10.035156 0-18.167969 8.132812-18.167969 18.164062 0 10.035156 8.132813 18.167969 18.167969 18.167969h59.847657c9.535156-22.742187 15.890624-47.148437 18.488281-72.667969zm0 0"/><path d="m156.742188 250.679688h-156.6757818c-.0351562 1.769531-.0664062 3.542968-.0664062 5.320312 0 23.308594 3.132812 45.882812 8.972656 67.34375h39.785156c10.035157 0 18.167969-8.132812 18.167969-18.164062 0-10.035157 8.132813-18.167969 18.167969-18.167969h71.652344c10.03125 0 18.164062-8.132813 18.164062-18.167969 0-10.03125-8.132812-18.164062-18.167968-18.164062zm0 0"/><path d="m177.667969 175.398438c0-10.03125 8.132812-18.167969 18.167969-18.167969h189.664062c10.03125 0 18.167969 8.132812 18.167969 18.167969 0 10.035156 8.132812 18.167968 18.167969 18.167968h45c10.03125 0 18.164062 8.132813 18.164062 18.167969 0 10.03125-8.132812 18.164063-18.164062 18.164063h-12.824219c-10.035157 0-18.167969 8.132812-18.167969 18.167968s-8.132812 18.167969-18.167969 18.167969h-180.074219c-10.03125 0-18.164062-8.132813-18.164062-18.167969 0-10.03125 8.132812-18.167968 18.164062-18.167968h12.824219c10.035157 0 18.167969-8.132813 18.167969-18.164063 0-10.035156-8.132812-18.167969-18.167969-18.167969h-54.59375c-10.03125 0-18.164062-8.132812-18.164062-18.167968zm0 0"/><path d="m301.96875 152.261719h-27.800781c-10.035157 0-18.167969-8.132813-18.167969-18.164063 0-10.035156-8.132812-18.167968-18.167969-18.167968h-196.125c-7.535156 11.5-14.167969 23.644531-19.800781 36.332031h24.0625c10.03125 0 18.167969 8.132812 18.167969 18.167969 0 10.03125 8.132812 18.167968 18.164062 18.167968h219.667969c10.035156 0 18.167969-8.132812 18.167969-18.167968 0-10.035157-8.136719-18.167969-18.167969-18.167969zm0 0"/></g><path d="m256 411.667969c-80.449219 0-145.671875-65.21875-145.671875-145.671875v-65.019532h291.339844v65.019532c0 80.453125-65.21875 145.671875-145.667969 145.671875zm0 0" fill="#8f701e"/><path d="m142.234375 367.09375c-36.542969 0-68.117187 23.054688-80.203125 55.972656 46.949219 54.457032 116.429688 88.933594 193.96875 88.933594s147.019531-34.476562 193.96875-88.933594c-12.085938-32.917968-43.660156-55.972656-80.199219-55.972656zm0 0" fill="#8f64ac"/><path d="m198.339844 361.78125c-12.769532 0-23.117188 10.347656-23.117188 23.117188 0 7.519531 3.605469 14.179687 9.167969 18.402343-.929687 3.027344-1.429687 6.246094-1.429687 9.578125 0 17.996094 14.589843 32.589844 32.589843 32.589844.320313 0 .640625-.015625.960938-.027344 6.691406 15.164063 21.847656 25.753906 39.488281 25.753906s32.796875-10.589843 39.488281-25.753906c.320313.011719.640625.027344.960938.027344 18 0 32.589843-14.59375 32.589843-32.589844 0-3.335937-.5-6.550781-1.429687-9.578125 5.5625-4.222656 9.167969-10.882812 9.167969-18.402343 0-12.769532-10.347656-23.117188-23.117188-23.117188zm0 0" fill="#fbfcf7"/><path d="m204.523438 248.304688v118.789062c0 28.429688 23.046874 51.476562 51.476562 51.476562s51.476562-23.046874 51.476562-51.476562v-118.789062zm0 0" fill="#ddc1a5"/><path d="m430.414062 200.976562c0 24.15625-19.585937 43.742188-43.746093 43.742188-24.15625 0-43.742188-19.585938-43.742188-43.742188 0-24.160156 19.585938-43.746093 43.742188-43.746093 24.160156 0 43.746093 19.585937 43.746093 43.746093zm0 0" fill="#e9ccae"/><path d="m169.074219 200.976562c0 24.15625-19.585938 43.742188-43.742188 43.742188-24.160156 0-43.746093-19.585938-43.746093-43.742188 0-24.160156 19.585937-43.746093 43.746093-43.746093 24.15625 0 43.742188 19.585937 43.742188 43.746093zm0 0" fill="#ddc1a5"/><path d="m256 352.949219c-72.167969 0-130.667969-58.503907-130.667969-130.667969v-74.289062c0-72.167969 58.503907-130.667969 130.667969-130.667969 72.167969 0 130.667969 58.503906 130.667969 130.667969v74.289062c0 72.164062-58.5 130.667969-130.667969 130.667969zm0 0" fill="#f5d7b7"/><path d="m155.332031 222.28125v-74.289062c0-67.09375 50.566407-122.363282 115.667969-129.804688-4.921875-.566406-9.925781-.863281-15-.863281-72.167969 0-130.667969 58.5-130.667969 130.667969v74.289062c0 72.167969 58.503907 130.667969 130.667969 130.667969 5.074219 0 10.078125-.296875 15-.859375-65.101562-7.445313-115.667969-62.714844-115.667969-129.808594zm0 0" fill="#e9ccae"/><path d="m256 284.007812c30.578125 0 55.648438-23.582031 58.023438-53.550781.199218-2.519531-1.855469-4.65625-4.386719-4.65625h-107.273438c-2.53125 0-4.585937 2.136719-4.386719 4.65625 2.375 29.96875 27.445313 53.550781 58.023438 53.550781zm0 0" fill="#3e4852"/><path d="m293.867188 269.996094c-9.960938-9.171875-23.257813-14.777344-37.867188-14.777344s-27.90625 5.605469-37.867188 14.777344c10.179688 8.730468 23.402344 14.011718 37.867188 14.011718s27.6875-5.28125 37.867188-14.011718zm0 0" fill="#fd6e99"/><path d="m256 2.324219c-80.320312 0-145.667969 65.347656-145.667969 145.667969v11.878906s82.667969 16.636718 145.667969-48.460938c63 65.097656 145.667969 48.460938 145.667969 48.460938v-11.878906c0-80.320313-65.347657-145.667969-145.667969-145.667969zm0 0" fill="#a18838"/><path d="m140.332031 147.992188c0-75.257813 57.367188-137.367188 130.667969-144.898438-4.933594-.507812-9.9375-.769531-15-.769531-80.320312 0-145.667969 65.347656-145.667969 145.667969v11.878906s11.789063 2.371094 29.855469 1.816406zm0 0" fill="#8f701e"/><path d="m401.332031 99.472656h-66.355469c-1.25 0-2.265624-1.015625-2.265624-2.269531v-52.648437c0-1.871094-2.140626-2.9375-3.632813-1.808594l-29.417969 22.242187c-.566406.425781-.898437 1.097657-.898437 1.808594v30.40625c0 1.253906-1.015625 2.269531-2.269531 2.269531h-5.464844c-1.25 0-2.265625-1.015625-2.265625-2.269531v-53.433594c0-24.171875-14.667969-43.769531-32.761719-43.769531s-32.761719 19.597656-32.761719 43.769531v53.433594c0 1.253906-1.015625 2.269531-2.265625 2.269531h-5.464844c-1.253906 0-2.269531-1.015625-2.269531-2.269531v-30.40625c0-.710937-.332031-1.382813-.898437-1.808594l-29.417969-22.242187c-1.492187-1.128906-3.632813-.0625-3.632813 1.808594v52.648437c0 1.253906-1.015624 2.269531-2.265624 2.269531h-66.355469c-1.65625 0-3 1.34375-3 3v27.945313c0 1.660156 1.34375 3.003906 3 3.003906h290.664062c1.65625 0 3-1.34375 3-3.003906v-27.945313c0-1.65625-1.34375-3-3-3zm0 0" fill="#ffb82c"/><path d="m137.667969 130.417969v-27.945313c0-1.65625 1.34375-3 3-3h-30c-1.65625 0-3 1.34375-3 3v27.945313c0 1.660156 1.34375 3.003906 3 3.003906h30c-1.65625 0-3-1.34375-3-3.003906zm0 0" fill="#f08d0b"/><path d="m275.257812 43.769531c0-14.207031-8.621093-25.726562-19.257812-25.726562s-19.257812 11.519531-19.257812 25.726562c0 14.210938 8.621093 25.730469 19.257812 25.730469s19.257812-11.519531 19.257812-25.730469zm0 0" fill="#f74b4b"/><path d="m251.742188 43.769531c0-10.652343 4.847656-19.796875 11.757812-23.703125-2.304688-1.304687-4.839844-2.023437-7.5-2.023437-10.636719 0-19.257812 11.519531-19.257812 25.726562 0 14.210938 8.621093 25.730469 19.257812 25.730469 2.660156 0 5.195312-.722656 7.5-2.023438-6.910156-3.910156-11.757812-13.050781-11.757812-23.707031zm0 0" fill="#d14242"/></svg>