<svg height="512pt" viewBox="0 0 512 512" width="512pt" xmlns="http://www.w3.org/2000/svg"><path d="m512 256c0 141.386719-114.613281 256-256 256s-256-114.613281-256-256 114.613281-256 256-256 256 114.613281 256 256zm0 0" fill="#f74b4b"/><path d="m449.953125 423.085938c-12.082031-32.921876-43.652344-55.976563-80.195313-55.976563h-227.515624c-36.539063 0-68.113282 23.054687-80.195313 55.976563 46.945313 54.445312 116.421875 88.914062 193.953125 88.914062s147.007812-34.46875 193.953125-88.914062zm0 0" fill="#3e4852"/><path d="m142.242188 367.105469c-36.539063 0-68.113282 23.058593-80.195313 55.980469 46.945313 54.445312 116.421875 88.914062 193.953125 88.914062v-144.894531zm0 0" fill="#2e3b43"/><path d="m278.332031 461.886719c0 12.335937-9.996093 22.332031-22.332031 22.332031s-22.332031-9.996094-22.332031-22.332031c0-12.332031 9.996093-22.332031 22.332031-22.332031s22.332031 10 22.332031 22.332031zm0 0" fill="#5a606c"/><path d="m307.472656 367.105469v-118.777344h-102.945312v118.777344l51.472656 19.726562zm0 0" fill="#ddc1a5"/><path d="m430.398438 201.003906c0 24.15625-19.582032 43.738282-43.742188 43.738282-24.15625 0-43.738281-19.582032-43.738281-43.738282s19.582031-43.742187 43.738281-43.742187c24.160156 0 43.742188 19.585937 43.742188 43.742187zm0 0" fill="#e9ccae"/><path d="m169.082031 201.003906c0 24.15625-19.582031 43.738282-43.738281 43.738282-24.160156 0-43.742188-19.582032-43.742188-43.738282s19.582032-43.742187 43.742188-43.742187c24.15625 0 43.738281 19.585937 43.738281 43.742187zm0 0" fill="#ddc1a5"/><path d="m256 352.949219c-72.167969 0-130.667969-58.503907-130.667969-130.667969v-74.289062c0-72.167969 58.503907-130.667969 130.667969-130.667969 72.167969 0 130.667969 58.503906 130.667969 130.667969v74.289062c0 72.164062-58.5 130.667969-130.667969 130.667969zm0 0" fill="#f5d7b7"/><path d="m155.332031 222.28125v-74.289062c0-67.09375 50.566407-122.363282 115.667969-129.808594-4.921875-.5625-9.925781-.859375-15-.859375-72.167969 0-130.667969 58.5-130.667969 130.667969v74.289062c0 72.164062 58.503907 130.667969 130.667969 130.667969 5.074219 0 10.078125-.300781 15-.863281-65.101562-7.441407-115.667969-62.710938-115.667969-129.804688zm0 0" fill="#e9ccae"/><path d="m256 284.027344c30.574219 0 55.644531-23.578125 58.019531-53.542969.199219-2.523437-1.855469-4.660156-4.386719-4.660156h-107.265624c-2.53125 0-4.585938 2.136719-4.386719 4.660156 2.375 29.964844 27.445312 53.542969 58.019531 53.542969zm0 0" fill="#3e4852"/><path d="m293.867188 270.015625c-9.964844-9.167969-23.257813-14.773437-37.867188-14.773437s-27.902344 5.605468-37.867188 14.773437c10.179688 8.730469 23.40625 14.011719 37.867188 14.011719s27.6875-5.28125 37.867188-14.011719zm0 0" fill="#fd6e99"/><path d="m364.664062 119.445312s-57.003906-20.035156-108.664062-20.035156-108.664062 20.035156-108.664062 20.035156-15.585938 89.546876 4.898437 88.140626c20.488281-1.40625 60.121094-24.273438 103.765625-24.273438s83.277344 22.867188 103.765625 24.273438c20.484375 1.40625 4.898437-88.140626 4.898437-88.140626zm0 0" fill="#3e4852"/><path d="m177.335938 119.445312s46.566406-16.363281 93.664062-19.511718c-5.011719-.335938-10.03125-.523438-15-.523438-51.660156 0-108.664062 20.035156-108.664062 20.035156s-15.585938 89.546876 4.898437 88.140626c6.03125-.414063 13.726563-2.691407 22.683594-5.691407-8.53125-19.515625 2.417969-82.449219 2.417969-82.449219zm0 0" fill="#2e3b43"/><path d="m255.984375 0c-78.03125 0-138.046875 54.28125-154.160156 70.414062-2.671875 2.675782-3.652344 6.601563-2.578125 10.230469l15.644531 52.777344h282.21875l15.644531-52.777344c1.074219-3.625.09375-7.554687-2.582031-10.230469-16.117187-16.132812-76.15625-70.414062-154.1875-70.414062zm0 0" fill="#3e4852"/><path d="m141.824219 70.414062c14.707031-14.722656 65.992187-61.21875 134.160156-69.226562-6.519531-.765625-13.1875-1.1875-20-1.1875-78.03125 0-138.046875 54.28125-154.160156 70.414062-2.671875 2.675782-3.652344 6.601563-2.578125 10.230469l15.644531 52.777344h40l-15.644531-52.777344c-1.074219-3.628906-.09375-7.554687 2.578125-10.230469zm0 0" fill="#2e3b43"/><path d="m256 32.621094h-24.5c-3.640625 0-6.589844 2.949218-6.589844 6.589844v40.164062c0 2.324219 1.222656 4.476562 3.21875 5.664062l24.5 14.578126c2.078125 1.234374 4.664063 1.234374 6.738282 0l24.5-14.578126c1.996093-1.1875 3.222656-3.339843 3.222656-5.664062v-40.164062c0-3.640626-2.953125-6.589844-6.589844-6.589844zm0 0" fill="#e2e6e7"/><path d="m258.132812 85.039062c-1.996093-1.1875-3.222656-3.339843-3.222656-5.664062v-40.164062c0-3.640626 2.953125-6.589844 6.589844-6.589844h-30c-3.640625 0-6.589844 2.949218-6.589844 6.589844v40.164062c0 2.324219 1.222656 4.476562 3.21875 5.664062l24.5 14.578126c2.078125 1.234374 4.664063 1.234374 6.738282 0l11.632812-6.921876zm0 0" fill="#c1ccd0"/><path d="m399.953125 161.773438h-287.90625c-3.34375 0-6.058594-2.710938-6.058594-6.058594v-21.851563c0-3.347656 2.714844-6.058593 6.058594-6.058593h287.90625c3.34375 0 6.058594 2.710937 6.058594 6.058593v21.851563c0 3.347656-2.714844 6.058594-6.058594 6.058594zm0 0" fill="#ffb82c"/><path d="m135.988281 155.714844v-21.851563c0-3.347656 2.714844-6.058593 6.058594-6.058593h-30c-3.34375 0-6.058594 2.710937-6.058594 6.058593v21.851563c0 3.347656 2.714844 6.058594 6.058594 6.058594h30c-3.34375 0-6.058594-2.710938-6.058594-6.058594zm0 0" fill="#f08d0b"/><path d="m204.527344 342.421875-22.859375 24.683594 56.875 56.933593c1.449219 1.449219 3.917969.894532 4.605469-1.039062l12.851562-36.167969zm0 0" fill="#3e4852"/><path d="m307.472656 342.421875 22.859375 24.683594-56.875 56.933593c-1.449219 1.449219-3.917969.894532-4.605469-1.039062l-12.851562-36.167969zm0 0" fill="#5a606c"/></svg>