<svg height="512pt" viewBox="0 0 512 512.001" width="512pt" xmlns="http://www.w3.org/2000/svg"><path d="m512 256c0 141.386719-114.613281 256-256 256-141.382812 0-256-114.613281-256-256 0-141.382812 114.617188-256 256-256 141.386719 0 256 114.617188 256 256zm0 0" fill="#3e4852"/><path d="m375.359375 342.949219h-238.71875c-9.007813 0-16.308594-7.300781-16.308594-16.308594v-125.664063h271.335938v125.664063c0 9.007813-7.300781 16.308594-16.308594 16.308594zm0 0" fill="#f08d0b"/><path d="m142.234375 367.09375c-36.542969 0-68.113281 23.058594-80.199219 55.976562 46.945313 54.453126 116.425782 88.929688 193.964844 88.929688s147.023438-34.476562 193.96875-88.929688c-12.085938-32.917968-43.660156-55.976562-80.199219-55.976562zm0 0" fill="#fbfcf7"/><path d="m310.984375 461.886719c0 9.453125-7.664063 17.113281-17.113281 17.113281-9.453125 0-17.113282-7.660156-17.113282-17.113281 0-9.449219 7.660157-17.113281 17.113282-17.113281 9.449218 0 17.113281 7.664062 17.113281 17.113281zm0 0" fill="#e2e6e7"/><path d="m142.242188 367.109375c-36.539063 0-68.113282 23.054687-80.195313 55.976563 46.945313 54.445312 116.421875 88.914062 193.953125 88.914062v-144.890625zm0 0" fill="#e2e6e7"/><path d="m204.523438 248.304688v118.789062c0 28.429688 23.046874 51.476562 51.476562 51.476562s51.476562-23.046874 51.476562-51.476562v-118.789062zm0 0" fill="#ddc1a5"/><path d="m430.414062 200.976562c0 24.160157-19.585937 43.742188-43.746093 43.742188-24.15625 0-43.742188-19.582031-43.742188-43.742188 0-24.160156 19.585938-43.746093 43.742188-43.746093 24.160156 0 43.746093 19.585937 43.746093 43.746093zm0 0" fill="#e9ccae"/><path d="m169.074219 200.976562c0 24.160157-19.582031 43.742188-43.742188 43.742188-24.160156 0-43.746093-19.582031-43.746093-43.742188 0-24.160156 19.585937-43.746093 43.746093-43.746093 24.160157 0 43.742188 19.585937 43.742188 43.746093zm0 0" fill="#ddc1a5"/><path d="m256 352.949219c-72.167969 0-130.667969-58.5-130.667969-130.667969v-74.289062c0-72.164063 58.503907-130.667969 130.667969-130.667969 72.167969 0 130.667969 58.503906 130.667969 130.667969v74.289062c0 72.167969-58.5 130.667969-130.667969 130.667969zm0 0" fill="#f5d7b7"/><path d="m155.332031 222.28125v-74.289062c0-67.089844 50.566407-122.363282 115.667969-129.804688-4.921875-.5625-9.925781-.863281-15-.863281-72.167969 0-130.667969 58.503906-130.667969 130.667969v74.289062c0 72.167969 58.503907 130.671875 130.667969 130.671875 5.074219 0 10.078125-.300781 15-.863281-65.101562-7.441406-115.667969-62.714844-115.667969-129.808594zm0 0" fill="#e9ccae"/><path d="m256 284.007812c30.578125 0 55.652344-23.578124 58.023438-53.546874.199218-2.523438-1.855469-4.660157-4.386719-4.660157h-107.273438c-2.53125 0-4.585937 2.136719-4.386719 4.660157 2.375 29.96875 27.445313 53.546874 58.023438 53.546874zm0 0" fill="#3e4852"/><path d="m293.871094 269.996094c-9.964844-9.171875-23.261719-14.777344-37.871094-14.777344s-27.90625 5.605469-37.867188 14.777344c10.179688 8.730468 23.40625 14.011718 37.867188 14.011718 14.464844 0 27.691406-5.28125 37.871094-14.011718zm0 0" fill="#fd6e99"/><path d="m256 2.324219c-80.320312 0-145.667969 65.347656-145.667969 145.667969v11.878906s142.667969 47.730468 203.707031-60.460938c31.296876 63.257813 87.632813 60.460938 87.632813 60.460938v-11.878906c-.003906-80.320313-65.347656-145.667969-145.671875-145.667969zm0 0" fill="#ffb82c"/><path d="m140.332031 147.992188c0-75.257813 57.367188-137.367188 130.667969-144.898438-4.929688-.507812-9.933594-.769531-15-.769531-80.320312 0-145.667969 65.347656-145.667969 145.667969v11.882812s11.773438 3.9375 30 6.984375zm0 0" fill="#f08d0b"/><path d="m255.988281 0c-60.347656 0-106.914062 34.425781-120.121093 45.304688-2.332032 1.921874-3.355469 5-2.644532 7.9375l10.96875 45.082031c.859375 3.527343 4.019532 6.011719 7.648438 6.011719h208.320312c3.628906 0 6.789063-2.484376 7.648438-6.011719l10.96875-45.082031c.710937-2.933594-.3125-6.015626-2.644532-7.9375-13.214843-10.875-59.796874-45.304688-120.144531-45.304688zm0 0" fill="#fbfcf7"/><path d="m174.195312 98.324219-10.96875-45.082031c-.714843-2.9375.308594-6.015626 2.640626-7.9375 12.089843-9.957032 52.144531-39.628907 105.121093-44.582032-4.894531-.457031-9.894531-.722656-15-.722656-60.347656 0-106.910156 34.425781-120.121093 45.304688-2.332032 1.921874-3.355469 5-2.640626 7.9375l10.96875 45.082031c.855469 3.527343 4.015626 6.011719 7.648438 6.011719h30c-3.632812 0-6.792969-2.484376-7.648438-6.011719zm0 0" fill="#e2e6e7"/><path d="m289.023438 35.785156h-14.816407c-1.007812 0-1.824219-.816406-1.824219-1.824218v-14.816407c0-1.003906-.816406-1.820312-1.820312-1.820312h-29.125c-1.007812 0-1.820312.816406-1.820312 1.820312v14.816407c0 1.007812-.816407 1.824218-1.824219 1.824218h-14.816407c-1.003906 0-1.820312.816406-1.820312 1.820313v29.125c0 1.003906.816406 1.820312 1.820312 1.820312h14.816407c1.007812 0 1.824219.816407 1.824219 1.824219v14.816406c0 1.003906.8125 1.820313 1.820312 1.820313h29.125c1.003906 0 1.820312-.816407 1.820312-1.820313v-14.820312c0-1.003906.816407-1.820313 1.824219-1.820313h14.816407c1.003906 0 1.820312-.816406 1.820312-1.820312v-29.125c0-1.003907-.816406-1.820313-1.820312-1.820313zm0 0" fill="#f74b4b"/><path d="m239.617188 19.144531v14.816407c0 1.007812-.816407 1.824218-1.824219 1.824218h-14.816407c-1.003906 0-1.820312.816406-1.820312 1.820313v29.125c0 1.003906.816406 1.820312 1.820312 1.820312h14.816407c1.007812 0 1.824219.816407 1.824219 1.824219v14.816406c0 1.003906.816406 1.820313 1.820312 1.820313h14.5625v-69.6875h-14.5625c-1.003906 0-1.820312.816406-1.820312 1.820312zm0 0" fill="#d14242"/></svg>