<svg height="512pt" viewBox="0 0 512 512.00018" width="512pt" xmlns="http://www.w3.org/2000/svg"><path d="m512 256c0 141.386719-114.613281 256-256 256s-256-114.613281-256-256c0-141.382812 114.613281-256 256-256s256 114.617188 256 256zm0 0" fill="#6877ba"/><g fill="#8998d9"><path d="m156.742188 250.679688h-156.6757818c-.0351562 1.769531-.0664062 3.542968-.0664062 5.320312 0 23.308594 3.132812 45.882812 8.972656 67.34375h39.785156c10.035157 0 18.167969-8.132812 18.167969-18.164062 0-10.035157 8.132813-18.167969 18.167969-18.167969h71.652344c10.03125 0 18.164062-8.132813 18.164062-18.167969 0-10.03125-8.132812-18.164062-18.167968-18.164062zm0 0"/><path d="m510.667969 282.253906h-34.203125c-10.03125 0-18.164063 8.132813-18.164063 18.167969 0 10.03125-8.136719 18.167969-18.167969 18.167969h-17.800781c-10.035156 0-18.167969 8.132812-18.167969 18.164062 0 10.035156 8.132813 18.167969 18.167969 18.167969h69.847657c9.535156-22.742187 15.890624-47.148437 18.488281-72.667969zm0 0"/><path d="m298.136719 236.347656c0-10.035156 8.132812-18.167968 18.167969-18.167968h149.667968c10.03125 0 18.167969 8.132812 18.167969 18.167968 0 10.03125-8.136719 18.167969-18.167969 18.167969h-27.800781c-10.035156 0-18.167969 8.132813-18.167969 18.164063 0 10.035156-8.132812 18.167968-18.167968 18.167968h-149.664063c-10.035156 0-18.167969-8.132812-18.167969-18.167968 0-10.03125 8.132813-18.164063 18.167969-18.164063h27.800781c10.03125-.003906 18.164063-8.136719 18.164063-18.167969zm0 0"/></g><path d="m449.96875 423.066406c-12.085938-32.917968-43.660156-55.972656-80.203125-55.972656h-227.53125c-36.542969 0-68.117187 23.054688-80.199219 55.972656 46.945313 54.457032 116.425782 88.933594 193.964844 88.933594s147.019531-34.476562 193.96875-88.933594zm0 0" fill="#3e4852"/><path d="m430.414062 200.976562c0 24.15625-19.585937 43.742188-43.746093 43.742188-24.15625 0-43.742188-19.585938-43.742188-43.742188 0-24.160156 19.585938-43.746093 43.742188-43.746093 24.160156 0 43.746093 19.585937 43.746093 43.746093zm0 0" fill="#e9ccae"/><path d="m169.074219 200.976562c0 24.15625-19.585938 43.742188-43.742188 43.742188-24.160156 0-43.746093-19.585938-43.746093-43.742188 0-24.160156 19.585937-43.746093 43.746093-43.746093 24.15625 0 43.742188 19.585937 43.742188 43.746093zm0 0" fill="#ddc1a5"/><path d="m256 352.949219c-72.167969 0-130.667969-58.503907-130.667969-130.667969v-74.289062c0-72.164063 58.503907-130.667969 130.667969-130.667969 72.167969 0 130.667969 58.503906 130.667969 130.667969v74.289062c0 72.167969-58.5 130.667969-130.667969 130.667969zm0 0" fill="#f5d7b7"/><path d="m262.589844 17.324219h-13.179688c-74.195312 0-134.34375 60.144531-134.34375 134.34375h281.867188c0-74.195313-60.148438-134.34375-134.34375-134.34375zm0 0" fill="#a18838"/><path d="m271 17.59375c-2.78125-.171875-5.582031-.269531-8.410156-.269531h-13.179688c-74.195312 0-134.34375 60.144531-134.34375 134.34375h30c0-71.371094 55.65625-129.734375 125.933594-134.074219zm0 0" fill="#8f701e"/><path d="m374.601562 173.617188c4.359376 33.804687 3.96875 67.558593-14.980468 67.558593-37.960938 0-15.464844-28.300781-103.621094-28.300781s-65.660156 28.300781-103.621094 28.300781c-18.949218 0-19.339844-33.753906-14.980468-67.558593h-28.242188c-.441406 10.628906-.734375 21.113281-.734375 30.273437 0 114.753906 27.46875 213.21875 38.582031 213.21875 11.109375 0 16.789063-30.410156 16.789063-30.410156s15.34375 60.1875 31.238281 60.1875 21.574219-29.777344 21.574219-29.777344 16.886719 54.085937 39.394531 54.085937 39.390625-54.085937 39.390625-54.085937 5.679687 29.777344 21.574219 29.777344c15.894531 0 31.242187-60.1875 31.242187-60.1875s5.679688 30.410156 16.789063 30.410156 38.578125-98.464844 38.578125-213.21875c0-9.160156-.289063-19.644531-.734375-30.273437zm0 0" fill="#f74b4b"/><path d="m140.972656 234.667969c-7.40625-11.414063-6.777344-36.207031-3.574218-61.050781h-28.242188c-.441406 10.628906-.734375 21.113281-.734375 30.273437 0 114.753906 27.46875 213.21875 38.582031 213.21875 10.992188 0 16.664063-29.757813 16.78125-30.378906-9.820312-32.632813-20.164062-88.453125-22.8125-152.0625zm0 0" fill="#d14242"/><path d="m256 295.554688c30.578125 0 55.648438-23.578126 58.023438-53.546876.199218-2.523437-1.855469-4.660156-4.386719-4.660156h-107.273438c-2.53125 0-4.585937 2.136719-4.386719 4.660156 2.375 29.96875 27.445313 53.546876 58.023438 53.546876zm0 0" fill="#212d33"/><path d="m293.867188 281.542969c-9.960938-9.171875-23.257813-14.777344-37.867188-14.777344s-27.90625 5.605469-37.867188 14.777344c10.179688 8.730469 23.402344 14.011719 37.867188 14.011719s27.6875-5.277344 37.867188-14.011719zm0 0" fill="#fd6e99"/><path d="m423.8125 181.671875h-335.625c-3.996094 0-7.238281-3.238281-7.238281-7.238281v-28.6875c0-3.996094 3.242187-7.238282 7.238281-7.238282h335.625c3.996094 0 7.238281 3.242188 7.238281 7.238282v28.6875c0 4-3.242187 7.238281-7.238281 7.238281zm0 0" fill="#f08d0b"/><path d="m40.957031 1.011719 17.28125 17.695312c22.601563 23.136719 55.046875 33.839844 86.976563 28.6875 25.433594-4.105469 47.367187 18.007813 43.054687 43.40625-3.304687 19.460938-21.09375 33.050781-40.738281 31.121094l-10.863281-1.066406c-38.902344-3.816407-71.957031-30.074219-84.484375-67.101563l-16.707032-49.382812c-1.121093-3.320313 3.03125-5.867188 5.480469-3.359375zm0 0" fill="#e2e6e7"/><path d="m188.269531 90.800781c1.1875-7.003906.371094-13.753906-1.953125-19.78125-17.394531 7.171875-52.910156 21.894531-78.132812 14.03125-23.753906-7.40625-70.335938-81.464843-71.800782-84.167969-.898437.800782-1.382812 2.070313-.90625 3.488282l16.707032 49.382812c12.527344 37.027344 45.582031 63.285156 84.484375 67.101563l10.863281 1.066406c19.644531 1.929687 37.433594-11.660156 40.738281-31.121094zm0 0" fill="#c1ccd0"/><path d="m471.046875 1.011719-17.285156 17.695312c-22.601563 23.136719-55.046875 33.839844-86.976563 28.6875-25.433594-4.105469-47.363281 18.007813-43.054687 43.40625 3.304687 19.460938 21.09375 33.050781 40.738281 31.121094l10.863281-1.066406c38.902344-3.816407 71.957031-30.074219 84.484375-67.101563l16.707032-49.382812c1.121093-3.320313-3.03125-5.867188-5.476563-3.359375zm0 0" fill="#e2e6e7"/><path d="m430.113281 71.273438c14.683594-8.609376 44.296875-71.089844 44.296875-71.089844-1.089844-.367188-2.367187-.1914065-3.363281.828125l-17.285156 17.695312c-22.601563 23.136719-55.042969 33.839844-86.976563 28.6875-23.570312-3.800781-44.117187 14.914063-43.570312 37.886719 30.800781-2.179688 95.769531-7.480469 106.898437-14.007812zm0 0" fill="#c1ccd0"/><path d="m294.011719 199.128906-35 22.898438c-1.828125 1.199218-4.195313 1.199218-6.023438 0l-35-22.898438c-1.554687-1.015625-2.488281-2.746094-2.488281-4.601562v-177.203125c0-3.039063 2.460938-5.5 5.5-5.5h70c3.035156 0 5.5 2.460937 5.5 5.5v177.203125c0 1.855468-.9375 3.585937-2.488281 4.601562zm0 0" fill="#ffb82c"/><path d="m247.988281 199.128906c-1.550781-1.015625-2.488281-2.746094-2.488281-4.601562v-177.203125c0-3.039063 2.460938-5.5 5.5-5.5h-30c-3.039062 0-5.5 2.460937-5.5 5.5v177.203125c0 1.855468.9375 3.585937 2.488281 4.601562l35 22.898438c1.828125 1.199218 4.195313 1.199218 6.023438 0l11.988281-7.84375zm0 0" fill="#f08d0b"/></svg>