<svg height="512pt" viewBox="0 0 512 512" width="512pt" xmlns="http://www.w3.org/2000/svg"><path d="m512 256c0 141.386719-114.613281 256-256 256s-256-114.613281-256-256 114.613281-256 256-256 256 114.613281 256 256zm0 0" fill="#8f64ac"/><g fill="#b48bcd"><path d="m510.667969 282.253906h-24.203125c-10.03125 0-18.164063 8.132813-18.164063 18.167969 0 10.03125-8.136719 18.167969-18.167969 18.167969h-17.800781c-10.035156 0-18.167969 8.132812-18.167969 18.164062 0 10.035156 8.132813 18.167969 18.167969 18.167969h59.847657c9.535156-22.742187 15.890624-47.148437 18.488281-72.667969zm0 0"/><path d="m156.742188 250.679688h-156.6757818c-.0351562 1.769531-.0664062 3.542968-.0664062 5.320312 0 23.308594 3.132812 45.882812 8.972656 67.34375h39.785156c10.035157 0 18.167969-8.132812 18.167969-18.164062 0-10.035157 8.132813-18.167969 18.167969-18.167969h71.652344c10.03125 0 18.164062-8.132813 18.164062-18.167969 0-10.03125-8.132812-18.164062-18.167968-18.164062zm0 0"/><path d="m177.667969 175.398438c0-10.03125 8.132812-18.167969 18.167969-18.167969h189.664062c10.03125 0 18.167969 8.132812 18.167969 18.167969 0 10.035156 8.132812 18.167968 18.167969 18.167968h45c10.03125 0 18.164062 8.132813 18.164062 18.167969 0 10.03125-8.132812 18.164063-18.164062 18.164063h-12.824219c-10.035157 0-18.167969 8.132812-18.167969 18.167968s-8.132812 18.167969-18.167969 18.167969h-180.074219c-10.03125 0-18.164062-8.132813-18.164062-18.167969 0-10.03125 8.132812-18.167968 18.164062-18.167968h12.824219c10.035157 0 18.167969-8.132813 18.167969-18.164063 0-10.035156-8.132812-18.167969-18.167969-18.167969h-54.59375c-10.03125 0-18.164062-8.132812-18.164062-18.167968zm0 0"/><path d="m301.96875 152.261719h-27.800781c-10.035157 0-18.167969-8.132813-18.167969-18.164063 0-10.035156-8.132812-18.167968-18.167969-18.167968h-196.125c-7.535156 11.5-14.167969 23.644531-19.800781 36.332031h24.0625c10.03125 0 18.167969 8.132812 18.167969 18.167969 0 10.03125 8.132812 18.167968 18.164062 18.167968h219.667969c10.035156 0 18.167969-8.132812 18.167969-18.167968 0-10.035157-8.136719-18.167969-18.167969-18.167969zm0 0"/></g><path d="m379.144531 196.8125s35.144531-196.8125 0-196.8125-113.144531 140-113.144531 140zm0 0" fill="#2e3b43"/><path d="m132.855469 196.8125s-35.144531-196.8125 0-196.8125 113.144531 140 113.144531 140zm0 0" fill="#2e3b43"/><path d="m375.359375 342.949219h-238.71875c-9.007813 0-16.3125-7.300781-16.3125-16.308594v-125.664063h271.339844v125.664063c0 9.007813-7.300781 16.308594-16.308594 16.308594zm0 0" fill="#f08d0b"/><path d="m430.414062 200.976562c0 24.15625-19.585937 43.742188-43.746093 43.742188-24.15625 0-43.742188-19.585938-43.742188-43.742188 0-24.160156 19.585938-43.746093 43.742188-43.746093 24.160156 0 43.746093 19.585937 43.746093 43.746093zm0 0" fill="#e9ccae"/><path d="m142.234375 367.09375c-36.542969 0-68.117187 23.054688-80.203125 55.972656 46.949219 54.457032 116.429688 88.933594 193.96875 88.933594s147.019531-34.476562 193.96875-88.933594c-12.085938-32.917968-43.660156-55.972656-80.199219-55.972656zm0 0" fill="#2e3b43"/><path d="m169.074219 200.976562c0 24.15625-19.585938 43.742188-43.742188 43.742188-24.160156 0-43.746093-19.585938-43.746093-43.742188 0-24.160156 19.585937-43.746093 43.746093-43.746093 24.15625 0 43.742188 19.585937 43.742188 43.746093zm0 0" fill="#ddc1a5"/><path d="m256 352.949219c-72.167969 0-130.667969-58.503907-130.667969-130.667969v-74.289062c0-72.167969 58.503907-130.667969 130.667969-130.667969 72.167969 0 130.667969 58.503906 130.667969 130.667969v74.289062c0 72.164062-58.5 130.667969-130.667969 130.667969zm0 0" fill="#f5d7b7"/><path d="m155.332031 222.28125v-74.289062c0-67.09375 50.566407-122.363282 115.667969-129.804688-4.921875-.566406-9.925781-.863281-15-.863281-72.167969 0-130.667969 58.5-130.667969 130.667969v74.289062c0 72.167969 58.503907 130.667969 130.667969 130.667969 5.074219 0 10.078125-.296875 15-.859375-65.101562-7.445313-115.667969-62.714844-115.667969-129.808594zm0 0" fill="#e9ccae"/><path d="m256 284.007812c30.578125 0 55.648438-23.582031 58.023438-53.550781.199218-2.519531-1.855469-4.65625-4.386719-4.65625h-107.273438c-2.53125 0-4.585937 2.136719-4.386719 4.65625 2.375 29.96875 27.445313 53.550781 58.023438 53.550781zm0 0" fill="#3e4852"/><path d="m293.867188 269.996094c-9.960938-9.171875-23.257813-14.777344-37.867188-14.777344s-27.90625 5.605469-37.867188 14.777344c10.179688 8.730468 23.402344 14.011718 37.867188 14.011718s27.6875-5.28125 37.867188-14.011718zm0 0" fill="#fd6e99"/><path d="m256 2.324219c-80.320312 0-145.667969 65.347656-145.667969 145.667969v11.878906s82.667969 16.636718 145.667969-48.460938c63 65.097656 145.667969 48.460938 145.667969 48.460938v-11.878906c0-80.320313-65.347657-145.667969-145.667969-145.667969zm0 0" fill="#ffb82c"/><path d="m140.332031 147.992188c0-75.257813 57.367188-137.367188 130.667969-144.898438-4.933594-.507812-9.9375-.769531-15-.769531-80.320312 0-145.667969 65.347656-145.667969 145.667969v11.878906s11.855469 2.382812 30 1.8125zm0 0" fill="#f08d0b"/><path d="m256 2.324219c-80.320312 0-145.667969 65.347656-145.667969 145.667969v11.878906s.386719.078125 1.101563.199218c8.863281-71.898437 70.3125-127.746093 144.566406-127.746093s135.703125 55.847656 144.566406 127.746093c.714844-.121093 1.101563-.199218 1.101563-.199218v-11.878906c0-80.320313-65.347657-145.667969-145.667969-145.667969zm0 0" fill="#3e4852"/><path d="m348.5 361.59375v-34.59375c0-3.039062-2.863281-5.5-6.398438-5.5h-172.203124c-3.535157 0-6.398438 2.460938-6.398438 5.5v34.59375c0 3.039062 2.863281 5.5 6.398438 5.5h172.203124c3.535157 0 6.398438-2.460938 6.398438-5.5zm0 0" fill="#e2e6e7"/><path d="m193.5 361.59375v-34.59375c0-3.039062 2.863281-5.5 6.398438-5.5h-30c-3.535157 0-6.398438 2.460938-6.398438 5.5v34.59375c0 3.039062 2.863281 5.5 6.398438 5.5h30c-3.535157 0-6.398438-2.460938-6.398438-5.5zm0 0" fill="#c1ccd0"/><path d="m256 344.296875c-34.902344 0-40.652344 76.308594-40.652344 76.308594h81.304688s-5.75-76.308594-40.652344-76.308594zm0 0" fill="#f08d0b"/><path d="m271 349.855469c-4.277344-3.46875-9.238281-5.558594-15-5.558594-34.902344 0-40.652344 76.308594-40.652344 76.308594h30s4.011719-53.191407 25.652344-70.75zm0 0" fill="#f35d11"/><path d="m277.667969 435.71875c0 11.964844-9.703125 21.664062-21.667969 21.664062s-21.667969-9.699218-21.667969-21.664062c0-11.96875 9.703125-21.667969 21.667969-21.667969s21.667969 9.699219 21.667969 21.667969zm0 0" fill="#f08d0b"/><path d="m289.753906 435.71875h-67.507812c-8.34375 0-15.109375-6.765625-15.109375-15.113281 0-8.34375 6.765625-15.109375 15.109375-15.109375h67.507812c8.34375 0 15.109375 6.765625 15.109375 15.109375 0 8.347656-6.765625 15.113281-15.109375 15.113281zm0 0" fill="#ffb82c"/><path d="m237.136719 420.605469c0-8.34375 6.765625-15.109375 15.109375-15.109375h-30c-8.34375 0-15.109375 6.765625-15.109375 15.109375 0 8.347656 6.765625 15.113281 15.109375 15.113281h30c-8.34375 0-15.109375-6.765625-15.109375-15.113281zm0 0" fill="#f08d0b"/></svg>