<svg height="512pt" viewBox="0 0 512 512" width="512pt" xmlns="http://www.w3.org/2000/svg"><path d="m512 256c0 141.386719-114.613281 256-256 256s-256-114.613281-256-256 114.613281-256 256-256 256 114.613281 256 256zm0 0" fill="#e2e6e7"/><path d="m512 256c0 141.386719-114.613281 256-256 256s-256-114.613281-256-256 114.613281-256 256-256 256 114.613281 256 256zm0 0" fill="#6877ba"/><path d="m511.472656 272.253906h-25.003906c-10.035156 0-18.167969 8.132813-18.167969 18.167969 0 10.03125-8.136719 18.167969-18.167969 18.167969h-57.800781c-10.03125 0-18.167969 8.132812-18.167969 18.164062 0 10.035156 8.132813 18.167969 18.167969 18.167969h103.792969c8.46875-22.863281 13.753906-47.261719 15.347656-72.667969zm0 0" fill="#8998d9"/><path d="m156.742188 250.679688h-156.6757818c-.0351562 1.769531-.0664062 3.542968-.0664062 5.320312 0 23.308594 3.132812 45.882812 8.972656 67.34375h39.785156c10.035157 0 18.167969-8.132812 18.167969-18.164062 0-10.035157 8.132813-18.167969 18.167969-18.167969h71.652344c10.03125 0 18.164062-8.132813 18.164062-18.167969 0-10.03125-8.132812-18.164062-18.167968-18.164062zm0 0" fill="#8998d9"/><path d="m177.667969 175.398438c0-10.03125 8.132812-18.167969 18.167969-18.167969h189.664062c10.03125 0 18.167969 8.132812 18.167969 18.167969 0 10.035156 8.132812 18.167968 18.167969 18.167968h45c10.03125 0 18.164062 8.132813 18.164062 18.167969 0 10.03125-8.132812 18.164063-18.164062 18.164063h-12.824219c-10.035157 0-18.167969 8.132812-18.167969 18.167968s-8.132812 18.167969-18.167969 18.167969h-180.074219c-10.03125 0-18.164062-8.132813-18.164062-18.167969 0-10.03125 8.132812-18.167968 18.164062-18.167968h12.824219c10.035157 0 18.167969-8.132813 18.167969-18.164063 0-10.035156-8.132812-18.167969-18.167969-18.167969h-54.59375c-10.03125 0-18.164062-8.132812-18.164062-18.167968zm0 0" fill="#8998d9"/><path d="m301.96875 152.261719h-27.800781c-10.035157 0-18.167969-8.132813-18.167969-18.164063 0-10.035156-8.132812-18.167968-18.167969-18.167968h-196.125c-7.535156 11.5-14.167969 23.644531-19.800781 36.332031h24.0625c10.03125 0 18.167969 8.132812 18.167969 18.167969 0 10.03125 8.132812 18.167968 18.164062 18.167968h219.667969c10.035156 0 18.167969-8.132812 18.167969-18.167968 0-10.035157-8.136719-18.167969-18.167969-18.167969zm0 0" fill="#8998d9"/><path d="m313.480469 57.480469c0 31.746093-25.734375 57.480469-57.480469 57.480469s-57.480469-25.734376-57.480469-57.480469c0-31.746094 25.734375-57.480469 57.480469-57.480469s57.480469 25.734375 57.480469 57.480469zm0 0" fill="#f74b4b"/><path d="m309.296875 398h-106.59375v-159.019531h106.59375zm0 0" fill="#2e3b43"/><path d="m142.234375 367.09375c-36.542969 0-68.117187 23.054688-80.203125 55.972656 46.949219 54.457032 116.429688 88.933594 193.96875 88.933594s147.019531-34.476562 193.96875-88.933594c-12.085938-32.917968-43.660156-55.972656-80.199219-55.972656zm0 0" fill="#2e3b43"/><path d="m142.234375 367.09375c-36.542969 0-68.117187 23.054688-80.203125 55.972656 46.949219 54.457032 116.429688 88.933594 193.96875 88.933594v-144.90625zm0 0" fill="#212d33"/><path d="m256 352.949219c-72.167969 0-130.667969-58.503907-130.667969-130.667969v-74.289062c0-72.167969 58.503907-130.667969 130.667969-130.667969 72.167969 0 130.667969 58.503906 130.667969 130.667969v74.289062c0 72.164062-58.5 130.667969-130.667969 130.667969zm0 0" fill="#2e3b43"/><path d="m155.332031 222.28125v-74.289062c0-67.09375 50.566407-122.363282 115.667969-129.804688-4.921875-.566406-9.925781-.863281-15-.863281-72.167969 0-130.667969 58.5-130.667969 130.667969v74.289062c0 72.167969 58.503907 130.667969 130.667969 130.667969 5.074219 0 10.078125-.296875 15-.859375-65.101562-7.445313-115.667969-62.714844-115.667969-129.808594zm0 0" fill="#212d33"/><path d="m116.3125 128.496094 137.519531-37.957032c1.417969-.394531 2.917969-.394531 4.335938 0l137.519531 37.957032c3.535156.972656 5.984375 4.1875 5.984375 7.855468v97.570313c0 3.667969-2.449219 6.882813-5.984375 7.855469l-137.519531 37.957031c-1.417969.394531-2.917969.394531-4.335938 0l-137.519531-37.957031c-3.535156-.972656-5.984375-4.1875-5.984375-7.855469v-97.570313c.003906-3.667968 2.449219-6.878906 5.984375-7.855468zm0 0" fill="#3e4852"/><path d="m140.332031 121.867188-24.019531 6.628906c-3.535156.976562-5.980469 4.191406-5.980469 7.855468v97.574219c0 3.664063 2.445313 6.878907 5.980469 7.851563l24.019531 6.632812zm0 0" fill="#2e3b43"/><g fill="#212d33"><path d="m149.410156 232.605469c-8.285156 0-15-6.714844-15-15v-64.941407c0-8.28125 6.714844-15 15-15 8.28125 0 15 6.71875 15 15v64.941407c0 8.285156-6.71875 15-15 15zm0 0"/><path d="m202.703125 242.605469c-8.28125 0-15-6.714844-15-15v-84.941407c0-8.28125 6.71875-15 15-15 8.285156 0 15 6.71875 15 15v84.941407c0 8.285156-6.714844 15-15 15zm0 0"/><path d="m256 252.605469c-8.285156 0-15-6.714844-15-15v-104.941407c0-8.28125 6.714844-15 15-15s15 6.71875 15 15v104.941407c0 8.285156-6.714844 15-15 15zm0 0"/><path d="m309.296875 242.605469c-8.285156 0-15-6.714844-15-15v-84.941407c0-8.28125 6.714844-15 15-15 8.28125 0 15 6.71875 15 15v84.941407c0 8.285156-6.71875 15-15 15zm0 0"/><path d="m362.589844 232.605469c-8.28125 0-15-6.714844-15-15v-64.941407c0-8.28125 6.71875-15 15-15 8.285156 0 15 6.71875 15 15v64.941407c0 8.285156-6.714844 15-15 15zm0 0"/></g></svg>