<svg height="512pt" viewBox="0 0 512 512" width="512pt" xmlns="http://www.w3.org/2000/svg"><path d="m512 256c0 141.386719-114.613281 256-256 256s-256-114.613281-256-256 114.613281-256 256-256 256 114.613281 256 256zm0 0" fill="#3e4852"/><path d="m354.652344 378s98.898437-69.671875 130-77c0 0-14.34375 94-111 138.546875-45.429688 20.9375-19-61.546875-19-61.546875zm0 0" fill="#4adbf0"/><path d="m157.347656 378s-98.898437-69.671875-130-77c0 0 14.34375 94 111 138.546875 45.429688 20.9375 19-61.546875 19-61.546875zm0 0" fill="#4adbf0"/><path d="m240 439.546875s137.972656-270.539063 251.972656-373.882813c0 0 2.625 248.429688-161.1875 373.882813zm0 0" fill="#92ebf1"/><path d="m272 439.546875s-137.972656-270.539063-251.972656-373.882813c0 0-2.625 248.429688 161.1875 373.882813zm0 0" fill="#92ebf1"/><path d="m271 39.589844c29.140625-13.5 118.335938-55.585938 168 13.410156s50 172.800781-37.332031 216.613281c-82.261719 41.269531-269.441407-5.339843-331.40625 97.480469 0 0-12.03125-130.574219 102.921875-141.292969 114.957031-10.722656 97.816406-186.210937 97.816406-186.210937zm0 0" fill="#f08d0b"/><path d="m142.234375 367.09375c-36.542969 0-68.117187 23.054688-80.203125 55.972656 46.949219 54.457032 116.429688 88.933594 193.96875 88.933594s147.019531-34.476562 193.96875-88.933594c-12.085938-32.917968-43.660156-55.972656-80.199219-55.972656zm0 0" fill="#ddc1a5"/><path d="m256 512c48.144531 0 93.179688-13.300781 131.644531-36.410156-9.21875-31.609375-38.367187-54.96875-72.664062-55.425782-13.300781-.175781-25.832031 3.035157-36.796875 8.820313-13.929688 7.359375-30.441406 7.359375-44.371094 0-10.960938-5.785156-23.492188-8.996094-36.792969-8.820313-34.296875.457032-63.445312 23.816407-72.667969 55.425782 38.46875 23.109375 83.503907 36.410156 131.648438 36.410156zm0 0" fill="#f94978"/><path d="m154.355469 475.589844c7.945312-27.238282 30.691406-48.332032 58.769531-53.945313-5.199219-1.035156-10.585938-1.554687-16.105469-1.480469-34.296875.457032-63.445312 23.816407-72.664062 55.425782 8.496093 5.101562 17.3125 9.726562 26.414062 13.835937.699219-4.152343 1.875-8.746093 3.585938-13.835937zm0 0" fill="#d3406a"/><path d="m307.476562 367.09375s-9.808593 26-51.476562 26-51.476562-26-51.476562-26v-118.789062h102.953124zm0 0" fill="#ddc1a5"/><path d="m430.414062 200.976562c0 24.15625-19.585937 43.742188-43.746093 43.742188-24.15625 0-43.742188-19.585938-43.742188-43.742188 0-24.160156 65.257813-67.394531 75.40625-60.3125 10.148438 7.085938 12.082031 45.210938 12.082031 60.3125zm0 0" fill="#e9ccae"/><path d="m81.585938 200.976562c0 24.15625 19.585937 43.742188 43.746093 43.742188 24.15625 0 43.742188-19.585938 43.742188-43.742188 0-24.160156-65.257813-67.394531-75.40625-60.3125-10.148438 7.085938-12.082031 45.210938-12.082031 60.3125zm0 0" fill="#ddc1a5"/><path d="m256 352.949219c-72.167969 0-130.667969-58.503907-130.667969-130.667969v-74.289062c0-72.167969 58.503907-130.667969 130.667969-130.667969 72.167969 0 130.667969 58.503906 130.667969 130.667969v74.289062c0 72.164062-58.5 130.667969-130.667969 130.667969zm0 0" fill="#f5d7b7"/><path d="m155.332031 222.28125v-74.289062c0-67.09375 50.566407-122.363282 115.667969-129.804688-4.921875-.566406-9.925781-.863281-15-.863281-72.167969 0-130.667969 58.5-130.667969 130.667969v74.289062c0 72.167969 58.503907 130.667969 130.667969 130.667969 5.074219 0 10.078125-.296875 15-.859375-65.101562-7.445313-115.667969-62.714844-115.667969-129.808594zm0 0" fill="#e9ccae"/><path d="m256 284.007812c30.578125 0 55.648438-23.582031 58.023438-53.550781.199218-2.519531-1.855469-4.65625-4.386719-4.65625h-107.273438c-2.53125 0-4.585937 2.136719-4.386719 4.65625 2.375 29.96875 27.445313 53.550781 58.023438 53.550781zm0 0" fill="#3e4852"/><path d="m293.867188 269.996094c-9.960938-9.171875-23.257813-14.777344-37.867188-14.777344s-27.90625 5.605469-37.867188 14.777344c10.179688 8.730468 23.402344 14.011718 37.867188 14.011718s27.6875-5.28125 37.867188-14.011718zm0 0" fill="#fd6e99"/><path d="m256 2.324219c-80.320312 0-145.667969 65.347656-145.667969 145.667969v11.878906s142.667969 47.730468 203.703125-60.460938c31.300782 63.253906 87.636719 60.460938 87.636719 60.460938v-11.878906c-.003906-80.320313-65.351563-145.667969-145.671875-145.667969zm0 0" fill="#ffb82c"/><path d="m140.332031 147.992188c0-75.257813 57.367188-137.367188 130.667969-144.898438-4.933594-.507812-9.9375-.769531-15-.769531-80.320312 0-145.667969 65.347656-145.667969 145.667969v11.878906s11.773438 3.941406 30 6.988281zm0 0" fill="#f08d0b"/></svg>