<svg height="512pt" viewBox="0 0 512 512" width="512pt" xmlns="http://www.w3.org/2000/svg"><path d="m512 256c0 141.386719-114.613281 256-256 256s-256-114.613281-256-256 114.613281-256 256-256 256 114.613281 256 256zm0 0" fill="#92ebf1"/><g fill="#bff8ff"><path d="m510.667969 282.253906h-24.203125c-10.03125 0-18.164063 8.132813-18.164063 18.167969 0 10.03125-8.136719 18.167969-18.167969 18.167969h-17.800781c-10.035156 0-18.167969 8.132812-18.167969 18.164062 0 10.035156 8.132813 18.167969 18.167969 18.167969h59.847657c9.535156-22.742187 15.890624-47.148437 18.488281-72.667969zm0 0"/><path d="m156.742188 250.679688h-156.6757818c-.0351562 1.769531-.0664062 3.542968-.0664062 5.320312 0 23.308594 3.132812 45.882812 8.972656 67.34375h39.785156c10.035157 0 18.167969-8.132812 18.167969-18.164062 0-10.035157 8.132813-18.167969 18.167969-18.167969h71.652344c10.03125 0 18.164062-8.132813 18.164062-18.167969 0-10.03125-8.132812-18.164062-18.167968-18.164062zm0 0"/><path d="m177.667969 175.398438c0-10.03125 8.132812-18.167969 18.167969-18.167969h189.664062c10.03125 0 18.167969 8.132812 18.167969 18.167969 0 10.035156 8.132812 18.167968 18.167969 18.167968h45c10.03125 0 18.164062 8.132813 18.164062 18.167969 0 10.03125-8.132812 18.164063-18.164062 18.164063h-12.824219c-10.035157 0-18.167969 8.132812-18.167969 18.167968s-8.132812 18.167969-18.167969 18.167969h-180.074219c-10.03125 0-18.164062-8.132813-18.164062-18.167969 0-10.03125 8.132812-18.167968 18.164062-18.167968h12.824219c10.035157 0 18.167969-8.132813 18.167969-18.164063 0-10.035156-8.132812-18.167969-18.167969-18.167969h-54.59375c-10.03125 0-18.164062-8.132812-18.164062-18.167968zm0 0"/><path d="m301.96875 152.261719h-27.800781c-10.035157 0-18.167969-8.132813-18.167969-18.164063 0-10.035156-8.132812-18.167968-18.167969-18.167968h-196.125c-7.535156 11.5-14.167969 23.644531-19.800781 36.332031h24.0625c10.03125 0 18.167969 8.132812 18.167969 18.167969 0 10.03125 8.132812 18.167968 18.164062 18.167968h219.667969c10.035156 0 18.167969-8.132812 18.167969-18.167968 0-10.035157-8.136719-18.167969-18.167969-18.167969zm0 0"/></g><path d="m389.03125 0c-15.335938 15.144531-23.96875 35.796875-23.96875 57.351562v86.316407h47.9375v-86.316407c0-21.554687-8.632812-42.207031-23.96875-57.351562zm0 0" fill="#e2e6e7"/><path d="m365.0625 57.351562v8.316407h47.9375v-8.316407c0-7.515624-1.074219-14.917968-3.089844-22.019531h-41.757812c-2.019532 7.101563-3.089844 14.503907-3.089844 22.019531zm0 0" fill="#d14242"/><path d="m375.359375 342.949219h-238.71875c-9.007813 0-16.3125-7.300781-16.3125-16.308594v-125.664063h271.339844v125.664063c0 9.007813-7.300781 16.308594-16.308594 16.308594zm0 0" fill="#2e3b43"/><path d="m369.765625 367.09375h-62.289063v-118.789062h-102.953124v118.789062h-62.292969c-36.539063 0-68.113281 23.054688-80.199219 55.972656 46.949219 54.457032 116.429688 88.933594 193.96875 88.933594s147.019531-34.476562 193.96875-88.933594c-12.085938-32.914062-43.660156-55.972656-80.203125-55.972656zm0 0" fill="#ddc1a5"/><path d="m430.414062 200.976562c0 24.15625-19.585937 43.742188-43.746093 43.742188-24.15625 0-43.742188-19.585938-43.742188-43.742188 0-24.160156 19.585938-43.746093 43.742188-43.746093 24.160156 0 43.746093 19.585937 43.746093 43.746093zm0 0" fill="#e9ccae"/><path d="m169.074219 200.976562c0 24.15625-19.585938 43.742188-43.742188 43.742188-24.160156 0-43.746093-19.585938-43.746093-43.742188 0-24.160156 19.585937-43.746093 43.746093-43.746093 24.15625 0 43.742188 19.585937 43.742188 43.746093zm0 0" fill="#ddc1a5"/><path d="m256 352.949219c-72.167969 0-130.667969-58.503907-130.667969-130.667969v-74.289062c0-72.167969 58.503907-130.667969 130.667969-130.667969 72.167969 0 130.667969 58.503906 130.667969 130.667969v74.289062c0 72.164062-58.5 130.667969-130.667969 130.667969zm0 0" fill="#f5d7b7"/><path d="m155.332031 222.28125v-74.289062c0-67.09375 50.566407-122.363282 115.667969-129.804688-4.921875-.566406-9.925781-.863281-15-.863281-72.167969 0-130.667969 58.5-130.667969 130.667969v74.289062c0 72.167969 58.503907 130.667969 130.667969 130.667969 5.074219 0 10.078125-.296875 15-.859375-65.101562-7.445313-115.667969-62.714844-115.667969-129.808594zm0 0" fill="#e9ccae"/><path d="m383.207031 252.265625-23.65625-23.65625c-2.152343-2.148437-5.632812-2.148437-7.78125 0l-25.558593 25.558594c-2.148438 2.148437-2.148438 5.632812 0 7.78125l36.191406 36.191406c9.703125-13.585937 16.867187-29.105469 20.804687-45.875zm0 0" fill="#f74b4b"/><path d="m326.28125 281.878906c-2.148438-2.148437-5.632812-2.148437-7.78125 0l-25.558594 25.558594c-2.148437 2.148438-2.148437 5.628906 0 7.78125l23.128906 23.128906c14.234376-7.382812 26.9375-17.308594 37.507813-29.171875zm0 0" fill="#f74b4b"/><path d="m160.230469 228.609375c-2.148438-2.148437-5.628907-2.148437-7.78125 0l-23.65625 23.65625c3.9375 16.765625 11.101562 32.289063 20.804687 45.875l36.191406-36.191406c2.148438-2.148438 2.148438-5.632813 0-7.78125zm0 0" fill="#f74b4b"/><path d="m193.5 281.878906c-2.148438-2.148437-5.632812-2.148437-7.78125 0l-27.296875 27.296875c10.570313 11.863281 23.273437 21.789063 37.507813 29.171875l23.128906-23.128906c2.148437-2.152344 2.148437-5.632812 0-7.78125zm0 0" fill="#f74b4b"/><path d="m175.519531 292.074219-17.097656 17.101562c10.570313 11.863281 23.273437 21.789063 37.507813 29.171875l11.585937-11.589844c-12.644531-9.515624-23.503906-21.273437-31.996094-34.683593zm0 0" fill="#d14242"/><path d="m256 284.007812c30.578125 0 55.648438-23.582031 58.023438-53.550781.199218-2.519531-1.855469-4.65625-4.386719-4.65625h-107.273438c-2.53125 0-4.585937 2.136719-4.386719 4.65625 2.375 29.96875 27.445313 53.550781 58.023438 53.550781zm0 0" fill="#3e4852"/><path d="m293.867188 269.996094c-9.960938-9.171875-23.257813-14.777344-37.867188-14.777344s-27.90625 5.605469-37.867188 14.777344c10.179688 8.730468 23.402344 14.011718 37.867188 14.011718s27.6875-5.28125 37.867188-14.011718zm0 0" fill="#fd6e99"/><path d="m256 2.324219c-80.320312 0-145.667969 65.347656-145.667969 145.667969v11.878906h291.339844v-11.878906c-.003906-80.320313-65.351563-145.667969-145.671875-145.667969zm0 0" fill="#3e4852"/><path d="m271 3.089844c-4.933594-.503906-9.9375-.765625-15-.765625-80.320312 0-145.667969 65.347656-145.667969 145.667969v11.878906h30v-11.878906c0-75.257813 57.367188-137.367188 130.667969-144.902344zm0 0" fill="#2e3b43"/><path d="m406.863281 161.773438h-301.726562c-3.390625 0-6.136719-2.746094-6.136719-6.136719v-55.480469c0-3.390625 2.746094-6.136719 6.136719-6.136719h301.726562c3.390625 0 6.136719 2.746094 6.136719 6.136719v55.480469c0 3.390625-2.746094 6.136719-6.136719 6.136719zm0 0" fill="#a18838"/><path d="m129 155.636719v-55.480469c0-3.386719 2.746094-6.136719 6.136719-6.136719h-30c-3.390625 0-6.136719 2.75-6.136719 6.136719v55.480469c0 3.390625 2.746094 6.140625 6.136719 6.140625h30c-3.390625-.003906-6.136719-2.75-6.136719-6.140625zm0 0" fill="#8f701e"/><path d="m176.367188 94.019531 17.460937 33.878907 17.460937 33.875h-69.839843l17.457031-33.875zm0 0" fill="#ffb82c"/><path d="m256 94.019531 17.460938 33.878907 17.460937 33.875h-69.84375l17.460937-33.875zm0 0" fill="#e2e6e7"/><path d="m335.632812 94.019531 17.460938 33.878907 17.457031 33.875h-69.839843l17.460937-33.875zm0 0" fill="#ffb82c"/><path d="m101 377.699219v82.046875c30.003906 22.863281 65.207031 39.230468 103.523438 47.058594v-139.710938h-62.292969c-14.894531 0-28.96875 3.835938-41.230469 10.605469zm0 0" fill="#a18838"/><path d="m411 377.699219v82.046875c-30.003906 22.863281-65.207031 39.230468-103.523438 47.058594v-139.710938h62.292969c14.894531 0 28.96875 3.835938 41.230469 10.605469zm0 0" fill="#a18838"/><path d="m155.429688 227.085938c-1.089844.183593-2.136719.683593-2.980469 1.523437l-23.65625 23.660156c3.9375 16.765625 11.101562 32.289063 20.804687 45.871094l18.8125-18.8125c-7.71875-15.882813-12.308594-33.5625-12.980468-52.242187zm0 0" fill="#d14242"/></svg>