<svg height="512pt" viewBox="0 0 512 512" width="512pt" xmlns="http://www.w3.org/2000/svg"><path d="m512 256c0 141.386719-114.613281 256-256 256s-256-114.613281-256-256 114.613281-256 256-256 256 114.613281 256 256zm0 0" fill="#63e7ae"/><path d="m202.703125 238.980469h106.59375v172.519531h-106.59375zm0 0" fill="#e2e6e7"/><path d="m441 223.339844c-7-116.664063-95-223.226563-185-223.226563s-178 106.5625-185 223.226563c-7 116.660156 141 216.660156 185 216.660156s192-100 185-216.660156zm0 0" fill="#f74b4b"/><path d="m373.789062 361.972656h-235.578124c-36.535157 0-68.273438 22.261719-81.675782 54.476563 46.925782 58.261719 118.832032 95.550781 199.464844 95.550781s152.539062-37.289062 199.464844-95.546875c-13.40625-32.21875-45.140625-54.480469-81.675782-54.480469zm0 0" fill="#f74b4b"/><path d="m71 223.339844c-3.125 52.101562 24.671875 100.871094 60.304688 138.902344-33.589844 2.601562-62.21875 24.039062-74.769532 54.210937 39.1875 48.652344 95.804688 82.660156 160.367188 92.558594 9.066406-50.714844 59.097656-73.238281 59.097656-73.238281-57.4375-20.136719-171.15625-109.835938-165-212.4375 6.480469-107.992188 82.367188-207.316407 165-221.484376h-.003906c-1.558594-.269531-3.125-.5-4.691406-.707031-.214844-.03125-.433594-.054687-.648438-.082031-1.25-.160156-2.496094-.304688-3.75-.414062-.441406-.039063-.882812-.085938-1.328125-.121094-1.230469-.105469-2.464844-.183594-3.699219-.246094-.386718-.019531-.773437-.046875-1.160156-.0625-1.574219-.066406-3.144531-.105469-4.71875-.105469-90 0-178 106.5625-185 223.226563zm0 0" fill="#d14242"/><path d="m159.464844 493.152344c29.792968 12.140625 62.378906 18.847656 96.535156 18.847656 37.066406 0 72.285156-7.890625 104.089844-22.0625-17.875-22.847656-51.589844-55.25-99.082032-55.25-49.769531 0-84.410156 35.582031-101.542968 58.464844zm0 0" fill="#fbfcf7"/><path d="m261.007812 434.6875c-49.765624 0-84.402343 35.574219-101.535156 58.457031 0 .003907 0 .011719.003906.011719 18.152344 7.398438 37.339844 12.785156 57.296876 15.855469.042968 0 .085937-.007813.132812 0 8.902344-49.835938 57.367188-72.445313 59.046875-73.214844-4.820313-.707031-9.796875-1.109375-14.945313-1.109375zm0 0" fill="#c1ccd0"/><path d="m286.28125 435.796875c0 16.722656-13.558594 30.28125-30.28125 30.28125s-30.28125-13.558594-30.28125-30.28125c0-16.726563 13.558594-30.28125 30.28125-30.28125s30.28125 13.554687 30.28125 30.28125zm0 0" fill="#ffb82c"/><path d="m245.71875 435.796875c0-13.21875 8.472656-24.453125 20.28125-28.585937-3.132812-1.09375-6.496094-1.695313-10-1.695313-16.722656 0-30.28125 13.554687-30.28125 30.28125 0 16.722656 13.558594 30.28125 30.28125 30.28125 3.503906 0 6.867188-.601563 10-1.699219-11.808594-4.128906-20.28125-15.363281-20.28125-28.582031zm0 0" fill="#f08d0b"/><path d="m256 352.949219c-72.167969 0-130.667969-58.503907-130.667969-130.667969v-74.289062c0-72.167969 58.503907-130.667969 130.667969-130.667969 72.167969 0 130.667969 58.503906 130.667969 130.667969v74.289062c0 72.164062-58.5 130.667969-130.667969 130.667969zm0 0" fill="#f5d7b7"/><path d="m155.332031 222.28125v-74.289062c0-67.09375 50.566407-122.363282 115.667969-129.808594-4.921875-.5625-9.925781-.859375-15-.859375-72.167969 0-130.667969 58.5-130.667969 130.667969v74.289062c0 72.164062 58.5 130.667969 130.667969 130.667969 5.074219 0 10.078125-.300781 15-.863281-65.101562-7.441407-115.667969-62.710938-115.667969-129.804688zm0 0" fill="#e9ccae"/><path d="m256 17.324219c-72.167969 0-130.667969 58.5-130.667969 130.667969v13.523437c26.699219 1.476563 84.0625-1.949219 130.667969-50.105469 46.605469 48.15625 103.96875 51.582032 130.667969 50.105469v-13.523437c0-72.167969-58.5-130.667969-130.667969-130.667969zm0 0" fill="#ffb82c"/><path d="m256 284.007812c30.578125 0 55.648438-23.582031 58.023438-53.550781.199218-2.519531-1.855469-4.65625-4.386719-4.65625h-107.273438c-2.53125 0-4.585937 2.136719-4.386719 4.65625 2.375 29.96875 27.445313 53.550781 58.023438 53.550781zm0 0" fill="#3e4852"/><path d="m293.867188 269.996094c-9.960938-9.171875-23.257813-14.777344-37.867188-14.777344s-27.90625 5.605469-37.867188 14.777344c10.179688 8.730468 23.402344 14.011718 37.867188 14.011718s27.6875-5.28125 37.867188-14.011718zm0 0" fill="#fd6e99"/><path d="m155.332031 147.992188c0-67.09375 50.566407-122.363282 115.667969-129.808594-4.921875-.5625-9.925781-.859375-15-.859375-72.167969 0-130.667969 58.5-130.667969 130.667969v13.523437c7.75.429687 18.09375.441406 30-.929687zm0 0" fill="#f08d0b"/></svg>