<svg height="512pt" viewBox="0 0 512 512" width="512pt" xmlns="http://www.w3.org/2000/svg"><path d="m512 256c0 141.386719-114.613281 256-256 256s-256-114.613281-256-256 114.613281-256 256-256 256 114.613281 256 256zm0 0" fill="#8f64ac"/><g fill="#b48bcd"><path d="m156.742188 250.679688h-156.6757818c-.0351562 1.769531-.0664062 3.542968-.0664062 5.320312 0 23.308594 3.132812 45.882812 8.972656 67.34375h39.785156c10.035157 0 18.167969-8.132812 18.167969-18.164062 0-10.035157 8.132813-18.167969 18.167969-18.167969h71.652344c10.03125 0 18.164062-8.132813 18.164062-18.167969 0-10.03125-8.132812-18.164062-18.167968-18.164062zm0 0"/><path d="m177.667969 175.398438c0-10.03125 8.132812-18.167969 18.167969-18.167969h189.664062c10.03125 0 18.167969 8.132812 18.167969 18.167969 0 10.035156 8.132812 18.167968 18.167969 18.167968h45c10.03125 0 18.164062 8.132813 18.164062 18.167969 0 10.03125-8.132812 18.164063-18.164062 18.164063h-12.824219c-10.035157 0-18.167969 8.132812-18.167969 18.167968s-8.132812 18.167969-18.167969 18.167969h-180.074219c-10.03125 0-18.164062-8.132813-18.164062-18.167969 0-10.03125 8.132812-18.167968 18.164062-18.167968h12.824219c10.035157 0 18.167969-8.132813 18.167969-18.164063 0-10.035156-8.132812-18.167969-18.167969-18.167969h-54.59375c-10.03125 0-18.164062-8.132812-18.164062-18.167968zm0 0"/><path d="m301.96875 152.261719h-27.800781c-10.035157 0-18.167969-8.132813-18.167969-18.164063 0-10.035156-8.132812-18.167968-18.167969-18.167968h-196.125c-7.535156 11.5-14.167969 23.644531-19.800781 36.332031h24.0625c10.03125 0 18.167969 8.132812 18.167969 18.167969 0 10.03125 8.132812 18.167968 18.164062 18.167968h219.667969c10.035156 0 18.167969-8.132812 18.167969-18.167968 0-10.035157-8.136719-18.167969-18.167969-18.167969zm0 0"/><path d="m510.667969 282.253906h-24.203125c-10.03125 0-18.164063 8.132813-18.164063 18.167969 0 10.03125-8.136719 18.167969-18.167969 18.167969h-17.800781c-10.035156 0-18.167969 8.132812-18.167969 18.164062 0 10.035156 8.132813 18.167969 18.167969 18.167969h59.847657c9.535156-22.742187 15.890624-47.148437 18.488281-72.667969zm0 0"/></g><path d="m142.234375 367.09375c-36.542969 0-68.117187 23.054688-80.203125 55.972656 46.949219 54.457032 116.429688 88.933594 193.96875 88.933594s147.019531-34.476562 193.96875-88.933594c-12.085938-32.917968-43.660156-55.972656-80.199219-55.972656zm0 0" fill="#fbfcf7"/><path d="m369.765625 367.09375h-227.53125c-4.148437 0-8.226563.3125-12.222656.886719.476562 69.179687 56.695312 125.113281 125.988281 125.113281s125.511719-55.933594 125.988281-125.113281c-3.996093-.574219-8.074219-.886719-12.222656-.886719zm0 0" fill="#f74b4b"/><path d="m307.476562 367.09375s-13.605468 33.90625-51.476562 33.90625-51.476562-33.90625-51.476562-33.90625v-118.789062h102.953124zm0 0" fill="#ddc1a5"/><path d="m256 352.949219c-72.167969 0-130.667969-58.503907-130.667969-130.667969v-74.289062c0-72.167969 58.503907-130.667969 130.667969-130.667969 72.167969 0 130.667969 58.503906 130.667969 130.667969v74.289062c0 72.164062-58.5 130.667969-130.667969 130.667969zm0 0" fill="#f5d7b7"/><path d="m256 284.007812c30.578125 0 55.648438-23.582031 58.023438-53.550781.199218-2.519531-1.855469-4.65625-4.386719-4.65625h-107.273438c-2.53125 0-4.585937 2.136719-4.386719 4.65625 2.375 29.96875 27.445313 53.550781 58.023438 53.550781zm0 0" fill="#3e4852"/><path d="m293.867188 269.996094c-9.960938-9.171875-23.257813-14.777344-37.867188-14.777344s-27.90625 5.605469-37.867188 14.777344c10.179688 8.730468 23.402344 14.011718 37.867188 14.011718s27.6875-5.28125 37.867188-14.011718zm0 0" fill="#fd6e99"/><path d="m319.488281 15.886719c-21.582031-9.320313-43.019531-13.550781-63.488281-13.550781s-41.90625 4.230468-63.488281 13.550781c-50.167969 21.667969-82.179688 71.648437-82.179688 126.296875v182.902344c0 3.007812 1.710938 5.753906 4.410157 7.082031l92.019531 45.199219c5.242187 2.574218 11.367187-1.242188 11.367187-7.082032v-40.558594c0-3.710937-2.105468-7.09375-5.4375-8.730468l-29.253906-14.382813c-3.328125-1.632812-5.4375-5.019531-5.4375-8.726562v-136.945313c0-5.375 4.355469-9.726562 9.726562-9.726562h136.546876c5.371093 0 9.726562 4.351562 9.726562 9.726562v136.945313c0 3.707031-2.109375 7.09375-5.4375 8.726562l-29.257812 14.382813c-3.328126 1.636718-5.4375 5.019531-5.4375 8.730468v40.558594c0 5.839844 6.128906 9.65625 11.371093 7.082032l92.019531-45.199219c2.699219-1.324219 4.410157-4.074219 4.410157-7.082031v-182.902344c0-54.648438-32.011719-104.628906-82.179688-126.296875zm0 0" fill="#ffb82c"/><path d="m140.332031 142.183594c0-54.648438 32.011719-104.628906 82.179688-126.296875 16.367187-7.066407 32.648437-11.203125 48.488281-12.792969-5.050781-.503906-10.054688-.757812-15-.757812-20.46875 0-41.90625 4.230468-63.488281 13.550781-50.167969 21.667969-82.179688 71.648437-82.179688 126.296875v182.902344c0 3.007812 1.710938 5.753906 4.410157 7.082031l25.589843 12.570312zm0 0" fill="#f08d0b"/><path d="m293.867188 329.722656v40.5625c0 5.839844 6.128906 9.65625 11.371093 7.082032l3.628907-1.785157v-30.503906c0-7.390625 4.203124-14.136719 10.832031-17.394531l18.46875-9.074219c6.632812-3.261719 10.832031-10.003906 10.832031-17.394531v-145.625c0-10.703125-8.679688-19.378906-19.382812-19.378906h-147.238282c-10.703125 0-19.378906 8.675781-19.378906 19.378906v145.625c0 7.386718 4.199219 14.132812 10.832031 17.390625l18.46875 9.078125c6.628907 3.257812 10.828125 10.003906 10.828125 17.390625v30.507812l3.632813 1.78125c5.242187 2.578125 11.367187-1.238281 11.367187-7.082031v-40.558594c0-3.707031-2.105468-7.09375-5.4375-8.730468l-29.253906-14.378907c-3.328125-1.636719-5.4375-5.023437-5.4375-8.730469v-136.941406c0-5.375 4.355469-9.726562 9.726562-9.726562h136.546876c5.371093 0 9.726562 4.351562 9.726562 9.726562v136.945313c0 3.707031-2.109375 7.09375-5.4375 8.726562l-29.257812 14.382813c-3.328126 1.632812-5.4375 5.019531-5.4375 8.726562zm0 0" fill="#f08d0b"/><path d="m273.785156 197.066406-14.226562 11.144532c-2.089844 1.636718-5.027344 1.636718-7.117188 0l-14.226562-11.144532c-1.398438-1.09375-2.214844-2.769531-2.214844-4.542968v-115.328126c0-3.1875 2.585938-5.769531 5.773438-5.769531h28.453124c3.1875 0 5.773438 2.582031 5.773438 5.769531v115.328126c0 1.773437-.816406 3.449218-2.214844 4.542968zm0 0" fill="#ffb82c"/><path d="m258.214844 197.066406c-1.398438-1.09375-2.214844-2.769531-2.214844-4.542968v-115.328126c0-3.1875 2.585938-5.769531 5.773438-5.769531h-20c-3.1875 0-5.773438 2.582031-5.773438 5.769531v115.328126c0 1.773437.816406 3.449218 2.214844 4.542968l14.226562 11.144532c2.089844 1.636718 5.027344 1.636718 7.117188 0l6.441406-5.046876zm0 0" fill="#f08d0b"/><path d="m256 0c-37.996094 0-65.105469 46.160156-71.441406 58.023438-.816406 1.523437-.277344 3.414062 1.214844 4.285156l68.613281 39.910156c.996093.578125 2.230469.578125 3.226562 0l68.613281-39.910156c1.492188-.871094 2.03125-2.761719 1.214844-4.285156-6.335937-11.863282-33.445312-58.023438-71.441406-58.023438zm0 0" fill="#d14242"/><path d="m326.226562 59.242188-68.613281-39.910157c-.996093-.578125-2.226562-.578125-3.226562 0l-68.613281 39.910157c-.625.363281-1.070313.910156-1.332032 1.53125.261719.621093.707032 1.171874 1.332032 1.535156l68.613281 39.910156c.996093.578125 2.230469.578125 3.226562 0l68.613281-39.910156c.625-.363282 1.070313-.914063 1.332032-1.535156-.261719-.621094-.707032-1.167969-1.332032-1.53125zm0 0" fill="#f74b4b"/></svg>