<svg height="512pt" viewBox="0 0 512 512" width="512pt" xmlns="http://www.w3.org/2000/svg"><path d="m512 256c0 141.386719-114.613281 256-256 256s-256-114.613281-256-256 114.613281-256 256-256 256 114.613281 256 256zm0 0" fill="#3e4852"/><path d="m511.472656 272.253906h-25.003906c-10.035156 0-18.167969 8.132813-18.167969 18.167969 0 10.03125-8.136719 18.167969-18.167969 18.167969h-57.800781c-10.03125 0-18.167969 8.132812-18.167969 18.164062 0 10.035156 8.132813 18.167969 18.167969 18.167969h103.792969c8.46875-22.863281 13.753906-47.261719 15.347656-72.667969zm0 0" fill="#5a606c"/><path d="m156.742188 250.679688h-156.6757818c-.0351562 1.769531-.0664062 3.542968-.0664062 5.320312 0 23.308594 3.132812 45.882812 8.972656 67.34375h39.785156c10.035157 0 18.167969-8.132812 18.167969-18.164062 0-10.035157 8.132813-18.167969 18.167969-18.167969h71.652344c10.03125 0 18.164062-8.132813 18.164062-18.167969 0-10.03125-8.132812-18.164062-18.167968-18.164062zm0 0" fill="#5a606c"/><path d="m177.667969 175.398438c0-10.03125 8.132812-18.167969 18.167969-18.167969h189.664062c10.03125 0 18.167969 8.132812 18.167969 18.167969 0 10.035156 8.132812 18.167968 18.167969 18.167968h45c10.03125 0 18.164062 8.132813 18.164062 18.167969 0 10.03125-8.132812 18.164063-18.164062 18.164063h-12.824219c-10.035157 0-18.167969 8.132812-18.167969 18.167968s-8.132812 18.167969-18.167969 18.167969h-180.074219c-10.03125 0-18.164062-8.132813-18.164062-18.167969 0-10.03125 8.132812-18.167968 18.164062-18.167968h12.824219c10.035157 0 18.167969-8.132813 18.167969-18.164063 0-10.035156-8.132812-18.167969-18.167969-18.167969h-54.59375c-10.03125 0-18.164062-8.132812-18.164062-18.167968zm0 0" fill="#5a606c"/><path d="m301.96875 152.261719h-27.800781c-10.035157 0-18.167969-8.132813-18.167969-18.164063 0-10.035156-8.132812-18.167968-18.167969-18.167968h-196.125c-7.535156 11.5-14.167969 23.644531-19.800781 36.332031h24.0625c10.03125 0 18.167969 8.132812 18.167969 18.167969 0 10.03125 8.132812 18.167968 18.164062 18.167968h219.667969c10.035156 0 18.167969-8.132812 18.167969-18.167968 0-10.035157-8.136719-18.167969-18.167969-18.167969zm0 0" fill="#5a606c"/><path d="m373.789062 361.972656h-235.578124c-36.535157 0-68.273438 22.261719-81.675782 54.476563 46.925782 58.261719 118.832032 95.550781 199.464844 95.550781s152.539062-37.289062 199.464844-95.546875c-13.40625-32.21875-45.140625-54.480469-81.675782-54.480469zm0 0" fill="#6877ba"/><path d="m166 495.699219c28 10.523437 58.320312 16.300781 90 16.300781s62-5.777344 90-16.300781v-133.726563h-180zm0 0" fill="#fbfcf7"/><path d="m202.703125 245.296875v122.988281c0 29.433594 23.863281 53.296875 53.296875 53.296875s53.296875-23.863281 53.296875-53.296875v-122.988281zm0 0" fill="#ddc1a5"/><path d="m436.578125 189.980469c0 25.011719-20.277344 45.289062-45.289063 45.289062-25.011718 0-45.289062-20.277343-45.289062-45.289062 0-25.015625 20.277344-45.292969 45.289062-45.292969 25.011719 0 45.289063 20.277344 45.289063 45.292969zm0 0" fill="#e9ccae"/><path d="m166 189.980469c0 25.011719-20.277344 45.289062-45.289062 45.289062-25.011719 0-45.289063-20.277343-45.289063-45.289062 0-25.015625 20.277344-45.292969 45.289063-45.292969 25.011718 0 45.289062 20.277344 45.289062 45.292969zm0 0" fill="#ddc1a5"/><path d="m256 .113281c73.492188 0 133.070312 59.574219 133.070312 133.070313v75.535156c0 73.492188-59.578124 133.070312-133.070312 133.070312s-133.070312-59.574218-133.070312-133.070312v-75.535156c0-73.496094 59.578124-133.070313 133.070312-133.070313zm0 0" fill="#fbfcf7"/><path d="m152.929688 208.71875v-75.539062c0-68.417969 51.640624-124.769532 118.070312-132.222657-4.925781-.550781-9.929688-.84375-15-.84375-73.492188 0-133.070312 59.574219-133.070312 133.070313v75.539062c0 73.492188 59.578124 133.066406 133.070312 133.066406 5.070312 0 10.074219-.292968 15-.84375-66.429688-7.457031-118.070312-63.804687-118.070312-132.226562zm0 0" fill="#e2e6e7"/><path d="m236.257812 189.980469c0 21.410156-17.359374 38.765625-38.769531 38.765625-21.410156 0-38.765625-17.355469-38.765625-38.765625 0-21.410157 17.355469-38.769531 38.765625-38.769531 21.410157 0 38.769531 17.359374 38.769531 38.769531zm0 0" fill="#f5d7b7"/><path d="m188.722656 189.980469c0-16.09375 9.804688-29.894531 23.765625-35.757813-4.613281-1.9375-9.679687-3.011718-15-3.011718-21.410156 0-38.765625 17.359374-38.765625 38.769531 0 21.410156 17.355469 38.765625 38.765625 38.765625 5.320313 0 10.386719-1.074219 15-3.011719-13.960937-5.863281-23.765625-19.664063-23.765625-35.753906zm0 0" fill="#e9ccae"/><path d="m353.308594 189.980469c0 21.410156-17.355469 38.765625-38.765625 38.765625-21.410157 0-38.765625-17.355469-38.765625-38.765625 0-21.410157 17.355468-38.769531 38.765625-38.769531 21.410156 0 38.765625 17.359374 38.765625 38.769531zm0 0" fill="#f5d7b7"/><path d="m305.777344 189.980469c0-16.09375 9.804687-29.894531 23.765625-35.757813-4.613281-1.9375-9.683594-3.011718-15-3.011718-21.410157 0-38.765625 17.359374-38.765625 38.769531 0 21.410156 17.355468 38.765625 38.765625 38.765625 5.316406 0 10.386719-1.074219 15-3.011719-13.960938-5.863281-23.765625-19.664063-23.765625-35.753906zm0 0" fill="#e9ccae"/><g fill="#c1ccd0"><path d="m333.585938 273.941406c0 7.296875-5.914063 13.210938-13.210938 13.210938s-13.210938-5.914063-13.210938-13.210938 5.914063-13.210937 13.210938-13.210937 13.210938 5.914062 13.210938 13.210937zm0 0"/><path d="m204.835938 273.941406c0 7.296875-5.914063 13.210938-13.210938 13.210938s-13.210938-5.914063-13.210938-13.210938 5.914063-13.210937 13.210938-13.210937 13.210938 5.914062 13.210938 13.210937zm0 0"/><path d="m269.210938 297.261719c0 7.296875-5.914063 13.210937-13.210938 13.210937s-13.210938-5.914062-13.210938-13.210937 5.914063-13.210938 13.210938-13.210938 13.210938 5.914063 13.210938 13.210938zm0 0"/><path d="m269.210938 250.621094c0 7.296875-5.914063 13.214844-13.210938 13.214844s-13.210938-5.917969-13.210938-13.214844c0-7.292969 5.914063-13.210938 13.210938-13.210938s13.210938 5.917969 13.210938 13.210938zm0 0"/><path d="m333.585938 106.015625c0 7.296875-5.914063 13.210937-13.210938 13.210937s-13.210938-5.914062-13.210938-13.210937c0-7.292969 5.914063-13.210937 13.210938-13.210937s13.210938 5.917968 13.210938 13.210937zm0 0"/><path d="m204.835938 106.015625c0 7.296875-5.914063 13.210937-13.210938 13.210937s-13.210938-5.914062-13.210938-13.210937c0-7.292969 5.914063-13.210937 13.210938-13.210937s13.210938 5.917968 13.210938 13.210937zm0 0"/><path d="m269.210938 82.699219c0 7.296875-5.914063 13.210937-13.210938 13.210937s-13.210938-5.914062-13.210938-13.210937 5.914063-13.210938 13.210938-13.210938 13.210938 5.914063 13.210938 13.210938zm0 0"/><path d="m269.210938 129.335938c0 7.296874-5.914063 13.210937-13.210938 13.210937s-13.210938-5.914063-13.210938-13.210937c0-7.296876 5.914063-13.210938 13.210938-13.210938s13.210938 5.914062 13.210938 13.210938zm0 0"/></g><path d="m287.730469 52h-63.460938c-3.046875 0-5.519531-2.472656-5.519531-5.519531v-40.960938c0-3.046875 2.472656-5.519531 5.519531-5.519531h63.460938c3.046875 0 5.519531 2.472656 5.519531 5.519531v40.960938c0 3.046875-2.472656 5.519531-5.519531 5.519531zm0 0" fill="#8998d9"/><path d="m248.75 46.480469v-40.960938c0-3.046875 2.472656-5.519531 5.519531-5.519531h-30c-3.046875 0-5.519531 2.472656-5.519531 5.519531v40.960938c0 3.046875 2.472656 5.519531 5.519531 5.519531h30c-3.046875 0-5.519531-2.472656-5.519531-5.519531zm0 0" fill="#6877ba"/><path d="m137.601562 170.6875h-29.34375c-2.152343 0-3.898437-1.742188-3.898437-3.898438v-44.203124c0-2.152344 1.746094-3.898438 3.898437-3.898438h29.34375c2.152344 0 3.898438 1.746094 3.898438 3.898438v44.203124c0 2.15625-1.746094 3.898438-3.898438 3.898438zm0 0" fill="#8998d9"/><path d="m124.359375 166.789062v-44.203124c0-2.152344 1.746094-3.898438 3.898437-3.898438h-20c-2.152343 0-3.898437 1.746094-3.898437 3.898438v44.203124c0 2.15625 1.746094 3.898438 3.898437 3.898438h20c-2.152343 0-3.898437-1.742188-3.898437-3.898438zm0 0" fill="#6877ba"/><path d="m403.742188 170.6875h-29.34375c-2.152344 0-3.898438-1.742188-3.898438-3.898438v-44.203124c0-2.152344 1.746094-3.898438 3.898438-3.898438h29.34375c2.152343 0 3.898437 1.746094 3.898437 3.898438v44.203124c0 2.15625-1.746094 3.898438-3.898437 3.898438zm0 0" fill="#8998d9"/><path d="m390.5 166.789062v-44.203124c0-2.152344 1.746094-3.898438 3.898438-3.898438h-20c-2.152344 0-3.898438 1.746094-3.898438 3.898438v44.203124c0 2.15625 1.746094 3.898438 3.898438 3.898438h20c-2.152344 0-3.898438-1.742188-3.898438-3.898438zm0 0" fill="#6877ba"/><path d="m256 512c31.679688 0 62-5.777344 90-16.300781v-81.945313c-1.800781-.15625-3.617188-.253906-5.457031-.253906-32.15625 0-58.53125 24.679688-61.253907 56.128906-.082031 0-.164062-.003906-.246093-.003906-24.179688 0-44.164063 17.929688-47.40625 41.21875 8.019531.757812 16.144531 1.15625 24.363281 1.15625zm0 0" fill="#f74b4b"/></svg>