<svg height="512pt" viewBox="0 0 512 512" width="512pt" xmlns="http://www.w3.org/2000/svg"><path d="m512 256c0 141.386719-114.613281 256-256 256s-256-114.613281-256-256 114.613281-256 256-256 256 114.613281 256 256zm0 0" fill="#6877ba"/><g fill="#8998d9"><path d="m156.742188 250.679688h-156.6757818c-.0351562 1.769531-.0664062 3.542968-.0664062 5.320312 0 23.308594 3.132812 45.882812 8.972656 67.34375h39.785156c10.035157 0 18.167969-8.132812 18.167969-18.164062 0-10.035157 8.132813-18.167969 18.167969-18.167969h71.652344c10.03125 0 18.164062-8.132813 18.164062-18.167969 0-10.03125-8.132812-18.164062-18.167968-18.164062zm0 0"/><path d="m177.667969 175.398438c0-10.03125 8.132812-18.167969 18.167969-18.167969h189.664062c10.03125 0 18.167969 8.132812 18.167969 18.167969 0 10.035156 8.132812 18.167968 18.167969 18.167968h45c10.03125 0 18.164062 8.132813 18.164062 18.167969 0 10.03125-8.132812 18.164063-18.164062 18.164063h-12.824219c-10.035157 0-18.167969 8.132812-18.167969 18.167968s-8.132812 18.167969-18.167969 18.167969h-180.074219c-10.03125 0-18.164062-8.132813-18.164062-18.167969 0-10.03125 8.132812-18.167968 18.164062-18.167968h12.824219c10.035157 0 18.167969-8.132813 18.167969-18.164063 0-10.035156-8.132812-18.167969-18.167969-18.167969h-54.59375c-10.03125 0-18.164062-8.132812-18.164062-18.167968zm0 0"/><path d="m301.96875 152.261719h-27.800781c-10.035157 0-18.167969-8.132813-18.167969-18.164063 0-10.035156-8.132812-18.167968-18.167969-18.167968h-196.125c-7.535156 11.5-14.167969 23.644531-19.800781 36.332031h24.0625c10.03125 0 18.167969 8.132812 18.167969 18.167969 0 10.03125 8.132812 18.167968 18.164062 18.167968h219.667969c10.035156 0 18.167969-8.132812 18.167969-18.167968 0-10.035157-8.136719-18.167969-18.167969-18.167969zm0 0"/><path d="m510.667969 282.253906h-34.203125c-10.03125 0-18.164063 8.132813-18.164063 18.167969 0 10.03125-8.136719 18.167969-18.167969 18.167969h-17.800781c-10.035156 0-18.167969 8.132812-18.167969 18.164062 0 10.035156 8.132813 18.167969 18.167969 18.167969h69.847657c9.535156-22.742187 15.890624-47.148437 18.488281-72.667969zm0 0"/></g><path d="m430.398438 201.003906c0 24.15625-19.582032 43.738282-43.742188 43.738282-24.15625 0-43.738281-19.582032-43.738281-43.738282s19.582031-43.742187 43.738281-43.742187c24.160156 0 43.742188 19.585937 43.742188 43.742187zm0 0" fill="#e9ccae"/><path d="m169.082031 201.003906c0 24.15625-19.582031 43.738282-43.738281 43.738282-24.160156 0-43.742188-19.582032-43.742188-43.738282s19.582032-43.742187 43.742188-43.742187c24.15625 0 43.738281 19.585937 43.738281 43.742187zm0 0" fill="#ddc1a5"/><path d="m256 352.949219c-72.167969 0-130.667969-58.503907-130.667969-130.667969v-74.289062c0-72.167969 58.503907-130.667969 130.667969-130.667969 72.167969 0 130.667969 58.503906 130.667969 130.667969v74.289062c0 72.164062-58.5 130.667969-130.667969 130.667969zm0 0" fill="#f5d7b7"/><path d="m155.332031 222.28125v-74.289062c0-67.09375 50.566407-122.363282 115.667969-129.808594-4.921875-.5625-9.925781-.859375-15-.859375-72.167969 0-130.667969 58.5-130.667969 130.667969v74.289062c0 72.164062 58.503907 130.667969 130.667969 130.667969 5.074219 0 10.078125-.300781 15-.863281-65.101562-7.441407-115.667969-62.710938-115.667969-129.804688zm0 0" fill="#e9ccae"/><path d="m256 284.027344c30.574219 0 55.644531-23.578125 58.019531-53.542969.199219-2.523437-1.855469-4.660156-4.386719-4.660156h-107.265624c-2.53125 0-4.585938 2.136719-4.386719 4.660156 2.375 29.964844 27.445312 53.542969 58.019531 53.542969zm0 0" fill="#3e4852"/><path d="m293.867188 270.015625c-9.964844-9.167969-23.257813-14.773437-37.867188-14.773437s-27.902344 5.605468-37.867188 14.773437c10.179688 8.730469 23.40625 14.011719 37.867188 14.011719s27.6875-5.28125 37.867188-14.011719zm0 0" fill="#fd6e99"/><path d="m372.558594 43.5c-8.988282-22-54.167969-43.5-116.558594-43.5s-107.570312 21.5-116.558594 43.5c-8.984375 22-21.34375 92.441406-21.34375 92.441406h275.804688s-12.359375-70.441406-21.34375-92.441406zm0 0" fill="#f08d0b"/><path d="m256 32.621094h-24.5c-3.640625 0-6.589844 2.949218-6.589844 6.589844v40.164062c0 2.324219 1.222656 4.476562 3.21875 5.664062l24.5 14.578126c2.078125 1.234374 4.664063 1.234374 6.738282 0l24.5-14.578126c1.996093-1.1875 3.222656-3.339843 3.222656-5.664062v-40.164062c0-3.640626-2.953125-6.589844-6.589844-6.589844zm0 0" fill="#e2e6e7"/><path d="m258.132812 85.039062c-1.996093-1.1875-3.222656-3.339843-3.222656-5.664062v-40.164062c0-3.640626 2.953125-6.589844 6.589844-6.589844h-30c-3.640625 0-6.589844 2.949218-6.589844 6.589844v40.164062c0 2.324219 1.222656 4.476562 3.21875 5.664062l24.5 14.578126c2.078125 1.234374 4.664063 1.234374 6.738282 0l11.632812-6.921876zm0 0" fill="#c1ccd0"/><path d="m139.441406 43.5c-8.984375 22-21.34375 92.441406-21.34375 92.441406h30s16.847656-79.480468 28.085938-121.808594c-19.371094 8.054688-32.363282 18.648438-36.742188 29.367188zm0 0" fill="#f35d11"/><path d="m256 133.441406c-59.289062 0-141.613281-24.867187-166.785156-32.941406-3.765625-1.210938-7.613282 1.601562-7.613282 5.554688v70.347656c0 3.222656 2.613282 5.835937 5.835938 5.835937h337.125c3.222656 0 5.835938-2.613281 5.835938-5.835937v-70.347656c0-3.953126-3.847657-6.765626-7.613282-5.554688-25.171875 8.074219-107.496094 32.941406-166.785156 32.941406zm0 0" fill="#ffb82c"/><path d="m111.601562 107.339844c-9.449218-2.757813-17.15625-5.160156-22.386718-6.839844-3.765625-1.210938-7.613282 1.601562-7.613282 5.554688v70.347656c0 3.222656 2.613282 5.835937 5.835938 5.835937h24.164062zm0 0" fill="#f08d0b"/><path d="m449.953125 423.085938c-12.082031-32.921876-43.652344-55.976563-80.195313-55.976563h-227.515624c-36.539063 0-68.113282 23.054687-80.195313 55.976563 46.945313 54.445312 116.421875 88.914062 193.953125 88.914062s147.007812-34.46875 193.953125-88.914062zm0 0" fill="#ffb82c"/><path d="m356 386.5625s-37.664062 42.84375-100 42.84375-100-42.84375-100-42.84375v-57.894531c0-5.152344 4.179688-9.328125 9.332031-9.328125h181.335938c5.152343 0 9.332031 4.175781 9.332031 9.328125zm0 0" fill="#ffb82c"/><path d="m356 367.105469v124.601562c20.507812-8.714843 39.644531-20.023437 57-33.519531v-79.316406c-12.726562-7.484375-27.519531-11.765625-43.242188-11.765625zm0 0" fill="#3e4852"/><path d="m156 367.105469v124.601562c-20.507812-8.714843-39.644531-20.023437-57-33.519531v-79.316406c12.726562-7.484375 27.519531-11.765625 43.242188-11.765625zm0 0" fill="#3e4852"/><path d="m165.332031 319.339844c-5.15625 0-9.332031 4.175781-9.332031 9.328125v57.894531s37.664062 42.84375 100 42.84375v-110.066406zm0 0" fill="#f08d0b"/></svg>