<svg height="512pt" viewBox="0 0 512 512" width="512pt" xmlns="http://www.w3.org/2000/svg"><path d="m512 256c0 141.386719-114.613281 256-256 256s-256-114.613281-256-256 114.613281-256 256-256 256 114.613281 256 256zm0 0" fill="#f74b4b"/><g fill="#fc7070"><path d="m156.742188 250.679688h-156.6757818c-.0351562 1.769531-.0664062 3.542968-.0664062 5.320312 0 23.308594 3.132812 45.882812 8.972656 67.34375h39.785156c10.035157 0 18.167969-8.132812 18.167969-18.164062 0-10.035157 8.132813-18.167969 18.167969-18.167969h71.652344c10.03125 0 18.164062-8.132813 18.164062-18.167969 0-10.03125-8.132812-18.164062-18.167968-18.164062zm0 0"/><path d="m177.667969 175.398438c0-10.03125 8.132812-18.167969 18.167969-18.167969h189.664062c10.03125 0 18.167969 8.132812 18.167969 18.167969 0 10.035156 8.132812 18.167968 18.167969 18.167968h45c10.03125 0 18.164062 8.132813 18.164062 18.167969 0 10.03125-8.132812 18.164063-18.164062 18.164063h-12.824219c-10.035157 0-18.167969 8.132812-18.167969 18.167968s-8.132812 18.167969-18.167969 18.167969h-180.074219c-10.03125 0-18.164062-8.132813-18.164062-18.167969 0-10.03125 8.132812-18.167968 18.164062-18.167968h12.824219c10.035157 0 18.167969-8.132813 18.167969-18.164063 0-10.035156-8.132812-18.167969-18.167969-18.167969h-54.59375c-10.03125 0-18.164062-8.132812-18.164062-18.167968zm0 0"/><path d="m301.96875 152.261719h-27.800781c-10.035157 0-18.167969-8.132813-18.167969-18.164063 0-10.035156-8.132812-18.167968-18.167969-18.167968h-196.125c-7.535156 11.5-14.167969 23.644531-19.800781 36.332031h24.0625c10.03125 0 18.167969 8.132812 18.167969 18.167969 0 10.03125 8.132812 18.167968 18.164062 18.167968h219.667969c10.035156 0 18.167969-8.132812 18.167969-18.167968 0-10.035157-8.136719-18.167969-18.167969-18.167969zm0 0"/><path d="m510.667969 282.253906h-34.203125c-10.03125 0-18.164063 8.132813-18.164063 18.167969 0 10.03125-8.136719 18.167969-18.167969 18.167969h-17.800781c-10.035156 0-18.167969 8.132812-18.167969 18.164062 0 10.035156 8.132813 18.167969 18.167969 18.167969h69.847657c9.535156-22.742187 15.890624-47.148437 18.488281-72.667969zm0 0"/></g><path d="m436.578125 189.980469c0 25.011719-20.277344 45.289062-45.289063 45.289062-25.011718 0-45.289062-20.277343-45.289062-45.289062 0-25.015625 20.277344-45.292969 45.289062-45.292969 25.011719 0 45.289063 20.277344 45.289063 45.292969zm0 0" fill="#92ebf1"/><path d="m166 189.980469c0 25.011719-20.277344 45.289062-45.289062 45.289062-25.011719 0-45.289063-20.277343-45.289063-45.289062 0-25.015625 20.277344-45.292969 45.289063-45.292969 25.011718 0 45.289062 20.277344 45.289062 45.292969zm0 0" fill="#4adbf0"/><path d="m202.703125 238.980469h106.59375v172.519531h-106.59375zm0 0" fill="#e2e6e7"/><path d="m373.789062 361.972656h-235.578124c-36.535157 0-68.273438 22.261719-81.675782 54.476563 46.925782 58.261719 118.832032 95.550781 199.464844 95.550781s152.539062-37.289062 199.464844-95.546875c-13.40625-32.21875-45.140625-54.480469-81.675782-54.480469zm0 0" fill="#e2e6e7"/><path d="m293.644531 430.675781c5.039063 4.621094 11.234375 7.554688 18.636719 7.554688 15.386719 0 24.957031-15.914063 31.625-31.707031 3.777344 2.804687 8.019531 4.214843 12.710938 4.214843 13.730468 0 19.886718-15.378906 22.84375-22.773437 2.679687-6.699219 5.402343-15.171875 8.027343-24.929688-4.46875-.695312-9.046875-1.0625-13.699219-1.0625h-235.578124c-4.65625 0-9.230469.363282-13.699219 1.0625 2.625 9.757813 5.347656 18.230469 8.027343 24.929688 2.957032 7.394531 9.113282 22.773437 22.84375 22.773437 4.691407 0 8.933594-1.410156 12.710938-4.214843 6.667969 15.792968 16.238281 31.707031 31.625 31.707031 7.402344 0 13.597656-2.933594 18.636719-7.554688 11.03125 19.90625 23.683593 29.992188 37.644531 29.992188s26.613281-10.085938 37.644531-29.992188zm0 0" fill="#c1ccd0"/><path d="m256 .113281c-75.238281 0-136.230469 60.992188-136.230469 136.230469v77.332031c0 4.054688.1875 8.0625.535157 12.027344 3.695312 94.019531 25.699218 170.035156 35.078124 170.035156 10.257813 0 15.5-28.070312 15.5-28.070312s14.164063 55.5625 28.839844 55.5625c14.671875 0 19.914063-27.492188 19.914063-27.492188s15.585937 49.929688 36.363281 49.929688 36.363281-49.929688 36.363281-49.929688 5.242188 27.492188 19.914063 27.492188c14.675781 0 28.839844-55.5625 28.839844-55.5625s5.242187 28.070312 15.5 28.070312c9.378906 0 31.382812-76.015625 35.078124-170.035156.347657-3.964844.535157-7.972656.535157-12.027344v-77.332031c0-75.238281-60.992188-136.230469-136.230469-136.230469zm0 0" fill="#fbfcf7"/><path d="m150.039062 226.65625c-.347656-3.964844-.535156-7.976562-.535156-12.03125v-77.332031c0-71.691407 55.382813-130.449219 125.695313-135.828125-6.273438-.886719-12.679688-1.351563-19.199219-1.351563-75.238281 0-136.230469 60.992188-136.230469 136.230469v77.332031c0 4.054688.1875 8.0625.535157 12.027344 3.695312 94.019531 25.699218 170.035156 35.078124 170.035156 10.136719 0 15.371094-27.394531 15.496094-28.039062-9.066406-30.53125-18.53125-82.269531-20.839844-141.042969zm0 0" fill="#e2e6e7"/><path d="m355.660156 157.878906c-10.15625 0-15.351562-27.804687-15.351562-27.804687s-14.03125 55.03125-28.5625 55.03125c-14.535156 0-19.726563-27.226563-19.726563-27.226563s-15.441406 49.453125-36.019531 49.453125-36.019531-49.453125-36.019531-49.453125-5.191407 27.226563-19.726563 27.226563-28.566406-55.03125-28.566406-55.03125-5.191406 27.804687-15.351562 27.804687c-1.269532 0-2.769532-1.414062-4.429688-4.078125v66.863281c0 57.488282 46.605469 104.089844 104.09375 104.089844s104.089844-46.601562 104.089844-104.089844v-66.863281c-1.65625 2.664063-3.160156 4.078125-4.429688 4.078125zm0 0" fill="#92ebf1"/><path d="m256 287.902344c31.660156 0 57.617188-24.414063 60.074219-55.441406.207031-2.609376-1.921875-4.820313-4.539063-4.820313h-111.070312c-2.621094 0-4.746094 2.210937-4.539063 4.820313 2.457031 31.027343 28.414063 55.441406 60.074219 55.441406zm0 0" fill="#3e4852"/><path d="m291.257812 252.550781 12.875-24.832031-.082031-.078125h-25.785156zm0 0" fill="#fbfcf7"/><path d="m220.859375 252.550781 12.875-24.832031-.078125-.078125h-25.789062zm0 0" fill="#fbfcf7"/><path d="m295.207031 273.398438c-10.316406-9.496094-24.082031-15.300782-39.207031-15.300782s-28.894531 5.804688-39.207031 15.300782c10.539062 9.039062 24.234375 14.503906 39.207031 14.503906s28.667969-5.464844 39.207031-14.503906zm0 0" fill="#fd6e99"/><path d="m136.636719 1.234375 3.050781 11.945313c3.992188 15.621093 15.328125 28.328124 30.398438 34.0625 12 4.566406 15.957031 19.578124 7.765624 29.464843-6.277343 7.578125-17.34375 9.011719-25.34375 3.28125l-4.421874-3.164062c-15.839844-11.34375-23.566407-30.917969-19.746094-50.023438l5.097656-25.480469c.339844-1.714843 2.769531-1.777343 3.199219-.085937zm0 0" fill="#3e4852"/><path d="m177.851562 76.707031c2.257813-2.726562 3.589844-5.84375 4.085938-9.023437-9.296875-1.238282-28.296875-3.734375-37.222656-13.414063-8.410156-9.121093-10.058594-52.695312-10.019532-54.2304685-.585937.1210935-1.113281.5507815-1.257812 1.2812495l-5.097656 25.480469c-3.820313 19.105469 3.90625 38.675781 19.746094 50.019531l4.425781 3.167969c7.996093 5.730469 19.0625 4.296875 25.339843-3.28125zm0 0" fill="#2e3b43"/><path d="m375.363281 1.234375-3.050781 11.945313c-3.992188 15.621093-15.328125 28.328124-30.398438 34.0625-12 4.566406-15.957031 19.578124-7.765624 29.464843 6.277343 7.578125 17.34375 9.011719 25.339843 3.28125l4.425781-3.164062c15.839844-11.34375 23.566407-30.917969 19.746094-50.023438l-5.097656-25.480469c-.339844-1.714843-2.769531-1.777343-3.199219-.085937zm0 0" fill="#3e4852"/><path d="m375.203125 41.765625c4.195313-7.375 1.40625-41.7265625 1.40625-41.7265625-.5625.1132815-1.070313.5078125-1.246094 1.1953125l-3.050781 11.945313c-3.992188 15.621093-15.328125 28.328124-30.398438 34.0625-11.121093 4.230468-15.324218 17.429687-9.363281 27.210937 12.75-8.617187 39.476563-27.09375 42.652344-32.6875zm0 0" fill="#2e3b43"/><path d="m182.328125 220.664062v-58.585937c-6.320313-15.078125-10.636719-32.003906-10.636719-32.003906s-5.195312 27.804687-15.351562 27.804687c-1.269532 0-2.773438-1.414062-4.429688-4.078125v66.863281c0 57.488282 46.601563 104.089844 104.089844 104.089844 5.167969 0 10.246094-.382812 15.210938-1.109375-50.277344-7.363281-88.882813-50.660156-88.882813-102.980469zm0 0" fill="#4adbf0"/></svg>