<svg height="512pt" viewBox="0 0 512 512" width="512pt" xmlns="http://www.w3.org/2000/svg"><path d="m512 256c0 141.386719-114.613281 256-256 256s-256-114.613281-256-256 114.613281-256 256-256 256 114.613281 256 256zm0 0" fill="#f74b4b"/><path d="m204.523438 248.304688h102.953124v140.695312h-102.953124zm0 0" fill="#ddc1a5"/><path d="m430.414062 200.976562c0 24.15625-19.585937 43.742188-43.746093 43.742188-24.15625 0-43.742188-19.585938-43.742188-43.742188 0-24.160156 19.585938-43.746093 43.742188-43.746093 24.160156 0 43.746093 19.585937 43.746093 43.746093zm0 0" fill="#e9ccae"/><path d="m169.074219 200.976562c0 24.15625-19.585938 43.742188-43.742188 43.742188-24.160156 0-43.746093-19.585938-43.746093-43.742188 0-24.160156 19.585937-43.746093 43.746093-43.746093 24.15625 0 43.742188 19.585937 43.742188 43.746093zm0 0" fill="#ddc1a5"/><path d="m256 352.949219c-72.167969 0-130.667969-58.503907-130.667969-130.667969v-74.289062c0-72.167969 58.503907-130.667969 130.667969-130.667969 72.167969 0 130.667969 58.503906 130.667969 130.667969v74.289062c0 72.164062-58.5 130.667969-130.667969 130.667969zm0 0" fill="#f5d7b7"/><path d="m155.332031 222.28125v-74.289062c0-67.09375 50.566407-122.363282 115.667969-129.804688-4.921875-.566406-9.925781-.863281-15-.863281-72.167969 0-130.667969 58.5-130.667969 130.667969v74.289062c0 72.167969 58.503907 130.667969 130.667969 130.667969 5.074219 0 10.078125-.296875 15-.859375-65.101562-7.445313-115.667969-62.714844-115.667969-129.808594zm0 0" fill="#e9ccae"/><path d="m256 17.324219c-72.167969 0-130.667969 58.5-130.667969 130.667969v74.289062c0 42.023438 19.84375 79.410156 50.667969 103.3125v-77.59375c0-22.089844 17.910156-40 40-40s40-17.910156 40-40zm0 0" fill="#fbfcf7"/><path d="m155.332031 222.28125v-74.289062c0-61.84375 42.960938-113.644532 100.667969-127.203126v-3.464843c-72.167969 0-130.667969 58.5-130.667969 130.667969v74.289062c0 42.023438 19.84375 79.410156 50.667969 103.3125v-32.757812c-13.078125-20.351563-20.667969-44.566407-20.667969-70.554688zm0 0" fill="#e2e6e7"/><path d="m256 2.324219c80.320312 0 145.667969 65.347656 145.667969 145.667969v11.878906s-142.667969 47.730468-203.703125-60.460938c-31.300782 63.253906-87.636719 60.460938-87.636719 60.460938v-11.878906c.003906-80.320313 65.351563-145.667969 145.671875-145.667969zm0 0" fill="#3e4852"/><path d="m140.332031 147.992188c0-75.257813 57.367188-137.367188 130.667969-144.898438-4.933594-.507812-9.9375-.769531-15-.769531-80.320312 0-145.667969 65.347656-145.667969 145.667969v11.878906s13.011719.644531 30-5.707032zm0 0" fill="#2e3b43"/><path d="m256 284.007812c30.578125 0 55.648438-23.582031 58.023438-53.550781.199218-2.519531-1.855469-4.65625-4.386719-4.65625h-107.273438c-2.53125 0-4.585937 2.136719-4.386719 4.65625 2.375 29.96875 27.445313 53.550781 58.023438 53.550781zm0 0" fill="#3e4852"/><path d="m293.867188 269.996094c-9.960938-9.171875-23.257813-14.777344-37.867188-14.777344s-27.90625 5.605469-37.867188 14.777344c10.179688 8.730468 23.402344 14.011718 37.867188 14.011718s27.6875-5.28125 37.867188-14.011718zm0 0" fill="#fd6e99"/><path d="m375.90625 367.3125c-3.082031-.21875-5.15625-3.25-4.203125-6.191406l24.417969-75.308594c.953125-2.933594-1.234375-5.945312-4.320313-5.945312h-22.292969c-34.257812 0-62.03125 27.773437-62.03125 62.035156v25.191406h-102.953124v-25.191406c0-34.261719-27.773438-62.035156-62.03125-62.035156h-22.292969c-3.085938 0-5.273438 3.011718-4.320313 5.945312l24.417969 75.308594c.953125 2.941406-1.121094 5.972656-4.203125 6.191406-33.90625 2.417969-62.65625 24.699219-74.0625 55.757812 46.949219 54.453126 116.429688 88.929688 193.96875 88.929688s147.019531-34.476562 193.96875-88.933594c-11.40625-31.054687-40.15625-53.335937-74.0625-55.753906zm0 0" fill="#3e4852"/><path d="m256 491.023438c-28.429688 0-51.476562-23.046876-51.476562-51.476563v-72.453125h102.953124v72.453125c0 28.429687-23.046874 51.476563-51.476562 51.476563zm0 0" fill="#e2e6e7"/><path d="m256 367.09375h51.476562l-51.476562 82.832031zm0 0" fill="#fbfcf7"/><path d="m136.09375 367.3125c-33.90625 2.417969-62.65625 24.699219-74.0625 55.753906 17.449219 20.238282 38.011719 37.710938 60.941406 51.683594 1.335938-57.925781 29.78125-86.0625 41.3125-95.121094 2.824219-2.222656 3.9375-5.988281 2.820313-9.40625l-29.5625-90.355468h-17.34375c-3.085938 0-5.273438 3.011718-4.320313 5.945312l24.417969 75.308594c.953125 2.941406-1.121094 5.972656-4.203125 6.191406zm0 0" fill="#2e3b43"/></svg>