<svg height="512pt" viewBox="0 0 512 512" width="512pt" xmlns="http://www.w3.org/2000/svg"><path d="m512 256c0 141.386719-114.613281 256-256 256s-256-114.613281-256-256 114.613281-256 256-256 256 114.613281 256 256zm0 0" fill="#3e4852"/><path d="m256 512c74.320312 0 141.234375-31.683594 188-82.265625v-177.902344c0-14.082031-11.417969-25.5-25.5-25.5h-325c-14.082031 0-25.5 11.417969-25.5 25.5v177.902344c46.765625 50.582031 113.679688 82.265625 188 82.265625zm0 0" fill="#aabbbf"/><path d="m256 .113281c73.492188 0 133.070312 59.574219 133.070312 133.070313v75.535156c0 73.492188-59.578124 133.070312-133.070312 133.070312s-133.070312-59.574218-133.070312-133.070312v-75.535156c0-73.496094 59.578124-133.070313 133.070312-133.070313zm0 0" fill="#fbfcf7"/><path d="m152.929688 208.71875v-75.539062c0-68.417969 51.640624-124.769532 118.070312-132.222657-4.925781-.550781-9.929688-.84375-15-.84375-73.492188 0-133.070312 59.574219-133.070312 133.070313v75.539062c0 73.492188 59.578124 133.066406 133.070312 133.066406 5.070312 0 10.074219-.292968 15-.84375-66.429688-7.457031-118.070312-63.804687-118.070312-132.226562zm0 0" fill="#e2e6e7"/><path d="m255.980469 316.789062c-.640625 0-1.277344-.003906-1.917969-.015624-28.421875-.503907-55.089844-11.976563-75.085938-32.308594-20.019531-20.355469-31.046874-47.257813-31.046874-75.746094v-62.09375c0-15.683594 12.761718-28.445312 28.445312-28.445312h159.25c15.6875 0 28.445312 12.761718 28.445312 28.445312v60.8125c0 60.296875-48.488281 109.351562-108.089843 109.351562zm0 0" fill="#465a95"/><path d="m349.070312 146.625v60.8125c0 52.261719-42.492187 95.261719-94.742187 94.339844-50.550781-.898438-91.398437-42.296875-91.398437-93.058594v-62.09375c0-7.425781 6.019531-13.441406 13.445312-13.441406h159.25c7.425781 0 13.445312 6.015625 13.445312 13.441406zm0 0" fill="#f5d7b7"/><path d="m192.929688 208.71875v-75.535156h-16.554688c-7.425781 0-13.445312 6.015625-13.445312 13.441406v62.09375c0 50.761719 40.847656 92.160156 91.398437 93.054688 5.667969.101562 11.222656-.316407 16.617187-1.207032-44.183593-7.214844-78.015624-45.652344-78.015624-91.847656zm0 0" fill="#e9ccae"/><path d="m373.789062 361.972656h-235.578124c-36.535157 0-68.273438 22.261719-81.675782 54.476563 46.925782 58.261719 118.832032 95.550781 199.464844 95.550781s152.539062-37.289062 199.464844-95.546875c-13.40625-32.21875-45.140625-54.480469-81.675782-54.480469zm0 0" fill="#fbfcf7"/><path d="m256 287.902344c31.660156 0 57.617188-24.414063 60.074219-55.441406.207031-2.609376-1.921875-4.820313-4.539063-4.820313h-111.070312c-2.621094 0-4.746094 2.210937-4.539063 4.820313 2.457031 31.027343 28.414063 55.441406 60.074219 55.441406zm0 0" fill="#3e4852"/><path d="m295.207031 273.398438c-10.316406-9.496094-24.082031-15.300782-39.207031-15.300782s-28.894531 5.804688-39.207031 15.300782c10.539062 9.039062 24.234375 14.503906 39.207031 14.503906s28.667969-5.464844 39.207031-14.503906zm0 0" fill="#fd6e99"/><path d="m277.117188 144.59375h-42.234376c-17.582031 0-31.835937-14.253906-31.835937-31.832031 0-3.222657 2.609375-5.832031 5.832031-5.832031h94.242188c3.21875 0 5.832031 2.609374 5.832031 5.832031 0 17.578125-14.253906 31.832031-31.835937 31.832031zm0 0" fill="#3e4852"/><path d="m233.046875 112.761719c0-3.222657 2.613281-5.832031 5.832031-5.832031h-30c-3.21875 0-5.832031 2.609374-5.832031 5.832031 0 17.578125 14.253906 31.832031 31.835937 31.832031h30c-17.582031 0-31.835937-14.253906-31.835937-31.832031zm0 0" fill="#2e3b43"/><path d="m356 386.5625s-37.664062 42.84375-100 42.84375-100-42.84375-100-42.84375v-57.894531c0-5.152344 4.179688-9.328125 9.332031-9.328125h181.335938c5.152343 0 9.332031 4.175781 9.332031 9.328125zm0 0" fill="#e2e6e7"/><path d="m165.332031 319.339844c-5.15625 0-9.332031 4.175781-9.332031 9.328125v57.894531s37.664062 42.84375 100 42.84375v-110.066406zm0 0" fill="#c1ccd0"/></svg>