<svg height="512pt" viewBox="0 0 512 512" width="512pt" xmlns="http://www.w3.org/2000/svg"><path d="m512 256c0 141.386719-114.613281 256-256 256s-256-114.613281-256-256 114.613281-256 256-256 256 114.613281 256 256zm0 0" fill="#e2e6e7"/><g fill="#fbfcf7"><path d="m156.742188 250.679688h-156.6757818c-.0351562 1.769531-.0664062 3.542968-.0664062 5.320312 0 23.308594 3.132812 45.882812 8.972656 67.34375h39.785156c10.035157 0 18.167969-8.132812 18.167969-18.164062 0-10.035157 8.132813-18.167969 18.167969-18.167969h71.652344c10.03125 0 18.164062-8.132813 18.164062-18.167969 0-10.03125-8.132812-18.164062-18.167968-18.164062zm0 0"/><path d="m510.667969 282.253906h-34.203125c-10.03125 0-18.164063 8.132813-18.164063 18.167969 0 10.03125-8.136719 18.167969-18.167969 18.167969h-17.800781c-10.035156 0-18.167969 8.132812-18.167969 18.164062 0 10.035156 8.132813 18.167969 18.167969 18.167969h69.847657c9.535156-22.742187 15.890624-47.148437 18.488281-72.667969zm0 0"/><path d="m298.136719 236.347656c0-10.035156 8.132812-18.167968 18.167969-18.167968h149.667968c10.03125 0 18.167969 8.132812 18.167969 18.167968 0 10.03125-8.136719 18.167969-18.167969 18.167969h-27.800781c-10.035156 0-18.167969 8.132813-18.167969 18.164063 0 10.035156-8.132812 18.167968-18.167968 18.167968h-149.664063c-10.035156 0-18.167969-8.132812-18.167969-18.167968 0-10.03125 8.132813-18.164063 18.167969-18.164063h27.800781c10.03125-.003906 18.164063-8.136719 18.164063-18.167969zm0 0"/></g><path d="m292.605469 341.761719s31.628906 39.933593 66.320312 39.859375c34.6875-.070313 66.316407-39.859375 66.316407-39.859375s-31.628907-39.792969-66.316407-39.863281c-34.691406-.074219-66.320312 39.863281-66.320312 39.863281zm0 0" fill="#d14242"/><path d="m219.394531 341.761719s-31.628906 39.933593-66.320312 39.859375c-34.6875-.070313-66.316407-39.859375-66.316407-39.859375s31.628907-39.792969 66.316407-39.863281c34.691406-.074219 66.320312 39.863281 66.320312 39.863281zm0 0" fill="#f74b4b"/><path d="m142.234375 367.09375c-36.542969 0-68.117187 23.054688-80.203125 55.972656 46.949219 54.457032 116.429688 88.933594 193.96875 88.933594s147.019531-34.476562 193.96875-88.933594c-12.085938-32.917968-43.660156-55.972656-80.199219-55.972656zm0 0" fill="#3e4852"/><path d="m166 495.699219c28 10.523437 58.320312 16.300781 90 16.300781s62-5.777344 90-16.300781v-133.726563h-180zm0 0" fill="#fbfcf7"/><path d="m430.398438 201.003906c0 24.15625-19.582032 43.738282-43.742188 43.738282-24.15625 0-43.738281-19.582032-43.738281-43.738282s19.582031-43.742187 43.738281-43.742187c24.160156 0 43.742188 19.585937 43.742188 43.742187zm0 0" fill="#e9ccae"/><path d="m169.082031 201.003906c0 24.15625-19.582031 43.738282-43.738281 43.738282-24.160156 0-43.742188-19.582032-43.742188-43.738282s19.582032-43.742187 43.742188-43.742187c24.15625 0 43.738281 19.585937 43.738281 43.742187zm0 0" fill="#ddc1a5"/><path d="m256 352.949219c-72.167969 0-130.667969-58.503907-130.667969-130.667969v-74.289062c0-72.167969 58.503907-130.667969 130.667969-130.667969 72.167969 0 130.667969 58.503906 130.667969 130.667969v74.289062c0 72.164062-58.5 130.667969-130.667969 130.667969zm0 0" fill="#f5d7b7"/><path d="m155.332031 222.28125v-74.289062c0-67.09375 50.566407-122.363282 115.667969-129.804688-4.921875-.566406-9.925781-.863281-15-.863281-72.167969 0-130.667969 58.5-130.667969 130.667969v74.289062c0 72.167969 58.503907 130.667969 130.667969 130.667969 5.074219 0 10.078125-.296875 15-.859375-65.101562-7.445313-115.667969-62.714844-115.667969-129.808594zm0 0" fill="#e9ccae"/><path d="m372.558594 43.5c-8.988282-22-54.167969-43.5-116.558594-43.5s-107.570312 21.5-116.558594 43.5c-8.984375 22-21.34375 92.441406-21.34375 92.441406h275.804688s-12.359375-70.441406-21.34375-92.441406zm0 0" fill="#2e3b43"/><path d="m139.441406 43.5c-8.984375 22-21.34375 92.441406-21.34375 92.441406h30s18.96875-88.578125 29.3125-122.324218c-20.054687 8.113281-33.496094 18.933593-37.96875 29.882812zm0 0" fill="#212d33"/><path d="m256 133.441406c-88.582031 0-212.1875-25.757812-246.71875-33.355468-4.769531-1.050782-9.28125 2.582031-9.28125 7.46875v67.039062c0 4.222656 3.421875 7.644531 7.644531 7.644531h496.710938c4.222656 0 7.644531-3.421875 7.644531-7.644531v-67.039062c0-4.886719-4.511719-8.519532-9.28125-7.46875-34.53125 7.597656-158.136719 33.355468-246.71875 33.355468zm0 0" fill="#3e4852"/><path d="m504.355469 152.238281h-496.710938c-4.222656 0-7.644531-3.421875-7.644531-7.644531v30c0 4.222656 3.421875 7.644531 7.644531 7.644531h496.710938c4.222656 0 7.644531-3.421875 7.644531-7.644531v-30c0 4.222656-3.421875 7.644531-7.644531 7.644531zm0 0" fill="#2e3b43"/><path d="m256 225.824219c-35.996094 0-90.589844 62.082031-104.777344 78.976562-2.246094 2.671875-3.46875 6.046875-3.46875 9.539063v52.753906s41.246094 42.847656 108.246094 42.847656 108.246094-42.847656 108.246094-42.847656v-52.753906c0-3.492188-1.222656-6.867188-3.46875-9.539063-14.1875-16.894531-68.78125-78.976562-104.777344-78.976562zm0 0" fill="#f74b4b"/><path d="m295.890625 361.667969h-119.78125c-3.878906 0-7.027344-3.148438-7.027344-7.027344 0-3.882813 3.148438-7.03125 7.027344-7.03125h119.78125c3.882813 0 7.027344 3.148437 7.027344 7.03125 0 3.878906-3.148438 7.027344-7.027344 7.027344zm0 0" fill="#d14242"/><path d="m255.890625 317.882812h-79.78125c-3.878906 0-7.027344-3.148437-7.027344-7.027343 0-3.882813 3.148438-7.03125 7.027344-7.03125h79.78125c3.882813 0 7.027344 3.148437 7.027344 7.03125 0 3.878906-3.148438 7.027343-7.027344 7.027343zm0 0" fill="#d14242"/><path d="m177.753906 314.335938c0-3.488282 1.222656-6.863282 3.46875-9.535157 12.328125-14.679687 55.148438-63.453125 89.777344-76.003906-5.230469-1.894531-10.277344-2.972656-15-2.972656-35.996094 0-90.589844 62.078125-104.777344 78.976562-2.246094 2.671875-3.46875 6.046875-3.46875 9.535157v52.757812s10.683594 11.09375 30 21.988281zm0 0" fill="#d14242"/></svg>