<svg height="512pt" viewBox="0 0 512 512" width="512pt" xmlns="http://www.w3.org/2000/svg"><path d="m512 256c0 141.386719-114.613281 256-256 256s-256-114.613281-256-256 114.613281-256 256-256 256 114.613281 256 256zm0 0" fill="#8f64ac"/><g fill="#b48bcd"><path d="m156.742188 250.679688h-156.6757818c-.0351562 1.769531-.0664062 3.542968-.0664062 5.320312 0 23.308594 3.132812 45.882812 8.972656 67.34375h39.785156c10.035157 0 18.167969-8.132812 18.167969-18.164062 0-10.035157 8.132813-18.167969 18.167969-18.167969h71.652344c10.03125 0 18.164062-8.132813 18.164062-18.167969 0-10.03125-8.132812-18.164062-18.167968-18.164062zm0 0"/><path d="m177.667969 175.398438c0-10.03125 8.132812-18.167969 18.167969-18.167969h189.664062c10.03125 0 18.167969 8.132812 18.167969 18.167969 0 10.035156 8.132812 18.167968 18.167969 18.167968h45c10.03125 0 18.164062 8.132813 18.164062 18.167969 0 10.03125-8.132812 18.164063-18.164062 18.164063h-12.824219c-10.035157 0-18.167969 8.132812-18.167969 18.167968s-8.132812 18.167969-18.167969 18.167969h-180.074219c-10.03125 0-18.164062-8.132813-18.164062-18.167969 0-10.03125 8.132812-18.167968 18.164062-18.167968h12.824219c10.035157 0 18.167969-8.132813 18.167969-18.164063 0-10.035156-8.132812-18.167969-18.167969-18.167969h-54.59375c-10.03125 0-18.164062-8.132812-18.164062-18.167968zm0 0"/><path d="m301.96875 152.261719h-27.800781c-10.035157 0-18.167969-8.132813-18.167969-18.164063 0-10.035156-8.132812-18.167968-18.167969-18.167968h-196.125c-7.535156 11.5-14.167969 23.644531-19.800781 36.332031h24.0625c10.03125 0 18.167969 8.132812 18.167969 18.167969 0 10.03125 8.132812 18.167968 18.164062 18.167968h219.667969c10.035156 0 18.167969-8.132812 18.167969-18.167968 0-10.035157-8.136719-18.167969-18.167969-18.167969zm0 0"/><path d="m510.667969 282.253906h-34.203125c-10.03125 0-18.164063 8.132813-18.164063 18.167969 0 10.03125-8.136719 18.167969-18.167969 18.167969h-17.800781c-10.035156 0-18.167969 8.132812-18.167969 18.164062 0 10.035156 8.132813 18.167969 18.167969 18.167969h69.847657c9.535156-22.742187 15.890624-47.148437 18.488281-72.667969zm0 0"/></g><path d="m204.523438 248.304688h102.953124v140.695312h-102.953124zm0 0" fill="#ddc1a5"/><path d="m430.398438 201.003906c0 24.15625-19.582032 43.738282-43.742188 43.738282-24.15625 0-43.738281-19.582032-43.738281-43.738282s19.582031-43.742187 43.738281-43.742187c24.160156 0 43.742188 19.585937 43.742188 43.742187zm0 0" fill="#e9ccae"/><path d="m169.082031 201.003906c0 24.15625-19.582031 43.738282-43.738281 43.738282-24.160156 0-43.742188-19.582032-43.742188-43.738282s19.582032-43.742187 43.742188-43.742187c24.15625 0 43.738281 19.585937 43.738281 43.742187zm0 0" fill="#ddc1a5"/><path d="m256 352.949219c-72.167969 0-130.667969-58.503907-130.667969-130.667969v-74.289062c0-72.167969 58.503907-130.667969 130.667969-130.667969 72.167969 0 130.667969 58.503906 130.667969 130.667969v74.289062c0 72.164062-58.5 130.667969-130.667969 130.667969zm0 0" fill="#f5d7b7"/><path d="m155.332031 222.28125v-74.289062c0-67.09375 50.566407-122.363282 115.667969-129.808594-4.921875-.5625-9.925781-.859375-15-.859375-72.167969 0-130.667969 58.5-130.667969 130.667969v74.289062c0 72.164062 58.503907 130.667969 130.667969 130.667969 5.074219 0 10.078125-.300781 15-.863281-65.101562-7.441407-115.667969-62.710938-115.667969-129.804688zm0 0" fill="#e9ccae"/><path d="m256 284.027344c30.574219 0 55.644531-23.578125 58.019531-53.542969.199219-2.523437-1.855469-4.660156-4.386719-4.660156h-107.265624c-2.53125 0-4.585938 2.136719-4.386719 4.660156 2.375 29.964844 27.445312 53.542969 58.019531 53.542969zm0 0" fill="#3e4852"/><path d="m293.867188 270.015625c-9.964844-9.167969-23.257813-14.773437-37.867188-14.773437s-27.902344 5.605468-37.867188 14.773437c10.179688 8.730469 23.40625 14.011719 37.867188 14.011719s27.6875-5.28125 37.867188-14.011719zm0 0" fill="#fd6e99"/><path d="m392.167969 0h-272.332031c-4.144532 0-7.5 3.359375-7.5 7.5v157.753906h287.332031v-157.753906c0-4.140625-3.359375-7.5-7.5-7.5zm0 0" fill="#3e4852"/><path d="m149.835938 0h-30c-4.144532 0-7.5 3.359375-7.5 7.5v157.753906h30v-157.753906c0-4.140625 3.355468-7.5 7.5-7.5zm0 0" fill="#2e3b43"/><path d="m112.328125 95h287.339844v70.253906h-287.339844zm0 0" fill="#f74b4b"/><path d="m112.328125 95h30v70.253906h-30zm0 0" fill="#d14242"/><path d="m435.253906 182.238281h-358.507812c-3.726563 0-6.746094-3.019531-6.746094-6.746093v-20.476563c0-3.726563 3.019531-6.746094 6.746094-6.746094h358.507812c3.726563 0 6.746094 3.019531 6.746094 6.746094v20.476563c0 3.726562-3.019531 6.746093-6.746094 6.746093zm0 0" fill="#3e4852"/><path d="m100 175.492188v-20.476563c0-3.726563 3.019531-6.746094 6.746094-6.746094h-30c-3.726563 0-6.746094 3.019531-6.746094 6.746094v20.476563c0 3.726562 3.019531 6.746093 6.746094 6.746093h30c-3.726563 0-6.746094-3.019531-6.746094-6.746093zm0 0" fill="#2e3b43"/><path d="m375.90625 367.3125c-3.082031-.21875-5.15625-3.25-4.203125-6.191406l24.417969-75.308594c.953125-2.933594-1.234375-5.945312-4.320313-5.945312h-22.292969c-34.257812 0-62.03125 27.773437-62.03125 62.035156v25.191406h-102.953124v-25.191406c0-34.261719-27.773438-62.035156-62.03125-62.035156h-22.292969c-3.085938 0-5.273438 3.011718-4.320313 5.945312l24.417969 75.308594c.953125 2.941406-1.121094 5.972656-4.203125 6.191406-33.90625 2.417969-62.65625 24.699219-74.0625 55.757812 46.949219 54.453126 116.429688 88.929688 193.96875 88.929688s147.019531-34.476562 193.96875-88.933594c-11.40625-31.054687-40.15625-53.335937-74.0625-55.753906zm0 0" fill="#3e4852"/><path d="m136.09375 367.3125c-33.90625 2.417969-62.65625 24.699219-74.0625 55.753906 17.449219 20.238282 38.011719 37.710938 60.941406 51.683594 1.335938-57.925781 29.78125-86.0625 41.3125-95.121094 2.824219-2.222656 3.9375-5.988281 2.820313-9.40625l-29.5625-90.355468h-17.34375c-3.085938 0-5.273438 3.011718-4.320313 5.945312l24.417969 75.308594c.953125 2.941406-1.121094 5.972656-4.203125 6.191406zm0 0" fill="#2e3b43"/><path d="m256 491.023438c-28.429688 0-51.476562-23.046876-51.476562-51.476563v-72.453125h102.953124v72.453125c0 28.429687-23.046874 51.476563-51.476562 51.476563zm0 0" fill="#e2e6e7"/><path d="m256 367.09375h51.476562l-51.476562 82.832031zm0 0" fill="#fbfcf7"/></svg>