<svg height="512pt" viewBox="0 0 512 512" width="512pt" xmlns="http://www.w3.org/2000/svg"><path d="m512 256c0 141.386719-114.613281 256-256 256s-256-114.613281-256-256 114.613281-256 256-256 256 114.613281 256 256zm0 0" fill="#3e4852"/><g fill="#5a606c"><path d="m511.472656 272.253906h-25.003906c-10.035156 0-18.167969 8.132813-18.167969 18.167969 0 10.03125-8.136719 18.167969-18.167969 18.167969h-57.800781c-10.03125 0-18.167969 8.132812-18.167969 18.164062 0 10.035156 8.132813 18.167969 18.167969 18.167969h103.792969c8.46875-22.863281 13.753906-47.261719 15.347656-72.667969zm0 0"/><path d="m156.742188 250.679688h-156.6757818c-.0351562 1.769531-.0664062 3.542968-.0664062 5.320312 0 23.308594 3.132812 45.882812 8.972656 67.34375h39.785156c10.035157 0 18.167969-8.132812 18.167969-18.164062 0-10.035157 8.132813-18.167969 18.167969-18.167969h71.652344c10.03125 0 18.164062-8.132813 18.164062-18.167969 0-10.03125-8.132812-18.164062-18.167968-18.164062zm0 0"/><path d="m177.667969 175.398438c0-10.03125 8.132812-18.167969 18.167969-18.167969h189.664062c10.03125 0 18.167969 8.132812 18.167969 18.167969 0 10.035156 8.132812 18.167968 18.167969 18.167968h45c10.03125 0 18.164062 8.132813 18.164062 18.167969 0 10.03125-8.132812 18.164063-18.164062 18.164063h-12.824219c-10.035157 0-18.167969 8.132812-18.167969 18.167968s-8.132812 18.167969-18.167969 18.167969h-180.074219c-10.03125 0-18.164062-8.132813-18.164062-18.167969 0-10.03125 8.132812-18.167968 18.164062-18.167968h12.824219c10.035157 0 18.167969-8.132813 18.167969-18.164063 0-10.035156-8.132812-18.167969-18.167969-18.167969h-54.59375c-10.03125 0-18.164062-8.132812-18.164062-18.167968zm0 0"/><path d="m301.96875 152.261719h-27.800781c-10.035157 0-18.167969-8.132813-18.167969-18.164063 0-10.035156-8.132812-18.167968-18.167969-18.167968h-196.125c-7.535156 11.5-14.167969 23.644531-19.800781 36.332031h24.0625c10.03125 0 18.167969 8.132812 18.167969 18.167969 0 10.03125 8.132812 18.167968 18.164062 18.167968h219.667969c10.035156 0 18.167969-8.132812 18.167969-18.167968 0-10.035157-8.136719-18.167969-18.167969-18.167969zm0 0"/></g><path d="m202.703125 238.980469h106.59375v172.519531h-106.59375zm0 0" fill="#42c8b0"/><path d="m256 .113281c73.492188 0 133.070312 59.574219 133.070312 133.070313v75.535156c0 73.492188-59.578124 133.070312-133.070312 133.070312s-133.070312-59.574218-133.070312-133.070312v-75.535156c0-73.496094 59.578124-133.070313 133.070312-133.070313zm0 0" fill="#7ef8c5"/><path d="m152.929688 208.71875v-75.539062c0-68.417969 51.640624-124.769532 118.070312-132.222657-4.925781-.550781-9.929688-.84375-15-.84375-73.492188 0-133.070312 59.574219-133.070312 133.070313v75.539062c0 73.492188 59.578124 133.066406 133.070312 133.066406 5.070312 0 10.074219-.292968 15-.84375-66.429688-7.457031-118.070312-63.804687-118.070312-132.226562zm0 0" fill="#63e7ae"/><path d="m218.148438 163.6875c-21.558594-21.558594-50.722657-27.34375-65.144532-12.925781-14.421875 14.421875-8.636718 43.589843 12.921875 65.144531 21.558594 21.558594 50.726563 27.34375 65.144531 12.925781 14.421876-14.421875 8.636719-43.589843-12.921874-65.144531zm0 0" fill="#5c626b"/><path d="m358.992188 150.765625c-14.421876-14.421875-43.589844-8.636719-65.144532 12.921875-21.558594 21.558594-27.34375 50.722656-12.925781 65.144531 14.421875 14.421875 43.589844 8.636719 65.144531-12.921875 21.558594-21.558594 27.34375-50.726562 12.925782-65.144531zm0 0" fill="#5c626b"/><path d="m373.789062 361.972656h-235.578124c-36.535157 0-68.273438 22.261719-81.675782 54.476563 46.925782 58.261719 118.832032 95.550781 199.464844 95.550781s152.539062-37.289062 199.464844-95.546875c-13.40625-32.21875-45.140625-54.480469-81.675782-54.480469zm0 0" fill="#42c8b0"/><path d="m359.429688 90.832031h-206.859376c-4.140624 0-7.5-3.355469-7.5-7.5 0-4.140625 3.359376-7.5 7.5-7.5h206.859376c4.140624 0 7.5 3.359375 7.5 7.5 0 4.144531-3.359376 7.5-7.5 7.5zm0 0" fill="#63e7ae"/><path d="m336.167969 54.5h-160.332031c-4.144532 0-7.5-3.359375-7.5-7.5s3.355468-7.5 7.5-7.5h160.332031c4.140625 0 7.5 3.359375 7.5 7.5s-3.359375 7.5-7.5 7.5zm0 0" fill="#63e7ae"/><path d="m336.167969 127.167969h-160.335938c-4.140625 0-7.5-3.359375-7.5-7.5 0-4.144531 3.359375-7.5 7.5-7.5h160.332031c4.144532 0 7.5 3.355469 7.5 7.5.003907 4.140625-3.355468 7.5-7.496093 7.5zm0 0" fill="#63e7ae"/></svg>