<svg height="512pt" viewBox="0 0 512 512" width="512pt" xmlns="http://www.w3.org/2000/svg"><path d="m512 256c0 141.386719-114.613281 256-256 256s-256-114.613281-256-256 114.613281-256 256-256 256 114.613281 256 256zm0 0" fill="#e2e6e7"/><path d="m511.472656 272.253906h-25.003906c-10.035156 0-18.167969 8.132813-18.167969 18.167969 0 10.03125-8.136719 18.167969-18.167969 18.167969h-57.800781c-10.03125 0-18.167969 8.132812-18.167969 18.164062 0 10.035156 8.132813 18.167969 18.167969 18.167969h103.792969c8.46875-22.863281 13.753906-47.261719 15.347656-72.667969zm0 0" fill="#fbfcf7"/><path d="m156.742188 250.679688h-156.6757818c-.0351562 1.769531-.0664062 3.542968-.0664062 5.320312 0 23.308594 3.132812 45.882812 8.972656 67.34375h39.785156c10.035157 0 18.167969-8.132812 18.167969-18.164062 0-10.035157 8.132813-18.167969 18.167969-18.167969h71.652344c10.03125 0 18.164062-8.132813 18.164062-18.167969 0-10.03125-8.132812-18.164062-18.167968-18.164062zm0 0" fill="#fbfcf7"/><path d="m177.667969 175.398438c0-10.03125 8.132812-18.167969 18.167969-18.167969h189.664062c10.03125 0 18.167969 8.132812 18.167969 18.167969 0 10.035156 8.132812 18.167968 18.167969 18.167968h45c10.03125 0 18.164062 8.132813 18.164062 18.167969 0 10.03125-8.132812 18.164063-18.164062 18.164063h-12.824219c-10.035157 0-18.167969 8.132812-18.167969 18.167968s-8.132812 18.167969-18.167969 18.167969h-180.074219c-10.03125 0-18.164062-8.132813-18.164062-18.167969 0-10.03125 8.132812-18.167968 18.164062-18.167968h12.824219c10.035157 0 18.167969-8.132813 18.167969-18.164063 0-10.035156-8.132812-18.167969-18.167969-18.167969h-54.59375c-10.03125 0-18.164062-8.132812-18.164062-18.167968zm0 0" fill="#fbfcf7"/><path d="m301.96875 152.261719h-27.800781c-10.035157 0-18.167969-8.132813-18.167969-18.164063 0-10.035156-8.132812-18.167968-18.167969-18.167968h-196.125c-7.535156 11.5-14.167969 23.644531-19.800781 36.332031h24.0625c10.03125 0 18.167969 8.132812 18.167969 18.167969 0 10.03125 8.132812 18.167968 18.164062 18.167968h219.667969c10.035156 0 18.167969-8.132812 18.167969-18.167968 0-10.035157-8.136719-18.167969-18.167969-18.167969zm0 0" fill="#fbfcf7"/><path d="m430.414062 200.976562c0 24.15625-19.585937 43.742188-43.746093 43.742188-24.15625 0-43.742188-19.585938-43.742188-43.742188 0-24.160156 19.585938-43.746093 43.742188-43.746093 24.160156 0 43.746093 19.585937 43.746093 43.746093zm0 0" fill="#e9ccae"/><path d="m142.234375 367.09375c-36.542969 0-68.117187 23.054688-80.203125 55.972656 46.949219 54.457032 116.429688 88.933594 193.96875 88.933594s147.019531-34.476562 193.96875-88.933594c-12.085938-32.917968-43.660156-55.972656-80.199219-55.972656zm0 0" fill="#3e4852"/><path d="m204.523438 248.304688v118.789062c0 28.429688 23.046874 51.476562 51.476562 51.476562s51.476562-23.046874 51.476562-51.476562v-118.789062zm0 0" fill="#ddc1a5"/><path d="m169.074219 200.976562c0 24.15625-19.585938 43.742188-43.742188 43.742188-24.160156 0-43.746093-19.585938-43.746093-43.742188 0-24.160156 19.585937-43.746093 43.746093-43.746093 24.15625 0 43.742188 19.585937 43.742188 43.746093zm0 0" fill="#ddc1a5"/><path d="m256 352.949219c-72.167969 0-130.667969-58.503907-130.667969-130.667969v-74.289062c0-72.167969 58.503907-130.667969 130.667969-130.667969 72.167969 0 130.667969 58.503906 130.667969 130.667969v74.289062c0 72.164062-58.5 130.667969-130.667969 130.667969zm0 0" fill="#f5d7b7"/><path d="m155.332031 222.28125v-74.289062c0-67.09375 50.566407-122.363282 115.667969-129.804688-4.921875-.566406-9.925781-.863281-15-.863281-72.167969 0-130.667969 58.5-130.667969 130.667969v74.289062c0 72.167969 58.503907 130.667969 130.667969 130.667969 5.074219 0 10.078125-.296875 15-.859375-65.101562-7.445313-115.667969-62.714844-115.667969-129.808594zm0 0" fill="#e9ccae"/><path d="m320.292969 219.980469-51.242188-20.007813c-8.390625-3.277344-17.710937-3.277344-26.105469 0l-51.238281 20.007813c-23.53125 9.1875-48.941406-8.167969-48.941406-33.429688 0-19.820312 16.066406-35.886719 35.886719-35.886719h154.691406c19.820312 0 35.886719 16.066407 35.886719 35.886719.003906 25.261719-25.40625 42.617188-48.9375 33.429688zm0 0" fill="#3e4852"/><path d="m256 284.007812c30.578125 0 55.648438-23.582031 58.023438-53.550781.199218-2.519531-1.855469-4.65625-4.386719-4.65625h-107.273438c-2.53125 0-4.585937 2.136719-4.386719 4.65625 2.375 29.96875 27.445313 53.550781 58.023438 53.550781zm0 0" fill="#3e4852"/><path d="m293.867188 269.996094c-9.960938-9.171875-23.257813-14.777344-37.867188-14.777344s-27.90625 5.605469-37.867188 14.777344c10.179688 8.730468 23.402344 14.011718 37.867188 14.011718s27.6875-5.28125 37.867188-14.011718zm0 0" fill="#fd6e99"/><path d="m108.480469 147.519531c0-81.34375 66.175781-147.519531 147.519531-147.519531s147.519531 66.175781 147.519531 147.519531zm0 0" fill="#3e4852"/><path d="m108.480469 147.519531c0-81.34375 66.175781-147.519531 147.519531-147.519531s147.519531 66.175781 147.519531 147.519531zm0 0" fill="#3e4852"/><path d="m256 0c-81.34375 0-147.519531 66.175781-147.519531 147.519531h30c0-71.066406 50.511719-130.546875 117.519531-144.445312zm0 0" fill="#2e3b43"/><path d="m191.078125 147.519531h15.019531c1.882813-34.847656 7.960938-66.914062 17.585938-92.023437 9.429687-24.601563 22.117187-40.496094 32.316406-40.496094s22.886719 15.894531 32.316406 40.496094c9.625 25.109375 15.703125 57.175781 17.585938 92.023437h15.019531c-4.394531-83.214843-31.828125-147.519531-64.921875-147.519531s-60.527344 64.304688-64.921875 147.519531zm0 0" fill="#2e3b43"/><path d="m423.8125 181.671875h-335.625c-3.996094 0-7.238281-3.238281-7.238281-7.238281v-28.6875c0-3.996094 3.242187-7.238282 7.238281-7.238282h335.625c3.996094 0 7.238281 3.242188 7.238281 7.238282v28.6875c0 4-3.242187 7.238281-7.238281 7.238281zm0 0" fill="#5a606c"/><g fill="#3e4852"><path d="m110.949219 174.433594v-28.6875c0-3.996094 3.242187-7.238282 7.238281-7.238282h-30c-3.996094 0-7.238281 3.242188-7.238281 7.238282v28.6875c0 3.996094 3.242187 7.238281 7.238281 7.238281h30c-3.996094 0-7.238281-3.238281-7.238281-7.238281zm0 0"/><path d="m133.65625 138.507812h15v43.164063h-15zm0 0"/><path d="m191.078125 138.507812h15v43.164063h-15zm0 0"/><path d="m248.5 138.507812h15v43.164063h-15zm0 0"/><path d="m305.921875 138.507812h15v43.164063h-15zm0 0"/><path d="m363.34375 138.507812h15v43.164063h-15zm0 0"/></g></svg>