<svg height="512pt" viewBox="0 0 512 512" width="512pt" xmlns="http://www.w3.org/2000/svg"><path d="m512 256c0 141.386719-114.613281 256-256 256s-256-114.613281-256-256 114.613281-256 256-256 256 114.613281 256 256zm0 0" fill="#92ebf1"/><path d="m436.578125 189.980469c0 25.011719-20.277344 45.289062-45.289063 45.289062-25.011718 0-45.289062-20.277343-45.289062-45.289062 0-25.015625 20.277344-45.292969 45.289062-45.292969 25.011719 0 45.289063 20.277344 45.289063 45.292969zm0 0" fill="#e9ccae"/><path d="m166 189.980469c0 25.011719-20.277344 45.289062-45.289062 45.289062-25.011719 0-45.289063-20.277343-45.289063-45.289062 0-25.015625 20.277344-45.292969 45.289063-45.292969 25.011718 0 45.289062 20.277344 45.289062 45.292969zm0 0" fill="#ddc1a5"/><path d="m202.703125 238.980469h106.59375v172.519531h-106.59375zm0 0" fill="#ddc1a5"/><path d="m256 .113281c73.492188 0 133.070312 59.574219 133.070312 133.070313v75.535156c0 73.492188-59.578124 133.070312-133.070312 133.070312s-133.070312-59.574218-133.070312-133.070312v-75.535156c0-73.496094 59.578124-133.070313 133.070312-133.070313zm0 0" fill="#f5d7b7"/><path d="m152.929688 208.71875v-75.539062c0-68.417969 51.640624-124.769532 118.070312-132.222657-4.925781-.550781-9.929688-.84375-15-.84375-73.492188 0-133.070312 59.574219-133.070312 133.070313v75.539062c0 73.492188 59.578124 133.066406 133.070312 133.066406 5.070312 0 10.074219-.292968 15-.84375-66.429688-7.457031-118.070312-63.804687-118.070312-132.226562zm0 0" fill="#e9ccae"/><path d="m373.789062 361.972656h-235.578124c-36.535157 0-68.273438 22.261719-81.675782 54.476563 46.925782 58.261719 118.832032 95.550781 199.464844 95.550781s152.539062-37.289062 199.464844-95.546875c-13.40625-32.21875-45.140625-54.480469-81.675782-54.480469zm0 0" fill="#ddc1a5"/><path d="m256 287.902344c31.660156 0 57.617188-24.414063 60.074219-55.441406.207031-2.609376-1.921875-4.820313-4.539063-4.820313h-111.070312c-2.621094 0-4.746094 2.210937-4.539063 4.820313 2.457031 31.027343 28.414063 55.441406 60.074219 55.441406zm0 0" fill="#3e4852"/><path d="m295.207031 273.398438c-10.316406-9.496094-24.082031-15.300782-39.207031-15.300782s-28.894531 5.804688-39.207031 15.300782c10.539062 9.039062 24.234375 14.503906 39.207031 14.503906s28.667969-5.464844 39.207031-14.503906zm0 0" fill="#fd6e99"/><path d="m122.929688 133.183594v75.539062c0 43.007813 20.414062 81.246094 52.070312 105.574219v-66.796875c0-22.921875 18.578125-41.5 41.5-41.5h79c22.921875 0 41.5 18.578125 41.5 41.5v66.796875c31.65625-24.328125 52.070312-62.566406 52.070312-105.574219v-75.539062c0-73.492188-59.578124-133.070313-133.070312-133.070313s-133.070312 59.574219-133.070312 133.070313zm0 0" fill="#f74b4b"/><path d="m152.929688 208.71875v-75.539062c0-68.417969 51.640624-124.769532 118.070312-132.222657-4.925781-.550781-9.929688-.84375-15-.84375-73.492188 0-133.070312 59.574219-133.070312 133.070313v75.539062c0 43.007813 20.414062 81.246094 52.070312 105.574219v-32.171875c-13.941406-21.042969-22.070312-46.273438-22.070312-73.40625zm0 0" fill="#d14242"/><g fill="#ffb82c"><path d="m352.304688 85.984375 20.164062-17.203125c-10.933594-19.726562-26.730469-36.382812-45.777344-48.351562l-45.148437 66.804687c-1.421875 2.109375-.941407 4.960937 1.097656 6.480469l66.8125 49.820312c.992187.738282 1.65625 1.835938 1.855469 3.054688l20.597656 127.511718c10.921875-19.3125 17.164062-41.617187 17.164062-65.382812v-75.539062c0-6.664063-.496093-13.214844-1.441406-19.617188l-35.167968-24.417969c-1.074219-.746093-1.152344-2.308593-.15625-3.160156zm0 0"/><path d="m159.695312 85.984375-20.164062-17.203125c10.933594-19.726562 26.730469-36.382812 45.777344-48.351562l45.148437 66.804687c1.421875 2.109375.941407 4.960937-1.097656 6.480469l-66.8125 49.820312c-.992187.738282-1.65625 1.835938-1.855469 3.054688l-20.597656 127.511718c-10.921875-19.3125-17.164062-41.617187-17.164062-65.382812v-75.539062c0-6.664063.496093-13.214844 1.441406-19.617188l35.167968-24.417969c1.074219-.746093 1.152344-2.308593.15625-3.160156zm0 0"/><path d="m256 .113281c-11.570312 0-22.796875 1.476563-33.5 4.253907v24.257812c0 1.058594.355469 2.089844 1.003906 2.925781l28.742188 36.875c1.90625 2.441407 5.601562 2.441407 7.507812 0l28.742188-36.875c.652344-.835937 1.003906-1.867187 1.003906-2.925781v-24.257812c-10.703125-2.773438-21.929688-4.253907-33.5-4.253907zm0 0"/></g><path d="m270.964844.960938c-4.914063-.550782-9.902344-.847657-14.964844-.847657-11.570312 0-22.796875 1.476563-33.5 4.253907v11.84375c14.699219-7.996094 31.078125-13.292969 48.464844-15.25zm0 0" fill="#f08d0b"/><path d="m152.929688 133.183594c0-38.566406 16.410156-73.292969 42.621093-97.59375l-10.242187-15.15625c-19.046875 11.964844-34.84375 28.621094-45.777344 48.351562l20.164062 17.199219c.996094.851563.917969 2.414063-.15625 3.160156l-35.167968 24.421875c-.945313 6.402344-1.441406 12.949219-1.441406 19.617188v75.539062c0 23.765625 6.242187 46.070313 17.164062 65.378906l12.835938-79.460937zm0 0" fill="#f08d0b"/></svg>