<svg height="512pt" viewBox="0 0 512 512" width="512pt" xmlns="http://www.w3.org/2000/svg"><path d="m512 256c0 141.386719-114.613281 256-256 256s-256-114.613281-256-256 114.613281-256 256-256 256 114.613281 256 256zm0 0" fill="#6877ba"/><path d="m204.523438 248.304688h102.953124v140.695312h-102.953124zm0 0" fill="#ddc1a5"/><path d="m430.398438 201.003906c0 24.15625-19.582032 43.738282-43.742188 43.738282-24.15625 0-43.738281-19.582032-43.738281-43.738282s19.582031-43.742187 43.738281-43.742187c24.160156 0 43.742188 19.585937 43.742188 43.742187zm0 0" fill="#e9ccae"/><path d="m169.082031 201.003906c0 24.15625-19.582031 43.738282-43.738281 43.738282-24.160156 0-43.742188-19.582032-43.742188-43.738282s19.582032-43.742187 43.742188-43.742187c24.15625 0 43.738281 19.585937 43.738281 43.742187zm0 0" fill="#ddc1a5"/><path d="m256 352.949219c-72.167969 0-130.667969-58.503907-130.667969-130.667969v-74.289062c0-72.167969 58.503907-130.667969 130.667969-130.667969 72.167969 0 130.667969 58.503906 130.667969 130.667969v74.289062c0 72.164062-58.5 130.667969-130.667969 130.667969zm0 0" fill="#f5d7b7"/><g fill="#ddc1a5"><path d="m300.765625 320.726562c-1.921875 0-3.839844-.730468-5.304687-2.195312-2.929688-2.929688-2.929688-7.679688 0-10.605469l42.152343-42.15625c2.929688-2.925781 7.679688-2.925781 10.609375 0 2.925782 2.929688 2.925782 7.679688 0 10.609375l-42.15625 42.152344c-1.464844 1.460938-3.382812 2.195312-5.300781 2.195312zm0 0"/><path d="m341.027344 298.601562c-1.917969 0-3.835938-.730468-5.300782-2.195312l-18.839843-18.839844c-2.929688-2.929687-2.929688-7.679687 0-10.605468 2.929687-2.929688 7.679687-2.929688 10.605469 0l18.839843 18.839843c2.929688 2.929688 2.929688 7.675781 0 10.605469-1.464843 1.460938-3.382812 2.195312-5.304687 2.195312zm0 0"/><path d="m320.792969 318.839844c-1.917969 0-3.839844-.734375-5.304688-2.199219l-18.835937-18.835937c-2.929688-2.929688-2.929688-7.679688-.003906-10.605469 2.929687-2.929688 7.679687-2.929688 10.609374-.003907l18.835938 18.839844c2.929688 2.929688 2.929688 7.679688.003906 10.605469-1.464844 1.464844-3.386718 2.199219-5.304687 2.199219zm0 0"/></g><path d="m155.332031 222.28125v-74.289062c0-67.09375 50.566407-122.363282 115.667969-129.808594-4.921875-.5625-9.925781-.859375-15-.859375-72.167969 0-130.667969 58.5-130.667969 130.667969v74.289062c0 72.164062 58.503907 130.667969 130.667969 130.667969 5.074219 0 10.078125-.300781 15-.863281-65.101562-7.441407-115.667969-62.710938-115.667969-129.804688zm0 0" fill="#e9ccae"/><path d="m256 284.027344c30.574219 0 55.644531-23.578125 58.019531-53.542969.199219-2.523437-1.855469-4.660156-4.386719-4.660156h-107.265624c-2.53125 0-4.585938 2.136719-4.386719 4.660156 2.375 29.964844 27.445312 53.542969 58.019531 53.542969zm0 0" fill="#3e4852"/><path d="m293.867188 270.015625c-9.964844-9.167969-23.257813-14.773437-37.867188-14.773437s-27.902344 5.605468-37.867188 14.773437c10.179688 8.730469 23.40625 14.011719 37.867188 14.011719s27.6875-5.28125 37.867188-14.011719zm0 0" fill="#fd6e99"/><path d="m399.105469 0h-286.210938c-3.070312 0-5.558593 2.488281-5.558593 5.558594v151.632812c0 3.070313 2.488281 5.558594 5.558593 5.558594h286.210938c3.070312 0 5.558593-2.488281 5.558593-5.558594v-151.632812c0-3.070313-2.488281-5.558594-5.558593-5.558594zm0 0" fill="#e2e6e7"/><path d="m137.335938 157.09375v-151.4375c0-3.125 2.445312-5.65625 5.464843-5.65625h-30c-3.019531 0-5.464843 2.53125-5.464843 5.65625v151.4375c0 3.125 2.445312 5.65625 5.464843 5.65625h30c-3.019531 0-5.464843-2.53125-5.464843-5.65625zm0 0" fill="#c1ccd0"/><path d="m107.335938 55.164062h297.332031v52.421876h-297.332031zm0 0" fill="#3e4852"/><path d="m107.335938 55.164062h30v52.421876h-30zm0 0" fill="#2e3b43"/><path d="m142.234375 367.09375c-36.542969 0-68.117187 23.054688-80.203125 55.972656 46.949219 54.457032 116.429688 88.933594 193.96875 88.933594s147.019531-34.476562 193.96875-88.933594c-12.085938-32.917968-43.660156-55.972656-80.199219-55.972656zm0 0" fill="#e2e6e7"/><path d="m62.03125 423.066406c13.890625 16.109375 29.761719 30.453125 47.222656 42.691406h293.492188c17.457031-12.238281 33.332031-26.582031 47.222656-42.691406-1.234375-3.351562-2.675781-6.59375-4.296875-9.730468h-379.34375c-1.621094 3.136718-3.0625 6.378906-4.296875 9.730468zm0 0" fill="#3e4852"/></svg>