<svg height="512pt" viewBox="0 0 512 512" width="512pt" xmlns="http://www.w3.org/2000/svg"><path d="m512 256c0 141.386719-114.613281 256-256 256s-256-114.613281-256-256 114.613281-256 256-256 256 114.613281 256 256zm0 0" fill="#f74b4b"/><g fill="#fc7070"><path d="m511.472656 272.253906h-25.003906c-10.035156 0-18.167969 8.132813-18.167969 18.167969 0 10.03125-8.136719 18.167969-18.167969 18.167969h-57.800781c-10.03125 0-18.167969 8.132812-18.167969 18.164062 0 10.035156 8.132813 18.167969 18.167969 18.167969h103.792969c8.46875-22.863281 13.753906-47.261719 15.347656-72.667969zm0 0"/><path d="m156.742188 250.679688h-156.6757818c-.0351562 1.769531-.0664062 3.542968-.0664062 5.320312 0 23.308594 3.132812 45.882812 8.972656 67.34375h39.785156c10.035157 0 18.167969-8.132812 18.167969-18.164062 0-10.035157 8.132813-18.167969 18.167969-18.167969h71.652344c10.03125 0 18.164062-8.132813 18.164062-18.167969 0-10.03125-8.132812-18.164062-18.167968-18.164062zm0 0"/><path d="m177.667969 175.398438c0-10.03125 8.132812-18.167969 18.167969-18.167969h189.664062c10.03125 0 18.167969 8.132812 18.167969 18.167969 0 10.035156 8.132812 18.167968 18.167969 18.167968h45c10.03125 0 18.164062 8.132813 18.164062 18.167969 0 10.03125-8.132812 18.164063-18.164062 18.164063h-12.824219c-10.035157 0-18.167969 8.132812-18.167969 18.167968s-8.132812 18.167969-18.167969 18.167969h-180.074219c-10.03125 0-18.164062-8.132813-18.164062-18.167969 0-10.03125 8.132812-18.167968 18.164062-18.167968h12.824219c10.035157 0 18.167969-8.132813 18.167969-18.164063 0-10.035156-8.132812-18.167969-18.167969-18.167969h-54.59375c-10.03125 0-18.164062-8.132812-18.164062-18.167968zm0 0"/><path d="m301.96875 152.261719h-27.800781c-10.035157 0-18.167969-8.132813-18.167969-18.164063 0-10.035156-8.132812-18.167968-18.167969-18.167968h-196.125c-7.535156 11.5-14.167969 23.644531-19.800781 36.332031h24.0625c10.03125 0 18.167969 8.132812 18.167969 18.167969 0 10.03125 8.132812 18.167968 18.164062 18.167968h219.667969c10.035156 0 18.167969-8.132812 18.167969-18.167968 0-10.035157-8.136719-18.167969-18.167969-18.167969zm0 0"/></g><path d="m460.78125 174.785156c0 21.542969-17.464844 39.007813-39.007812 39.007813-21.546876 0-39.011719-17.464844-39.011719-39.007813 0-21.542968 17.464843-39.007812 39.011719-39.007812 21.542968 0 39.007812 17.464844 39.007812 39.007812zm0 0" fill="#ffb82c"/><path d="m128.347656 174.785156c0 21.542969-17.464844 39.007813-39.007812 39.007813-21.546875 0-39.011719-17.464844-39.011719-39.007813 0-21.542968 17.464844-39.007812 39.011719-39.007812 21.542968 0 39.007812 17.464844 39.007812 39.007812zm0 0" fill="#ffb82c"/><path d="m256 512c80.3125 0 151.976562-36.996094 198.910156-94.863281-13.269531-32.289063-44.988281-54.632813-81.527344-54.632813h-234.738281c-36.542969 0-68.273437 22.355469-81.539062 54.65625 46.9375 57.855469 118.589843 94.839844 198.894531 94.839844zm0 0" fill="#8f64ac"/><path d="m181.179688 357.023438c-16.570313 0-30.003907 13.429687-30.003907 30 0 9.761718 4.683594 18.410156 11.902344 23.886718-1.207031 3.929688-1.859375 8.101563-1.859375 12.425782 0 23.359374 18.9375 42.296874 42.296875 42.296874.421875 0 .835937-.019531 1.25-.03125 8.683594 19.679688 28.355469 33.421876 51.25 33.421876 22.890625 0 42.5625-13.742188 51.246094-33.421876.417969.011719.832031.03125 1.25.03125 23.359375 0 42.296875-18.9375 42.296875-42.296874 0-4.324219-.652344-8.496094-1.859375-12.425782 7.21875-5.480468 11.902343-14.125 11.902343-23.886718 0-16.570313-13.433593-30-30.003906-30zm0 0" fill="#fbfcf7"/><path d="m275.84375 489.109375c-22.890625 0-42.5625-13.742187-51.246094-33.421875-.417968.011719-.832031.03125-1.25.03125-23.359375 0-42.296875-18.9375-42.296875-42.296875 0-4.324219.652344-8.496094 1.859375-12.425781-7.21875-5.480469-11.902344-14.125-11.902344-23.886719 0-7.671875 2.882813-14.667969 7.617188-19.972656-15.371094 1.296875-27.449219 14.179687-27.449219 29.886719 0 9.761718 4.683594 18.410156 11.902344 23.886718-1.207031 3.929688-1.859375 8.101563-1.859375 12.425782 0 23.359374 18.9375 42.296874 42.296875 42.296874.421875 0 .835937-.019531 1.25-.03125 8.683594 19.679688 28.355469 33.421876 51.25 33.421876 12.980469 0 24.921875-4.421876 34.414063-11.835938-4.648438 1.25-9.539063 1.921875-14.585938 1.921875zm0 0" fill="#e2e6e7"/><path d="m202.90625 239.953125v122.550781c0 29.332032 23.777344 53.105469 53.109375 53.105469 29.328125 0 53.105469-23.773437 53.105469-53.105469v-122.550781zm0 0" fill="#c1ccd0"/><path d="m435.949219 191.125c0 24.925781-20.203125 45.128906-45.128907 45.128906-24.921874 0-45.128906-20.203125-45.128906-45.128906s20.207032-45.128906 45.128906-45.128906c24.925782 0 45.128907 20.203125 45.128907 45.128906zm0 0" fill="#e2e6e7"/><path d="m166.335938 191.125c0 24.925781-20.203126 45.128906-45.128907 45.128906s-45.128906-20.203125-45.128906-45.128906 20.203125-45.128906 45.128906-45.128906 45.128907 20.203125 45.128907 45.128906zm0 0" fill="#c1ccd0"/><path d="m256.015625 347.914062c-74.453125 0-134.808594-60.355468-134.808594-134.808593v-76.640625c0-74.453125 60.355469-134.808594 134.804688-134.808594 74.453125 0 134.808593 60.355469 134.808593 134.808594v76.640625c0 74.453125-60.355468 134.808593-134.804687 134.808593zm0 0" fill="#fbfcf7"/><path d="m152.15625 213.105469v-76.640625c0-69.21875 52.171875-126.242188 119.332031-133.917969-5.078125-.582031-10.238281-.890625-15.472656-.890625-74.453125 0-134.808594 60.355469-134.808594 134.808594v76.640625c0 74.453125 60.355469 134.804687 134.808594 134.804687 5.234375 0 10.394531-.308594 15.472656-.886718-67.160156-7.675782-119.332031-64.699219-119.332031-133.917969zm0 0" fill="#e2e6e7"/><path d="m256.015625 308.074219c58.210937 0 85.214844-63.792969 90.605469-121.464844.820312-8.78125-8.484375-14.9375-16.222656-10.699219-16.21875 8.886719-42.707032 19.898438-74.382813 19.898438s-58.167969-11.011719-74.386719-19.898438c-7.734375-4.238281-17.042968 1.917969-16.222656 10.699219 5.390625 57.671875 32.394531 121.464844 90.609375 121.464844zm0 0" fill="#f74b4b"/><path d="m256.015625 276.785156c31.546875 0 57.410156-24.324218 59.859375-55.246094.207031-2.601562-1.914062-4.804687-4.523438-4.804687h-110.675781c-2.609375 0-4.726562 2.207031-4.523437 4.804687 2.449218 30.921876 28.316406 55.246094 59.863281 55.246094zm0 0" fill="#3e4852"/><path d="m295.082031 262.332031c-10.277343-9.464843-23.996093-15.246093-39.066406-15.246093-15.074219 0-28.792969 5.78125-39.070313 15.242187 10.5 9.011719 24.148438 14.457031 39.070313 14.457031 14.917969 0 28.5625-5.445312 39.066406-14.453125zm0 0" fill="#fd6e99"/><path d="m286.886719 174.785156c0 17.050782-13.820313 30.875-30.871094 30.875-17.054687 0-30.875-13.824218-30.875-30.875 0-17.050781 13.820313-30.875 30.875-30.875 17.050781 0 30.871094 13.824219 30.871094 30.875zm0 0" fill="#8f64ac"/><path d="m245.773438 174.785156c0-13.433594 8.582031-24.855468 20.554687-29.101562-3.226563-1.144532-6.695313-1.773438-10.316406-1.773438-17.050781 0-30.871094 13.824219-30.871094 30.875 0 17.050782 13.820313 30.875 30.871094 30.875 3.621093 0 7.089843-.628906 10.316406-1.773437-11.972656-4.246094-20.554687-15.667969-20.554687-29.101563zm0 0" fill="#7c549b"/><path d="m435.949219 112.050781c0 30.453125-24.683594 55.140625-55.136719 55.140625s-55.140625-24.6875-55.140625-55.140625 24.6875-55.140625 55.140625-55.140625 55.136719 24.6875 55.136719 55.140625zm0 0" fill="#ffb82c"/><path d="m185.4375 112.050781c0 30.453125-24.683594 55.140625-55.136719 55.140625s-55.140625-24.6875-55.140625-55.140625 24.6875-55.140625 55.140625-55.140625 55.136719 24.6875 55.136719 55.140625zm0 0" fill="#ffb82c"/></svg>