<svg height="512pt" viewBox="0 0 512 512" width="512pt" xmlns="http://www.w3.org/2000/svg"><path d="m512 256c0 141.386719-114.613281 256-256 256s-256-114.613281-256-256 114.613281-256 256-256 256 114.613281 256 256zm0 0" fill="#3e4852"/><path d="m188.820312 18.761719s-54.820312-37.777344-102.820312-3.546875v97.5625h102.820312zm0 0" fill="#bff8ff"/><path d="m323.179688 18.761719s54.820312-37.777344 102.820312-3.546875v97.5625h-102.820312zm0 0" fill="#bff8ff"/><path d="m110.332031 200.976562h291.339844v238.570313h-291.339844zm0 0" fill="#d14242"/><path d="m142.234375 367.09375c-36.542969 0-68.117187 23.054688-80.203125 55.972656 46.949219 54.457032 116.429688 88.933594 193.96875 88.933594s147.019531-34.476562 193.96875-88.933594c-12.085938-32.917968-43.660156-55.972656-80.199219-55.972656zm0 0" fill="#4adbf0"/><path d="m256 352.949219c-72.167969 0-130.667969-58.503907-130.667969-130.667969v-74.289062c0-72.167969 58.503907-130.667969 130.667969-130.667969 72.167969 0 130.667969 58.503906 130.667969 130.667969v74.289062c0 72.164062-58.5 130.667969-130.667969 130.667969zm0 0" fill="#f5d7b7"/><path d="m155.332031 222.28125v-74.289062c0-67.09375 50.566407-122.363282 115.667969-129.804688-4.921875-.566406-9.925781-.863281-15-.863281-72.167969 0-130.667969 58.5-130.667969 130.667969v74.289062c0 72.167969 58.503907 130.667969 130.667969 130.667969 5.074219 0 10.078125-.296875 15-.859375-65.101562-7.445313-115.667969-62.714844-115.667969-129.808594zm0 0" fill="#e9ccae"/><path d="m256 284.007812c30.578125 0 55.648438-23.582031 58.023438-53.550781.199218-2.519531-1.855469-4.65625-4.386719-4.65625h-107.273438c-2.53125 0-4.585937 2.136719-4.386719 4.65625 2.375 29.96875 27.445313 53.550781 58.023438 53.550781zm0 0" fill="#3e4852"/><path d="m293.867188 269.996094c-9.960938-9.171875-23.257813-14.777344-37.867188-14.777344s-27.90625 5.605469-37.867188 14.777344c10.179688 8.730468 23.402344 14.011718 37.867188 14.011718s27.6875-5.28125 37.867188-14.011718zm0 0" fill="#fd6e99"/><path d="m256 2.324219c-80.320312 0-145.667969 65.347656-145.667969 145.667969v11.878906s82.667969 16.636718 145.667969-48.460938c63 65.097656 145.667969 48.460938 145.667969 48.460938v-11.878906c0-80.320313-65.347657-145.667969-145.667969-145.667969zm0 0" fill="#f74b4b"/><path d="m256 2.324219c-80.320312 0-145.667969 65.347656-145.667969 145.667969v11.878906s6.019531 1.207031 16.035157 1.699218c8.199218-65.15625 63.867187-114.246093 129.632812-114.246093s121.433594 49.089843 129.632812 114.246093c10.015626-.488281 16.035157-1.699218 16.035157-1.699218v-11.878906c0-80.320313-65.347657-145.667969-145.667969-145.667969zm0 0" fill="#d14242"/><path d="m256 2.324219c-80.320312 0-145.667969 65.347656-145.667969 145.667969v11.878906s.386719.078125 1.101563.199218c8.863281-71.898437 70.3125-127.746093 144.566406-127.746093s135.703125 55.847656 144.566406 127.746093c.714844-.121093 1.101563-.199218 1.101563-.199218v-11.878906c0-80.320313-65.347657-145.667969-145.667969-145.667969zm0 0" fill="#4adbf0"/><path d="m426 15.214844c48 34.230468 57.824219 330.785156 4.414062 330.867187-38.574218.058594-96.746093-110.636719-49.800781-317.3125zm0 0" fill="#bff8ff"/><path d="m86 15.214844c-48 34.230468-57.824219 330.785156-4.414062 330.867187 38.574218.058594 96.746093-110.636719 49.800781-317.3125zm0 0" fill="#bff8ff"/><path d="m116 15.214844c10.015625-7.144532 20.328125-11.144532 30.378906-13.011719-18.175781-3.085937-39.898437-1.59375-60.378906 13.011719-48 34.230468-57.824219 330.785156-4.414062 330.867187 5.476562.011719 11.351562-2.230469 17.261718-6.644531-38.625-44.015625-26.585937-293.03125 17.152344-324.222656zm0 0" fill="#92ebf1"/><path d="m356 367.09375s-37.664062 62.3125-100 62.3125-100-62.3125-100-62.3125v-38.425781c0-5.152344 4.179688-9.332031 9.332031-9.332031h181.335938c5.152343 0 9.332031 4.179687 9.332031 9.332031zm0 0" fill="#bff8ff"/><path d="m165.332031 319.339844c-5.15625 0-9.332031 4.175781-9.332031 9.328125v38.425781s37.664062 62.3125 100 62.3125v-110.066406zm0 0" fill="#92ebf1"/></svg>