<svg height="512pt" viewBox="0 0 512 512" width="512pt" xmlns="http://www.w3.org/2000/svg"><path d="m512 256c0 141.386719-114.613281 256-256 256s-256-114.613281-256-256 114.613281-256 256-256 256 114.613281 256 256zm0 0" fill="#8f64ac"/><g fill="#b48bcd"><path d="m511.472656 272.253906h-25.003906c-10.035156 0-18.167969 8.132813-18.167969 18.167969 0 10.03125-8.136719 18.167969-18.167969 18.167969h-57.800781c-10.03125 0-18.167969 8.132812-18.167969 18.164062 0 10.035156 8.132813 18.167969 18.167969 18.167969h103.792969c8.46875-22.863281 13.753906-47.261719 15.347656-72.667969zm0 0"/><path d="m156.742188 250.679688h-156.6757818c-.0351562 1.769531-.0664062 3.542968-.0664062 5.320312 0 23.308594 3.132812 45.882812 8.972656 67.34375h39.785156c10.035157 0 18.167969-8.132812 18.167969-18.164062 0-10.035157 8.132813-18.167969 18.167969-18.167969h71.652344c10.03125 0 18.164062-8.132813 18.164062-18.167969 0-10.03125-8.132812-18.164062-18.167968-18.164062zm0 0"/><path d="m177.667969 175.398438c0-10.03125 8.132812-18.167969 18.167969-18.167969h189.664062c10.03125 0 18.167969 8.132812 18.167969 18.167969 0 10.035156 8.132812 18.167968 18.167969 18.167968h45c10.03125 0 18.164062 8.132813 18.164062 18.167969 0 10.03125-8.132812 18.164063-18.164062 18.164063h-12.824219c-10.035157 0-18.167969 8.132812-18.167969 18.167968s-8.132812 18.167969-18.167969 18.167969h-180.074219c-10.03125 0-18.164062-8.132813-18.164062-18.167969 0-10.03125 8.132812-18.167968 18.164062-18.167968h12.824219c10.035157 0 18.167969-8.132813 18.167969-18.164063 0-10.035156-8.132812-18.167969-18.167969-18.167969h-54.59375c-10.03125 0-18.164062-8.132812-18.164062-18.167968zm0 0"/><path d="m301.96875 152.261719h-27.800781c-10.035157 0-18.167969-8.132813-18.167969-18.164063 0-10.035156-8.132812-18.167968-18.167969-18.167968h-196.125c-7.535156 11.5-14.167969 23.644531-19.800781 36.332031h24.0625c10.03125 0 18.167969 8.132812 18.167969 18.167969 0 10.03125 8.132812 18.167968 18.164062 18.167968h219.667969c10.035156 0 18.167969-8.132812 18.167969-18.167968 0-10.035157-8.136719-18.167969-18.167969-18.167969zm0 0"/></g><path d="m292.605469 341.761719s31.628906 39.933593 66.320312 39.859375c34.6875-.070313 66.316407-39.859375 66.316407-39.859375s-31.628907-39.792969-66.316407-39.863281c-34.691406-.074219-66.320312 39.863281-66.320312 39.863281zm0 0" fill="#d14242"/><path d="m219.394531 341.761719s-31.628906 39.933593-66.320312 39.859375c-34.6875-.070313-66.316407-39.859375-66.316407-39.859375s31.628907-39.792969 66.316407-39.863281c34.691406-.074219 66.320312 39.863281 66.320312 39.863281zm0 0" fill="#f74b4b"/><path d="m430.398438 201.003906c0 24.15625-19.582032 43.738282-43.742188 43.738282-24.15625 0-43.738281-19.582032-43.738281-43.738282s19.582031-43.742187 43.738281-43.742187c24.160156 0 43.742188 19.585937 43.742188 43.742187zm0 0" fill="#e9ccae"/><path d="m169.082031 201.003906c0 24.15625-19.582031 43.738282-43.738281 43.738282-24.160156 0-43.742188-19.582032-43.742188-43.738282s19.582032-43.742187 43.742188-43.742187c24.15625 0 43.738281 19.585937 43.738281 43.742187zm0 0" fill="#ddc1a5"/><path d="m256 352.949219c-72.167969 0-130.667969-58.503907-130.667969-130.667969v-74.289062c0-72.167969 58.503907-130.667969 130.667969-130.667969 72.167969 0 130.667969 58.503906 130.667969 130.667969v74.289062c0 72.164062-58.5 130.667969-130.667969 130.667969zm0 0" fill="#f5d7b7"/><path d="m155.332031 222.28125v-74.289062c0-67.09375 50.566407-122.363282 115.667969-129.808594-4.921875-.5625-9.925781-.859375-15-.859375-72.167969 0-130.667969 58.5-130.667969 130.667969v74.289062c0 72.164062 58.503907 130.667969 130.667969 130.667969 5.074219 0 10.078125-.300781 15-.863281-65.101562-7.441407-115.667969-62.710938-115.667969-129.804688zm0 0" fill="#e9ccae"/><path d="m256 337.949219c-63.78125 0-115.667969-51.886719-115.667969-115.667969v-74.289062c0-63.78125 51.886719-115.667969 115.667969-115.667969s115.667969 51.886719 115.667969 115.667969v74.289062c0 63.78125-51.886719 115.667969-115.667969 115.667969zm0 0" fill="#fbfcf7"/><path d="m155.332031 222.28125v-74.289062c0-43.539063 21.300781-82.097657 54.042969-105.84375-40.625 17.964843-69.042969 58.644531-69.042969 105.84375v74.289062c0 47.199219 28.417969 87.878906 69.042969 105.84375-32.742188-23.746094-54.042969-62.304688-54.042969-105.84375zm0 0" fill="#e2e6e7"/><path d="m256 284.027344c30.574219 0 55.644531-23.578125 58.019531-53.542969.199219-2.523437-1.855469-4.660156-4.386719-4.660156h-107.265624c-2.53125 0-4.585938 2.136719-4.386719 4.660156 2.375 29.964844 27.445312 53.542969 58.019531 53.542969zm0 0" fill="#3e4852"/><path d="m293.867188 270.015625c-9.964844-9.167969-23.257813-14.773437-37.867188-14.773437s-27.902344 5.605468-37.867188 14.773437c10.179688 8.730469 23.40625 14.011719 37.867188 14.011719s27.6875-5.28125 37.867188-14.011719zm0 0" fill="#fd6e99"/><path d="m142.234375 367.09375c-36.542969 0-68.117187 23.054688-80.203125 55.972656 46.949219 54.457032 116.429688 88.933594 193.96875 88.933594s147.019531-34.476562 193.96875-88.933594c-12.085938-32.917968-43.660156-55.972656-80.199219-55.972656zm0 0" fill="#e2e6e7"/><path d="m62.03125 423.066406c13.890625 16.109375 29.761719 30.453125 47.222656 42.691406h293.492188c17.457031-12.238281 33.332031-26.582031 47.222656-42.691406-1.234375-3.351562-2.675781-6.59375-4.296875-9.730468h-379.34375c-1.621094 3.136718-3.0625 6.378906-4.296875 9.730468zm0 0" fill="#3e4852"/><path d="m356 367.09375s-37.664062 30.40625-100 30.40625-100-30.40625-100-30.40625v-38.425781c0-5.152344 4.179688-9.332031 9.332031-9.332031h181.335938c5.152343 0 9.332031 4.179687 9.332031 9.332031zm0 0" fill="#f74b4b"/><path d="m186 328.667969c0-5.152344 4.179688-9.328125 9.332031-9.328125h-30c-5.15625 0-9.332031 4.175781-9.332031 9.328125v38.425781s10.652344 8.597656 30 16.648438zm0 0" fill="#d14242"/><path d="m335.890625 356.667969h-159.78125c-3.878906 0-7.027344-3.148438-7.027344-7.027344 0-3.882813 3.148438-7.03125 7.027344-7.03125h159.78125c3.882813 0 7.027344 3.148437 7.027344 7.03125 0 3.878906-3.148438 7.027344-7.027344 7.027344zm0 0" fill="#d14242"/><path d="m256 0c-144.078125 0-183.59375 167.039062-151.707031 162.351562 55.371093-9.375 62.839843 22.785157 151.707031 22.785157s96.335938-32.160157 151.707031-22.785157c31.886719 4.6875-7.628906-162.351562-151.707031-162.351562zm0 0" fill="#3e4852"/><path d="m271 .628906c-4.871094-.410156-9.867188-.628906-15-.628906-144.078125 0-183.59375 167.039062-151.707031 162.351562 9.191406-1.554687 17.058593-1.964843 24.203125-1.566406-19.042969-16.453125 20.617187-149.925781 142.503906-160.15625zm0 0" fill="#2e3b43"/><path d="m340.777344 245.445312-14.371094-18.648437c-.441406-.574219-.441406-1.371094 0-1.945313l14.371094-18.644531c.636718-.828125 1.882812-.828125 2.523437 0l14.367188 18.644531c.441406.574219.441406 1.371094 0 1.945313l-14.367188 18.648437c-.640625.824219-1.886719.824219-2.523437 0zm0 0" fill="#3e4852"/><path d="m168.699219 245.445312-14.367188-18.648437c-.441406-.574219-.441406-1.371094 0-1.945313l14.367188-18.644531c.640625-.828125 1.886719-.828125 2.523437 0l14.371094 18.644531c.441406.574219.441406 1.371094 0 1.945313l-14.371094 18.648437c-.636718.824219-1.882812.824219-2.523437 0zm0 0" fill="#3e4852"/></svg>