<svg height="512pt" viewBox="0 0 512 512" width="512pt" xmlns="http://www.w3.org/2000/svg"><path d="m512 256c0 141.386719-114.613281 256-256 256s-256-114.613281-256-256 114.613281-256 256-256 256 114.613281 256 256zm0 0" fill="#f74b4b"/><g fill="#fc7070"><path d="m510.667969 282.253906h-24.203125c-10.03125 0-18.164063 8.132813-18.164063 18.167969 0 10.03125-8.136719 18.167969-18.167969 18.167969h-17.800781c-10.035156 0-18.167969 8.132812-18.167969 18.164062 0 10.035156 8.132813 18.167969 18.167969 18.167969h59.847657c9.535156-22.742187 15.890624-47.148437 18.488281-72.667969zm0 0"/><path d="m156.742188 250.679688h-156.6757818c-.0351562 1.769531-.0664062 3.542968-.0664062 5.320312 0 23.308594 3.132812 45.882812 8.972656 67.34375h39.785156c10.035157 0 18.167969-8.132812 18.167969-18.164062 0-10.035157 8.132813-18.167969 18.167969-18.167969h71.652344c10.03125 0 18.164062-8.132813 18.164062-18.167969 0-10.03125-8.132812-18.164062-18.167968-18.164062zm0 0"/><path d="m298.136719 236.347656c0-10.035156 8.132812-18.167968 18.167969-18.167968h149.667968c10.03125 0 18.167969 8.132812 18.167969 18.167968 0 10.03125-8.136719 18.167969-18.167969 18.167969h-27.800781c-10.035156 0-18.167969 8.132813-18.167969 18.164063 0 10.035156-8.132812 18.167968-18.167968 18.167968h-149.664063c-10.035156 0-18.167969-8.132812-18.167969-18.167968 0-10.03125 8.132813-18.164063 18.167969-18.164063h27.800781c10.03125-.003906 18.164063-8.136719 18.164063-18.167969zm0 0"/></g><path d="m449.96875 423.066406c-12.085938-32.917968-43.660156-55.972656-80.203125-55.972656h-227.53125c-36.542969 0-68.117187 23.054688-80.199219 55.972656 46.945313 54.457032 116.425782 88.933594 193.964844 88.933594s147.019531-34.476562 193.96875-88.933594zm0 0" fill="#ddc1a5"/><path d="m190.246094 367.09375h-48.011719c-36.542969 0-68.117187 23.054688-80.199219 55.972656 46.945313 54.457032 116.425782 88.933594 193.964844 88.933594 26.417969 0 51.898438-4.011719 75.875-11.441406zm0 0" fill="#ffb82c"/><path d="m260.59375 433.386719c-5.4375 6.832031-8.695312 15.472656-8.695312 24.882812 0 22.085938 17.902343 39.992188 39.988281 39.992188 10.261719 0 19.621093-3.871094 26.699219-10.226563zm0 0" fill="#3e4852"/><path d="m430.414062 200.976562c0 24.15625-19.585937 43.742188-43.746093 43.742188-24.15625 0-43.742188-19.585938-43.742188-43.742188 0-24.160156 19.585938-43.746093 43.742188-43.746093 24.160156 0 43.746093 19.585937 43.746093 43.746093zm0 0" fill="#e9ccae"/><path d="m169.074219 200.976562c0 24.15625-19.585938 43.742188-43.742188 43.742188-24.160156 0-43.746093-19.585938-43.746093-43.742188 0-24.160156 19.585937-43.746093 43.746093-43.746093 24.15625 0 43.742188 19.585937 43.742188 43.746093zm0 0" fill="#ddc1a5"/><path d="m382.660156 76.179688s44.339844-23.179688 38.339844-40.179688-105-35.886719-165-35.886719c-2.59375 0-5.167969.070313-7.726562.207031l.15625-.207031c-92.429688-.113281-186.398438 109.554688-186.398438 136.886719 0 15.945312 27.558594 14.417969 50.523438 10.382812v77.605469c0 4.269531.195312 8.492188.5625 12.667969 3.890624 98.996094 27.058593 179.042969 36.9375 179.042969 10.796874 0 16.316406-29.558594 16.316406-29.558594s14.917968 58.503906 30.367187 58.503906 20.972657-28.945312 20.972657-28.945312 16.410156 52.574219 38.289062 52.574219 38.289062-52.574219 38.289062-52.574219 5.523438 28.945312 20.972657 28.945312 30.367187-58.503906 30.367187-58.503906 5.519532 29.558594 16.320313 29.558594c9.875 0 33.046875-80.046875 36.9375-179.042969.363281-4.175781.5625-8.398438.5625-12.667969v-81.429687s22.550781-8.558594 22.109375-21.558594-38.898438-45.820312-38.898438-45.820312zm0 0" fill="#5a606c"/><path d="m269.578125.402344c-4.695313-.1875-9.242187-.289063-13.578125-.289063-2.59375 0-5.167969.070313-7.726562.207031l.15625-.207031c-92.429688-.113281-186.398438 109.554688-186.398438 136.886719 0 15.945312 27.558594 14.417969 50.523438 10.382812v77.605469c0 4.269531.195312 8.492188.5625 12.667969 3.890624 98.996094 27.058593 179.042969 36.9375 179.042969 10.796874 0 16.316406-29.558594 16.316406-29.558594s14.917968 58.503906 30.367187 58.503906 20.972657-28.945312 20.972657-28.945312c-36.792969 58.699219-61.210938-144.199219-56.710938-168.699219s95-34.5 95-34.5l-42.5-21.5 3.585938-44.121094c-19.417969 42.378906-51.28125-54.214844-51.28125-54.214844-38.257813 43.308594-61.304688 33.335938-51.304688 7.335938 23.226562-60.390625 113.070312-99.964844 155.078125-100.597656zm0 0" fill="#3e4852"/><path d="m363.675781 147.878906c-10.976562 0-16.585937-27.804687-16.585937-27.804687s-15.160156 55.03125-30.859375 55.03125c-15.703125 0-21.316407-27.226563-21.316407-27.226563s-16.679687 49.453125-38.914062 49.453125-38.914062-49.453125-38.914062-49.453125-5.613282 27.226563-21.316407 27.226563-30.859375-55.03125-30.859375-55.03125-5.609375 27.804687-16.585937 27.804687c-1.371094 0-2.996094-1.414062-4.785157-4.078125v46.863281c0 57.488282 30.890626 22.835938 112.460938 22.835938s112.460938 34.652344 112.460938-22.835938v-46.863281c-1.789063 2.664063-3.414063 4.078125-4.785157 4.078125zm0 0" fill="#f5d7b7"/><path d="m173.539062 190.664062v-45.300781c-5.234374-12.976562-8.628906-25.289062-8.628906-25.289062s-5.609375 27.804687-16.585937 27.804687c-1.371094 0-2.996094-1.414062-4.785157-4.078125v46.863281c0 35.492188 11.785157 35.859376 39.992188 30.949219-6.867188-3.730469-9.992188-12.6875-9.992188-30.949219zm0 0" fill="#e9ccae"/><path d="m256 295.554688c30.578125 0 55.648438-23.578126 58.023438-53.546876.199218-2.523437-1.855469-4.660156-4.386719-4.660156h-107.273438c-2.53125 0-4.585937 2.136719-4.386719 4.660156 2.375 29.96875 27.445313 53.546876 58.023438 53.546876zm0 0" fill="#212d33"/><path d="m293.867188 281.542969c-9.960938-9.171875-23.257813-14.777344-37.867188-14.777344s-27.90625 5.605469-37.867188 14.777344c10.179688 8.730469 23.402344 14.011719 37.867188 14.011719s27.6875-5.277344 37.867188-14.011719zm0 0" fill="#fd6e99"/><path d="m160.75 493.679688c5.214844-6.753907 8.324219-15.214844 8.324219-24.410157 0-22.082031-17.902344-39.988281-39.988281-39.988281-16.292969 0-30.296876 9.75-36.53125 23.726562 20.320312 16.878907 43.285156 30.679688 68.195312 40.671876zm0 0" fill="#3e4852"/></svg>