<svg height="512pt" viewBox="0 0 512 512" width="512pt" xmlns="http://www.w3.org/2000/svg"><path d="m512 256c0 141.386719-114.613281 256-256 256s-256-114.613281-256-256 114.613281-256 256-256 256 114.613281 256 256zm0 0" fill="#e2e6e7"/><g fill="#fbfcf7"><path d="m511.472656 272.253906h-25.003906c-10.035156 0-18.167969 8.132813-18.167969 18.167969 0 10.03125-8.136719 18.167969-18.167969 18.167969h-57.800781c-10.03125 0-18.167969 8.132812-18.167969 18.164062 0 10.035156 8.132813 18.167969 18.167969 18.167969h103.792969c8.46875-22.863281 13.753906-47.261719 15.347656-72.667969zm0 0"/><path d="m156.742188 250.679688h-156.6757818c-.0351562 1.769531-.0664062 3.542968-.0664062 5.320312 0 23.308594 3.132812 45.882812 8.972656 67.34375h39.785156c10.035157 0 18.167969-8.132812 18.167969-18.164062 0-10.035157 8.132813-18.167969 18.167969-18.167969h71.652344c10.03125 0 18.164062-8.132813 18.164062-18.167969 0-10.03125-8.132812-18.164062-18.167968-18.164062zm0 0"/><path d="m177.667969 175.398438c0-10.03125 8.132812-18.167969 18.167969-18.167969h189.664062c10.03125 0 18.167969 8.132812 18.167969 18.167969 0 10.035156 8.132812 18.167968 18.167969 18.167968h45c10.03125 0 18.164062 8.132813 18.164062 18.167969 0 10.03125-8.132812 18.164063-18.164062 18.164063h-12.824219c-10.035157 0-18.167969 8.132812-18.167969 18.167968s-8.132812 18.167969-18.167969 18.167969h-180.074219c-10.03125 0-18.164062-8.132813-18.164062-18.167969 0-10.03125 8.132812-18.167968 18.164062-18.167968h12.824219c10.035157 0 18.167969-8.132813 18.167969-18.164063 0-10.035156-8.132812-18.167969-18.167969-18.167969h-54.59375c-10.03125 0-18.164062-8.132812-18.164062-18.167968zm0 0"/><path d="m301.96875 152.261719h-27.800781c-10.035157 0-18.167969-8.132813-18.167969-18.164063 0-10.035156-8.132812-18.167968-18.167969-18.167968h-196.125c-7.535156 11.5-14.167969 23.644531-19.800781 36.332031h24.0625c10.03125 0 18.167969 8.132812 18.167969 18.167969 0 10.03125 8.132812 18.167968 18.164062 18.167968h219.667969c10.035156 0 18.167969-8.132812 18.167969-18.167968 0-10.035157-8.136719-18.167969-18.167969-18.167969zm0 0"/></g><path d="m379.144531 196.8125s35.144531-196.8125 0-196.8125-113.144531 140-113.144531 140zm0 0" fill="#2e3b43"/><path d="m132.855469 196.8125s-35.144531-196.8125 0-196.8125 113.144531 140 113.144531 140zm0 0" fill="#212d33"/><path d="m202.703125 238.980469h106.59375v172.519531h-106.59375zm0 0" fill="#2e3b43"/><path d="m256 .113281c73.492188 0 133.070312 59.574219 133.070312 133.070313v75.535156c0 73.492188-59.578124 133.070312-133.070312 133.070312s-133.070312-59.574218-133.070312-133.070312v-75.535156c0-73.496094 59.578124-133.070313 133.070312-133.070313zm0 0" fill="#f5d7b7"/><path d="m152.929688 208.71875v-75.539062c0-68.417969 51.640624-124.769532 118.070312-132.222657-4.925781-.550781-9.929688-.84375-15-.84375-73.492188 0-133.070312 59.574219-133.070312 133.070313v75.539062c0 73.492188 59.578124 133.066406 133.070312 133.066406 5.070312 0 10.074219-.292968 15-.84375-66.429688-7.457031-118.070312-63.804687-118.070312-132.226562zm0 0" fill="#e9ccae"/><path d="m373.789062 361.972656h-235.578124c-36.535157 0-68.273438 22.261719-81.675782 54.476563 46.925782 58.261719 118.832032 95.550781 199.464844 95.550781s152.539062-37.289062 199.464844-95.546875c-13.40625-32.21875-45.140625-54.480469-81.675782-54.480469zm0 0" fill="#3e4852"/><path d="m347.925781 361.972656h-183.851562c-4.058594 0-8.039063.363282-11.914063 1.039063.558594 56.875 46.832032 102.8125 103.839844 102.8125s103.28125-45.9375 103.839844-102.8125c-3.875-.675781-7.855469-1.039063-11.914063-1.039063zm0 0" fill="#2e3b43"/><path d="m256 287.902344c31.660156 0 57.617188-24.414063 60.074219-55.441406.207031-2.609376-1.921875-4.820313-4.539063-4.820313h-111.070312c-2.621094 0-4.746094 2.210937-4.539063 4.820313 2.457031 31.027343 28.414063 55.441406 60.074219 55.441406zm0 0" fill="#3e4852"/><path d="m295.207031 273.398438c-10.316406-9.496094-24.082031-15.300782-39.207031-15.300782s-28.894531 5.804688-39.207031 15.300782c10.539062 9.039062 24.234375 14.503906 39.207031 14.503906s28.667969-5.464844 39.207031-14.503906zm0 0" fill="#fd6e99"/><path d="m122.929688 133.183594v75.539062c0 43.007813 20.414062 81.246094 52.070312 105.574219v-66.796875c0-22.921875 18.578125-41.5 41.5-41.5h79c22.921875 0 41.5 18.578125 41.5 41.5v66.796875c31.65625-24.328125 52.070312-62.566406 52.070312-105.574219v-75.539062c0-73.492188-59.578124-133.070313-133.070312-133.070313s-133.070312 59.574219-133.070312 133.070313zm0 0" fill="#3e4852"/><path d="m152.929688 208.71875v-75.539062c0-68.417969 51.640624-124.769532 118.070312-132.222657-4.925781-.550781-9.929688-.84375-15-.84375-73.492188 0-133.070312 59.574219-133.070312 133.070313v75.539062c0 43.007813 20.414062 81.246094 52.070312 105.574219v-32.171875c-13.941406-21.042969-22.070312-46.273438-22.070312-73.40625zm0 0" fill="#2e3b43"/></svg>