<svg height="512pt" viewBox="0 0 512 512" width="512pt" xmlns="http://www.w3.org/2000/svg"><path d="m512 256c0 141.386719-114.613281 256-256 256s-256-114.613281-256-256 114.613281-256 256-256 256 114.613281 256 256zm0 0" fill="#8f64ac"/><g fill="#b48bcd"><path d="m511.472656 272.253906h-25.003906c-10.035156 0-18.167969 8.132813-18.167969 18.167969 0 10.03125-8.136719 18.167969-18.167969 18.167969h-57.800781c-10.03125 0-18.167969 8.132812-18.167969 18.164062 0 10.035156 8.132813 18.167969 18.167969 18.167969h103.792969c8.46875-22.863281 13.753906-47.261719 15.347656-72.667969zm0 0"/><path d="m156.742188 250.679688h-156.6757818c-.0351562 1.769531-.0664062 3.542968-.0664062 5.320312 0 23.308594 3.132812 45.882812 8.972656 67.34375h39.785156c10.035157 0 18.167969-8.132812 18.167969-18.164062 0-10.035157 8.132813-18.167969 18.167969-18.167969h71.652344c10.03125 0 18.164062-8.132813 18.164062-18.167969 0-10.03125-8.132812-18.164062-18.167968-18.164062zm0 0"/><path d="m177.667969 175.398438c0-10.03125 8.132812-18.167969 18.167969-18.167969h189.664062c10.03125 0 18.167969 8.132812 18.167969 18.167969 0 10.035156 8.132812 18.167968 18.167969 18.167968h45c10.03125 0 18.164062 8.132813 18.164062 18.167969 0 10.03125-8.132812 18.164063-18.164062 18.164063h-12.824219c-10.035157 0-18.167969 8.132812-18.167969 18.167968s-8.132812 18.167969-18.167969 18.167969h-180.074219c-10.03125 0-18.164062-8.132813-18.164062-18.167969 0-10.03125 8.132812-18.167968 18.164062-18.167968h12.824219c10.035157 0 18.167969-8.132813 18.167969-18.164063 0-10.035156-8.132812-18.167969-18.167969-18.167969h-54.59375c-10.03125 0-18.164062-8.132812-18.164062-18.167968zm0 0"/><path d="m301.96875 152.261719h-27.800781c-10.035157 0-18.167969-8.132813-18.167969-18.164063 0-10.035156-8.132812-18.167968-18.167969-18.167968h-196.125c-7.535156 11.5-14.167969 23.644531-19.800781 36.332031h24.0625c10.03125 0 18.167969 8.132812 18.167969 18.167969 0 10.03125 8.132812 18.167968 18.164062 18.167968h219.667969c10.035156 0 18.167969-8.132812 18.167969-18.167968 0-10.035157-8.136719-18.167969-18.167969-18.167969zm0 0"/></g><path d="m142.234375 367.09375c-36.542969 0-68.117187 23.054688-80.203125 55.972656 46.949219 54.457032 116.429688 88.933594 193.96875 88.933594s147.019531-34.476562 193.96875-88.933594c-12.085938-32.917968-43.660156-55.972656-80.199219-55.972656zm0 0" fill="#ffb82c"/><path d="m202.90625 239.953125v122.550781c0 29.332032 23.777344 53.105469 53.109375 53.105469 29.328125 0 53.105469-23.773437 53.105469-53.105469v-122.550781zm0 0" fill="#ddc1a5"/><path d="m430.414062 200.976562c0 24.15625-19.585937 43.742188-43.746093 43.742188-24.15625 0-43.742188-19.585938-43.742188-43.742188 0-24.160156 19.585938-43.746093 43.742188-43.746093 24.160156 0 43.746093 19.585937 43.746093 43.746093zm0 0" fill="#e9ccae"/><path d="m169.074219 200.976562c0 24.15625-19.585938 43.742188-43.742188 43.742188-24.160156 0-43.746093-19.585938-43.746093-43.742188 0-24.160156 19.585937-43.746093 43.746093-43.746093 24.15625 0 43.742188 19.585937 43.742188 43.746093zm0 0" fill="#ddc1a5"/><path d="m256 352.949219c-72.167969 0-130.667969-58.503907-130.667969-130.667969v-74.289062c0-72.167969 58.503907-130.667969 130.667969-130.667969 72.167969 0 130.667969 58.503906 130.667969 130.667969v74.289062c0 72.164062-58.5 130.667969-130.667969 130.667969zm0 0" fill="#f5d7b7"/><path d="m155.332031 222.28125v-74.289062c0-67.09375 50.566407-122.363282 115.667969-129.804688-4.921875-.566406-9.925781-.863281-15-.863281-72.167969 0-130.667969 58.5-130.667969 130.667969v74.289062c0 72.167969 58.503907 130.667969 130.667969 130.667969 5.074219 0 10.078125-.296875 15-.859375-65.101562-7.445313-115.667969-62.714844-115.667969-129.808594zm0 0" fill="#e9ccae"/><path d="m256 2.324219c-80.320312 0-145.667969 65.347656-145.667969 145.667969v11.878906s49.800781 4.285156 64.003907-54.871094c0 0 34.664062 39 81.664062 39s81.667969-39 81.667969-39c14.199219 59.15625 64.003906 54.871094 64.003906 54.871094v-11.878906c-.003906-80.320313-65.351563-145.667969-145.671875-145.667969zm0 0" fill="#3e4852"/><path d="m140.332031 147.992188c0-75.257813 57.367188-137.367188 130.667969-144.898438-4.933594-.507812-9.9375-.769531-15-.769531-80.320312 0-145.667969 65.347656-145.667969 145.667969v11.878906s14.449219 1.238281 30-6.859375zm0 0" fill="#2e3b43"/><path d="m245.101562 205.042969c0 26.566406-21.535156 48.101562-48.101562 48.101562s-48.101562-21.535156-48.101562-48.101562c0-26.566407 21.535156-48.101563 48.101562-48.101563s48.101562 21.535156 48.101562 48.101563zm0 0" fill="#bff8ff"/><path d="m178.898438 205.042969c0-21.324219 13.882812-39.398438 33.101562-45.703125-4.722656-1.546875-9.761719-2.398438-15-2.398438-26.566406 0-48.101562 21.535156-48.101562 48.101563 0 26.566406 21.535156 48.101562 48.101562 48.101562 5.238281 0 10.277344-.851562 15-2.398437-19.21875-6.304688-33.101562-24.378906-33.101562-45.703125zm0 0" fill="#92ebf1"/><path d="m363.101562 205.042969c0 26.566406-21.535156 48.101562-48.101562 48.101562s-48.101562-21.535156-48.101562-48.101562c0-26.566407 21.535156-48.101563 48.101562-48.101563s48.101562 21.535156 48.101562 48.101563zm0 0" fill="#bff8ff"/><path d="m296.898438 205.042969c0-21.324219 13.882812-39.398438 33.101562-45.703125-4.722656-1.546875-9.761719-2.398438-15-2.398438-26.566406 0-48.101562 21.535156-48.101562 48.101563 0 26.566406 21.535156 48.101562 48.101562 48.101562 5.238281 0 10.277344-.851562 15-2.398437-19.21875-6.304688-33.101562-24.378906-33.101562-45.703125zm0 0" fill="#92ebf1"/><path d="m363.472656 188h-214.945312c-8.574219 0-15.527344-6.953125-15.527344-15.527344 0-8.578125 6.953125-15.527344 15.527344-15.527344h214.945312c8.574219 0 15.527344 6.949219 15.527344 15.527344 0 8.574219-6.953125 15.527344-15.527344 15.527344zm0 0" fill="#3e4852"/><path d="m163 172.472656c0-8.578125 6.953125-15.53125 15.527344-15.53125h-30c-8.574219 0-15.527344 6.953125-15.527344 15.53125 0 8.574219 6.953125 15.527344 15.527344 15.527344h30c-8.574219 0-15.527344-6.953125-15.527344-15.527344zm0 0" fill="#2e3b43"/><path d="m256 227.964844c-31.660156 0-57.617188 24.414062-60.074219 55.441406-.207031 2.613281 1.921875 4.824219 4.539063 4.824219h111.070312c2.621094 0 4.746094-2.210938 4.539063-4.824219-2.457031-31.027344-28.414063-55.441406-60.074219-55.441406zm0 0" fill="#3e4852"/><path d="m225.925781 283.40625c2.054688-25.953125 20.554688-47.265625 45.074219-53.546875-4.796875-1.230469-9.820312-1.894531-15-1.894531-31.660156 0-57.617188 24.414062-60.074219 55.441406-.207031 2.613281 1.921875 4.824219 4.539063 4.824219h30c-2.617188 0-4.746094-2.210938-4.539063-4.824219zm0 0" fill="#2e3b43"/><path d="m256 273c-16.570312 0-30-13.429688-30-30v-38c0-16.570312 13.429688-30 30-30s30 13.429688 30 30v38c0 16.570312-13.429688 30-30 30zm0 0" fill="#e9ccae"/></svg>